<?xml version="1.0" encoding="utf-8"?>
<!-- Generator: Adobe Illustrator 24.1.2, SVG Export Plug-In . SVG Version: 6.00 Build 0)  -->
<svg version="1.0" id="Layer_1" xmlns="http://www.w3.org/2000/svg" xmlns:xlink="http://www.w3.org/1999/xlink" x="0px" y="0px"
	 viewBox="0 0 288 288" enable-background="new 0 0 288 288" xml:space="preserve">
<g>
	
		<linearGradient id="SVGID_1_" gradientUnits="userSpaceOnUse" x1="437.3048" y1="397.8227" x2="449.7983" y2="397.8227" gradientTransform="matrix(-0.1497 0.9887 -0.9887 -0.1497 203.7391 -9.1149)">
		<stop  offset="0" style="stop-color:#F2C02F"/>
		<stop  offset="0" style="stop-color:#EAC23D"/>
		<stop  offset="0.3198" style="stop-color:#FBF28D"/>
		<stop  offset="0.6802" style="stop-color:#D9AA27"/>
		<stop  offset="1" style="stop-color:#F9F297"/>
	</linearGradient>
	<path fill="url(#SVGID_1_)" d="M-253.92,371.49c-0.15,0.98-0.29,1.96-0.44,2.93c-0.22,1.41-1.11,1.88-2.43,1.66
		c-1.29-0.21-1.68-1.29-1.64-2.29c0.11-2.82,0.38-5.64,0.67-8.45c0.08-0.74-0.13-1.86,1.19-1.83c1.63,0.04,3.04,1,3.05,2.22
		c0.01,1.92-0.13,3.84-0.2,5.76C-253.79,371.49-253.85,371.49-253.92,371.49z"/>
	
		<linearGradient id="SVGID_2_" gradientUnits="userSpaceOnUse" x1="442.3667" y1="410.3735" x2="453.2935" y2="410.3735" gradientTransform="matrix(-0.1497 0.9887 -0.9887 -0.1497 203.7391 -9.1149)">
		<stop  offset="0" style="stop-color:#F2C02F"/>
		<stop  offset="0" style="stop-color:#EAC23D"/>
		<stop  offset="0.3198" style="stop-color:#FBF28D"/>
		<stop  offset="0.6802" style="stop-color:#D9AA27"/>
		<stop  offset="1" style="stop-color:#F9F297"/>
	</linearGradient>
	<path fill="url(#SVGID_2_)" d="M-270.67,366.46c0.6,0.47,1.23,0.76,1.56,1.26c1.06,1.6,2.35,3.18,2.89,4.97
		c0.39,1.3,0.28,2.75,1.18,3.95c0.1,0.13-0.12,0.69-0.34,0.84c-1.76,1.23-3.86,0.3-4.54-1.74c-0.76-2.25-1.8-4.41-2.67-6.63
		c-0.23-0.59-0.6-1.63-0.39-1.79C-272.37,366.87-271.5,366.74-270.67,366.46z"/>
	
		<linearGradient id="SVGID_3_" gradientUnits="userSpaceOnUse" x1="368.7223" y1="502.0386" x2="373.5673" y2="502.0386" gradientTransform="matrix(0.123 0.9924 -0.9924 0.123 171.7852 -37.7717)">
		<stop  offset="0" style="stop-color:#F2C02F"/>
		<stop  offset="0" style="stop-color:#EAC23D"/>
		<stop  offset="0.3198" style="stop-color:#FBF28D"/>
		<stop  offset="0.6802" style="stop-color:#D9AA27"/>
		<stop  offset="1" style="stop-color:#F9F297"/>
	</linearGradient>
	<path fill="url(#SVGID_3_)" d="M-284.11,390.27c3.11,0.09,6.22,0.12,9.32,0.3c1.27,0.07,1.06,1.16,0.8,1.93
		c-0.46,1.39-1.63,1.76-2.97,1.66c-3.15-0.23-6.3-0.5-9.45-0.68c-0.88-0.05-1.4-0.27-1.5-1.23c-0.1-1,0.46-1.34,1.28-1.46
		c0.83-0.12,1.67-0.21,2.51-0.32C-284.11,390.42-284.11,390.34-284.11,390.27z"/>
	
		<linearGradient id="SVGID_4_" gradientUnits="userSpaceOnUse" x1="379.0973" y1="483.5785" x2="388.1692" y2="483.5785" gradientTransform="matrix(0.0601 0.9982 -0.9982 0.0601 181.5772 -31.3225)">
		<stop  offset="0" style="stop-color:#F2C02F"/>
		<stop  offset="0" style="stop-color:#EAC23D"/>
		<stop  offset="0.3198" style="stop-color:#FBF28D"/>
		<stop  offset="0.6802" style="stop-color:#D9AA27"/>
		<stop  offset="1" style="stop-color:#F9F297"/>
	</linearGradient>
	<path fill="url(#SVGID_4_)" d="M-273.94,384.96c-1.08-0.8-2.03-1.56-3.05-2.24c-0.59-0.4-1.3-0.62-1.92-0.98
		c-1.51-0.88-3.07-1.7-4.44-2.77c-0.36-0.28-0.29-1.49,0-2.07c0.18-0.37,1.25-0.67,1.69-0.48c1.93,0.82,3.92,1.53,5.36,3.29
		c0.85,1.04,2.2,1.65,3.19,2.6c0.39,0.37,0.59,1.13,0.55,1.69C-272.58,384.29-273.3,384.54-273.94,384.96z"/>
	
		<linearGradient id="SVGID_5_" gradientUnits="userSpaceOnUse" x1="443.6712" y1="385.8238" x2="453.632" y2="385.8238" gradientTransform="matrix(-0.1497 0.9887 -0.9887 -0.1497 203.7391 -9.1149)">
		<stop  offset="0" style="stop-color:#F2C02F"/>
		<stop  offset="0" style="stop-color:#EAC23D"/>
		<stop  offset="0.3198" style="stop-color:#FBF28D"/>
		<stop  offset="0.6802" style="stop-color:#D9AA27"/>
		<stop  offset="1" style="stop-color:#F9F297"/>
	</linearGradient>
	<path fill="url(#SVGID_5_)" d="M-247.59,381.35c-0.26-0.21-1-0.57-1.3-1.15c-0.12-0.25,0.87-0.91,1.04-1.48
		c0.45-1.55,1.95-2.28,2.64-3.61c0.37-0.72,0.5-1.56,0.89-2.26c0.42-0.74,1.07-1.22,1.97-0.61c0.86,0.59,1.65,1.32,1.19,2.44
		c-0.4,0.99-1.08,1.88-1.63,2.81c-0.24,0.41-0.54,0.8-0.7,1.24C-243.91,379.91-246.16,381.6-247.59,381.35z"/>
</g>
<g>
	<g>
		
			<linearGradient id="SVGID_6_" gradientUnits="userSpaceOnUse" x1="111.6797" y1="153.0308" x2="233.5721" y2="153.0308" gradientTransform="matrix(1 0 0 1 -356.7524 250.4026)">
			<stop  offset="0" style="stop-color:#F2C02F"/>
			<stop  offset="0" style="stop-color:#EAC23D"/>
			<stop  offset="0.3198" style="stop-color:#FBF28D"/>
			<stop  offset="0.6802" style="stop-color:#D9AA27"/>
			<stop  offset="1" style="stop-color:#F9F297"/>
		</linearGradient>
		<path fill="url(#SVGID_6_)" d="M-228.56,401.08c-0.16-1.83-0.78-3.24-1.86-4.24c-1.27-1.16-3.18-1.75-5.73-1.75
			c-2.65,0-4.84,1.15-6.59,3.45c-0.62,0.82-1.12,1.66-1.49,2.54c-0.43,1.01-0.7,2.08-0.8,3.18c-0.03,0.35-0.05,0.71-0.05,1.07
			c0,2.11,0.81,3.83,2.44,5.16c1.51,1.24,3.36,1.86,5.52,1.86c2.66,0,4.81-1.16,6.46-3.49c1.01-1.42,1.66-2.94,1.95-4.6
			c0.12-0.7,0.19-1.41,0.19-2.15C-228.52,401.75-228.53,401.41-228.56,401.08z M-231.88,404.26c-0.23,0.99-0.64,1.91-1.22,2.76
			c-1.08,1.57-2.42,2.36-4.02,2.36c-1.38,0-2.52-0.37-3.43-1.1c-0.94-0.76-1.41-1.74-1.41-2.96c0-0.37,0.02-0.72,0.07-1.07
			c0.14-1.13,0.52-2.19,1.12-3.18c0.13-0.22,0.28-0.44,0.44-0.65c1.16-1.58,2.55-2.36,4.18-2.36c1.67,0,2.84,0.28,3.49,0.85
			c0.52,0.46,0.84,1.18,0.97,2.17c0.04,0.31,0.06,0.66,0.06,1.03C-231.62,402.86-231.71,403.57-231.88,404.26z"/>
		
			<linearGradient id="SVGID_7_" gradientUnits="userSpaceOnUse" x1="111.6797" y1="153.0308" x2="233.5721" y2="153.0308" gradientTransform="matrix(1 0 0 1 -356.7524 250.4026)">
			<stop  offset="0" style="stop-color:#F2C02F"/>
			<stop  offset="0" style="stop-color:#EAC23D"/>
			<stop  offset="0.3198" style="stop-color:#FBF28D"/>
			<stop  offset="0.6802" style="stop-color:#D9AA27"/>
			<stop  offset="1" style="stop-color:#F9F297"/>
		</linearGradient>
		<path fill="url(#SVGID_7_)" d="M-215.46,409.9c0,0.63-0.31,1.08-0.95,1.36c-0.86,0.38-2.19,0.72-4,1.02
			c-1.65,0.28-3,0.42-4.06,0.42c-1.79,0-2.68-0.78-2.68-2.35c0.01,0,0.08-1.16,0.22-3.47c0.05-0.85,0.09-1.72,0.13-2.62
			c0.04-1.03,0.08-2.09,0.1-3.18c0.03-1.53,0.05-3.12,0.05-4.78c0-0.42,0.14-0.77,0.44-1.06c0.29-0.29,0.65-0.44,1.09-0.44
			c0.44,0,0.8,0.14,1.09,0.44s0.44,0.65,0.44,1.06c0,1.65-0.02,3.24-0.05,4.78c-0.03,1.08-0.06,2.15-0.1,3.18
			c-0.04,0.95-0.08,1.89-0.14,2.79c-0.07,0.58-0.14,1.48-0.21,2.68c1.73-0.03,3.95-0.45,6.66-1.27c0.17-0.05,0.33-0.08,0.48-0.08
			c0.46,0,0.83,0.17,1.12,0.5C-215.59,409.19-215.46,409.52-215.46,409.9z"/>
		
			<linearGradient id="SVGID_8_" gradientUnits="userSpaceOnUse" x1="111.6797" y1="153.0308" x2="233.5721" y2="153.0308" gradientTransform="matrix(1 0 0 1 -356.7524 250.4026)">
			<stop  offset="0" style="stop-color:#F2C02F"/>
			<stop  offset="0" style="stop-color:#EAC23D"/>
			<stop  offset="0.3198" style="stop-color:#FBF28D"/>
			<stop  offset="0.6802" style="stop-color:#D9AA27"/>
			<stop  offset="1" style="stop-color:#F9F297"/>
		</linearGradient>
		<path fill="url(#SVGID_8_)" d="M-200.03,404.26c-0.14-1.12-0.56-2.17-1.25-3.18c-0.38-0.56-0.84-1.1-1.39-1.63
			c-1.51-1.46-3.33-2.53-5.47-3.22c-0.22-0.07-0.88-0.37-2.02-0.91c-0.97-0.45-1.57-0.68-1.82-0.68c-0.44,0-0.85,0.2-1.24,0.6
			c-0.39,0.4-0.58,0.8-0.58,1.19c0,0.81,0.02,2.03,0.05,3.65c0.01,0.35,0.01,0.68,0.02,0.99c0.02,1.13,0.03,2.02,0.03,2.65
			c0,0.16,0,0.33-0.01,0.53c-0.01,0.7-0.04,1.62-0.09,2.76c-0.07,1.46-0.1,2.55-0.1,3.28c0,0.4,0.14,0.76,0.44,1.04
			c0.29,0.29,0.65,0.44,1.08,0.44c0.48,0.31,1.14,0.55,1.98,0.74c0.7,0.15,1.31,0.23,1.84,0.23c2.2,0,3.9-0.39,5.11-1.18
			c1.08-0.7,1.93-1.63,2.55-2.79c0.62-1.14,0.93-2.34,0.93-3.6C-199.97,404.87-199.99,404.56-200.03,404.26z M-203.63,407.46
			c-0.39,0.72-0.9,1.28-1.55,1.7c-0.69,0.44-1.82,0.66-3.39,0.66c-0.45,0-0.86-0.05-1.23-0.14c-0.37-0.09-0.7-0.23-0.98-0.41v-10.84
			c2.32,0.95,3.85,1.65,4.55,2.1c0.29,0.18,0.55,0.36,0.8,0.54c1.25,0.95,2.01,2,2.28,3.18c0.07,0.32,0.1,0.64,0.1,0.97
			C-203.05,406.01-203.25,406.75-203.63,407.46z"/>
		
			<linearGradient id="SVGID_9_" gradientUnits="userSpaceOnUse" x1="111.6797" y1="153.0308" x2="233.5721" y2="153.0308" gradientTransform="matrix(1 0 0 1 -356.7524 250.4026)">
			<stop  offset="0" style="stop-color:#F2C02F"/>
			<stop  offset="0" style="stop-color:#EAC23D"/>
			<stop  offset="0.3198" style="stop-color:#FBF28D"/>
			<stop  offset="0.6802" style="stop-color:#D9AA27"/>
			<stop  offset="1" style="stop-color:#F9F297"/>
		</linearGradient>
		<path fill="url(#SVGID_9_)" d="M-194.89,401.08c-0.01,0.27-0.02,0.57-0.03,0.87c0.41-0.03,1.83-0.16,4.28-0.4
			c1.39-0.14,2.28-0.21,2.65-0.21c0.43,0,0.8,0.14,1.1,0.41c0.31,0.27,0.46,0.63,0.46,1.09c0,0.77-0.37,1.25-1.1,1.42
			c-0.09,0.02-0.18,0.04-0.29,0.05c-0.58,0.05-1.46,0.12-2.61,0.22c-1.04,0.12-2.6,0.26-4.69,0.42c-0.05,0.93-0.08,1.68-0.08,2.25
			c0,1.43,0.08,2.25,0.25,2.44c0.08,0.09,0.54,0.14,1.38,0.14c0.45,0,1.14-0.01,2.05-0.03c0.91-0.03,1.59-0.03,2.04-0.03
			c0.15,0,0.36-0.03,0.65-0.07c0.29-0.05,0.5-0.07,0.63-0.07c0.42,0,0.79,0.12,1.08,0.36c0.35,0.27,0.52,0.65,0.52,1.14
			c0,0.82-0.42,1.31-1.28,1.47c-0.73,0.14-2.25,0.21-4.54,0.21c-2.38,0-3.93-0.32-4.66-0.97c-0.8-0.71-1.19-2.24-1.19-4.6
			c0-0.72,0.04-1.7,0.12-2.94c0.03-0.45,0.06-0.94,0.1-1.46c0.05-0.62,0.08-1.19,0.11-1.72c0.07-1.12,0.1-2.02,0.1-2.68
			c0-0.26-0.04-0.63-0.11-1.14c-0.07-0.5-0.11-0.87-0.11-1.14c0-1.11,0.51-1.66,1.53-1.66c0.32,0,0.62,0.09,0.89,0.27
			c0.85-0.21,1.65-0.37,2.42-0.48c0.76-0.1,1.48-0.16,2.16-0.16c1.84,0,3.31,0.22,4.41,0.63c0.67,0.26,1.01,0.72,1.01,1.39
			c0,0.38-0.13,0.72-0.39,1.01c-0.29,0.33-0.67,0.5-1.12,0.5c-0.15,0-0.3-0.03-0.46-0.07c-1.18-0.32-2.33-0.48-3.45-0.48
			c-0.55,0-1.14,0.05-1.76,0.13c-0.63,0.09-1.3,0.22-2,0.39C-194.82,398.43-194.85,399.59-194.89,401.08z"/>
		
			<linearGradient id="SVGID_10_" gradientUnits="userSpaceOnUse" x1="111.6797" y1="153.0308" x2="233.5721" y2="153.0308" gradientTransform="matrix(1 0 0 1 -356.7524 250.4026)">
			<stop  offset="0" style="stop-color:#F2C02F"/>
			<stop  offset="0" style="stop-color:#EAC23D"/>
			<stop  offset="0.3198" style="stop-color:#FBF28D"/>
			<stop  offset="0.6802" style="stop-color:#D9AA27"/>
			<stop  offset="1" style="stop-color:#F9F297"/>
		</linearGradient>
		<path fill="url(#SVGID_10_)" d="M-177,401.08h-3.64c0.87,1.12,1.72,2.18,2.56,3.18h3.79C-175.19,403.26-176.09,402.21-177,401.08z
			"/>
		
			<linearGradient id="SVGID_11_" gradientUnits="userSpaceOnUse" x1="111.6797" y1="153.0308" x2="233.5721" y2="153.0308" gradientTransform="matrix(1 0 0 1 -356.7524 250.4026)">
			<stop  offset="0" style="stop-color:#F2C02F"/>
			<stop  offset="0" style="stop-color:#EAC23D"/>
			<stop  offset="0.3198" style="stop-color:#FBF28D"/>
			<stop  offset="0.6802" style="stop-color:#D9AA27"/>
			<stop  offset="1" style="stop-color:#F9F297"/>
		</linearGradient>
		<path fill="url(#SVGID_11_)" d="M-181.06,404.1v0.16c0,0.57,0.01,1.39,0.03,2.45c0.03,1.16,0.04,2.02,0.04,2.6
			c0,2.15-0.52,3.23-1.57,3.23c-0.54,0-0.96-0.16-1.28-0.49c-0.29-0.29-0.43-0.65-0.43-1.06c0-0.29,0.03-0.73,0.07-1.33
			c0.05-0.59,0.07-1.03,0.07-1.33c0-0.43,0.01-1.07,0.05-1.93c0.03-0.86,0.04-1.51,0.04-1.94v-0.21c0-0.46-0.01-1.08-0.03-1.87
			c-0.01-0.5-0.02-0.94-0.03-1.31c-0.01-0.31-0.01-0.57-0.01-0.78c0-0.44-0.04-1.09-0.13-1.96c-0.08-0.87-0.13-1.52-0.13-1.96
			s0.19-0.83,0.56-1.18c0.38-0.34,0.81-0.51,1.29-0.51c0.54,0,1.14,0.46,1.8,1.4c1.25,1.79,2.49,3.45,3.73,4.98h-3.64
			c-0.12-0.16-0.24-0.31-0.37-0.47c-0.01,0.16-0.01,0.32-0.01,0.47C-181.04,402.7-181.06,403.71-181.06,404.1z"/>
		
			<linearGradient id="SVGID_12_" gradientUnits="userSpaceOnUse" x1="111.6797" y1="153.0308" x2="233.5721" y2="153.0308" gradientTransform="matrix(1 0 0 1 -356.7524 250.4026)">
			<stop  offset="0" style="stop-color:#F2C02F"/>
			<stop  offset="0" style="stop-color:#EAC23D"/>
			<stop  offset="0.3198" style="stop-color:#FBF28D"/>
			<stop  offset="0.6802" style="stop-color:#D9AA27"/>
			<stop  offset="1" style="stop-color:#F9F297"/>
		</linearGradient>
		<path fill="url(#SVGID_12_)" d="M-123.18,401.08v3.18h-44.75c-0.03,2.44-0.04,4.02-0.04,4.73c0,0.37-0.07,0.95-0.19,1.73
			c-0.14,0.95-0.68,1.42-1.6,1.42c-0.51,0-1.09-0.29-1.73-0.87c-2.01-1.82-4.2-4.15-6.59-7.01h3.79c1.13,1.25,2.25,2.38,3.37,3.41
			c0.01-0.23,0.01-0.79,0.01-1.66c0-0.62,0-1.2-0.01-1.75c0-1.23-0.01-2.29-0.03-3.18c-0.02-1.01-0.05-1.8-0.08-2.35
			c-0.01-0.22-0.06-0.61-0.14-1.18c-0.07-0.52-0.1-0.91-0.1-1.21c0-1.01,0.53-1.51,1.6-1.51c1.19,0,1.78,1.83,1.78,5.5
			c0,0.05,0,0.3-0.01,0.74H-123.18z"/>
	</g>
	<g>
		<linearGradient id="SVGID_13_" gradientUnits="userSpaceOnUse" x1="-245.0727" y1="403.7174" x2="-228.5158" y2="403.7174">
			<stop  offset="0" style="stop-color:#F2C02F"/>
			<stop  offset="0" style="stop-color:#EAC23D"/>
			<stop  offset="0.3198" style="stop-color:#FBF28D"/>
			<stop  offset="0.6802" style="stop-color:#D9AA27"/>
			<stop  offset="1" style="stop-color:#F9F297"/>
		</linearGradient>
		<path fill="url(#SVGID_13_)" d="M-228.56,401.08c-0.16-1.83-0.78-3.24-1.86-4.24c-1.27-1.16-3.18-1.75-5.73-1.75
			c-2.65,0-4.84,1.15-6.59,3.45c-0.62,0.82-1.12,1.66-1.49,2.54c-0.43,1.01-0.7,2.08-0.8,3.18c-0.03,0.35-0.05,0.71-0.05,1.07
			c0,2.11,0.81,3.83,2.44,5.16c1.51,1.24,3.36,1.86,5.52,1.86c2.66,0,4.81-1.16,6.46-3.49c1.01-1.42,1.66-2.94,1.95-4.6
			c0.12-0.7,0.19-1.41,0.19-2.15C-228.52,401.75-228.53,401.41-228.56,401.08z M-231.88,404.26c-0.23,0.99-0.64,1.91-1.22,2.76
			c-1.08,1.57-2.42,2.36-4.02,2.36c-1.38,0-2.52-0.37-3.43-1.1c-0.94-0.76-1.41-1.74-1.41-2.96c0-0.37,0.02-0.72,0.07-1.07
			c0.14-1.13,0.52-2.19,1.12-3.18c0.13-0.22,0.28-0.44,0.44-0.65c1.16-1.58,2.55-2.36,4.18-2.36c1.67,0,2.84,0.28,3.49,0.85
			c0.52,0.46,0.84,1.18,0.97,2.17c0.04,0.31,0.06,0.66,0.06,1.03C-231.62,402.86-231.71,403.57-231.88,404.26z"/>
		<linearGradient id="SVGID_14_" gradientUnits="userSpaceOnUse" x1="-227.1577" y1="403.7468" x2="-215.4647" y2="403.7468">
			<stop  offset="0" style="stop-color:#F2C02F"/>
			<stop  offset="0" style="stop-color:#EAC23D"/>
			<stop  offset="0.3198" style="stop-color:#FBF28D"/>
			<stop  offset="0.6802" style="stop-color:#D9AA27"/>
			<stop  offset="1" style="stop-color:#F9F297"/>
		</linearGradient>
		<path fill="url(#SVGID_14_)" d="M-215.46,409.9c0,0.63-0.31,1.08-0.95,1.36c-0.86,0.38-2.19,0.72-4,1.02
			c-1.65,0.28-3,0.42-4.06,0.42c-1.79,0-2.68-0.78-2.68-2.35c0.01,0,0.08-1.16,0.22-3.47c0.05-0.85,0.09-1.72,0.13-2.62
			c0.04-1.03,0.08-2.09,0.1-3.18c0.03-1.53,0.05-3.12,0.05-4.78c0-0.42,0.14-0.77,0.44-1.06c0.29-0.29,0.65-0.44,1.09-0.44
			c0.44,0,0.8,0.14,1.09,0.44s0.44,0.65,0.44,1.06c0,1.65-0.02,3.24-0.05,4.78c-0.03,1.08-0.06,2.15-0.1,3.18
			c-0.04,0.95-0.08,1.89-0.14,2.79c-0.07,0.58-0.14,1.48-0.21,2.68c1.73-0.03,3.95-0.45,6.66-1.27c0.17-0.05,0.33-0.08,0.48-0.08
			c0.46,0,0.83,0.17,1.12,0.5C-215.59,409.19-215.46,409.52-215.46,409.9z"/>
		<linearGradient id="SVGID_15_" gradientUnits="userSpaceOnUse" x1="-213.9044" y1="403.7011" x2="-199.9654" y2="403.7011">
			<stop  offset="0" style="stop-color:#F2C02F"/>
			<stop  offset="0" style="stop-color:#EAC23D"/>
			<stop  offset="0.3198" style="stop-color:#FBF28D"/>
			<stop  offset="0.6802" style="stop-color:#D9AA27"/>
			<stop  offset="1" style="stop-color:#F9F297"/>
		</linearGradient>
		<path fill="url(#SVGID_15_)" d="M-200.03,404.26c-0.14-1.12-0.56-2.17-1.25-3.18c-0.38-0.56-0.84-1.1-1.39-1.63
			c-1.51-1.46-3.33-2.53-5.47-3.22c-0.22-0.07-0.88-0.37-2.02-0.91c-0.97-0.45-1.57-0.68-1.82-0.68c-0.44,0-0.85,0.2-1.24,0.6
			c-0.39,0.4-0.58,0.8-0.58,1.19c0,0.81,0.02,2.03,0.05,3.65c0.01,0.35,0.01,0.68,0.02,0.99c0.02,1.13,0.03,2.02,0.03,2.65
			c0,0.16,0,0.33-0.01,0.53c-0.01,0.7-0.04,1.62-0.09,2.76c-0.07,1.46-0.1,2.55-0.1,3.28c0,0.4,0.14,0.76,0.44,1.04
			c0.29,0.29,0.65,0.44,1.08,0.44c0.48,0.31,1.14,0.55,1.98,0.74c0.7,0.15,1.31,0.23,1.84,0.23c2.2,0,3.9-0.39,5.11-1.18
			c1.08-0.7,1.93-1.63,2.55-2.79c0.62-1.14,0.93-2.34,0.93-3.6C-199.97,404.87-199.99,404.56-200.03,404.26z M-203.63,407.46
			c-0.39,0.72-0.9,1.28-1.55,1.7c-0.69,0.44-1.82,0.66-3.39,0.66c-0.45,0-0.86-0.05-1.23-0.14c-0.37-0.09-0.7-0.23-0.98-0.41v-10.84
			c2.32,0.95,3.85,1.65,4.55,2.1c0.29,0.18,0.55,0.36,0.8,0.54c1.25,0.95,2.01,2,2.28,3.18c0.07,0.32,0.1,0.64,0.1,0.97
			C-203.05,406.01-203.25,406.75-203.63,407.46z"/>
		<linearGradient id="SVGID_16_" gradientUnits="userSpaceOnUse" x1="-198.2613" y1="403.4334" x2="-185.6346" y2="403.4334">
			<stop  offset="0" style="stop-color:#F2C02F"/>
			<stop  offset="0" style="stop-color:#EAC23D"/>
			<stop  offset="0.3198" style="stop-color:#FBF28D"/>
			<stop  offset="0.6802" style="stop-color:#D9AA27"/>
			<stop  offset="1" style="stop-color:#F9F297"/>
		</linearGradient>
		<path fill="url(#SVGID_16_)" d="M-194.89,401.08c-0.01,0.27-0.02,0.57-0.03,0.87c0.41-0.03,1.83-0.16,4.28-0.4
			c1.39-0.14,2.28-0.21,2.65-0.21c0.43,0,0.8,0.14,1.1,0.41c0.31,0.27,0.46,0.63,0.46,1.09c0,0.77-0.37,1.25-1.1,1.42
			c-0.09,0.02-0.18,0.04-0.29,0.05c-0.58,0.05-1.46,0.12-2.61,0.22c-1.04,0.12-2.6,0.26-4.69,0.42c-0.05,0.93-0.08,1.68-0.08,2.25
			c0,1.43,0.08,2.25,0.25,2.44c0.08,0.09,0.54,0.14,1.38,0.14c0.45,0,1.14-0.01,2.05-0.03c0.91-0.03,1.59-0.03,2.04-0.03
			c0.15,0,0.36-0.03,0.65-0.07c0.29-0.05,0.5-0.07,0.63-0.07c0.42,0,0.79,0.12,1.08,0.36c0.35,0.27,0.52,0.65,0.52,1.14
			c0,0.82-0.42,1.31-1.28,1.47c-0.73,0.14-2.25,0.21-4.54,0.21c-2.38,0-3.93-0.32-4.66-0.97c-0.8-0.71-1.19-2.24-1.19-4.6
			c0-0.72,0.04-1.7,0.12-2.94c0.03-0.45,0.06-0.94,0.1-1.46c0.05-0.62,0.08-1.19,0.11-1.72c0.07-1.12,0.1-2.02,0.1-2.68
			c0-0.26-0.04-0.63-0.11-1.14c-0.07-0.5-0.11-0.87-0.11-1.14c0-1.11,0.51-1.66,1.53-1.66c0.32,0,0.62,0.09,0.89,0.27
			c0.85-0.21,1.65-0.37,2.42-0.48c0.76-0.1,1.48-0.16,2.16-0.16c1.84,0,3.31,0.22,4.41,0.63c0.67,0.26,1.01,0.72,1.01,1.39
			c0,0.38-0.13,0.72-0.39,1.01c-0.29,0.33-0.67,0.5-1.12,0.5c-0.15,0-0.3-0.03-0.46-0.07c-1.18-0.32-2.33-0.48-3.45-0.48
			c-0.55,0-1.14,0.05-1.76,0.13c-0.63,0.09-1.3,0.22-2,0.39C-194.82,398.43-194.85,399.59-194.89,401.08z"/>
		<linearGradient id="SVGID_17_" gradientUnits="userSpaceOnUse" x1="-184.3746" y1="403.6194" x2="-176.997" y2="403.6194">
			<stop  offset="0" style="stop-color:#F2C02F"/>
			<stop  offset="0" style="stop-color:#EAC23D"/>
			<stop  offset="0.3198" style="stop-color:#FBF28D"/>
			<stop  offset="0.6802" style="stop-color:#D9AA27"/>
			<stop  offset="1" style="stop-color:#F9F297"/>
		</linearGradient>
		<path fill="url(#SVGID_17_)" d="M-181.06,404.1v0.16c0,0.57,0.01,1.39,0.03,2.45c0.03,1.16,0.04,2.02,0.04,2.6
			c0,2.15-0.52,3.23-1.57,3.23c-0.54,0-0.96-0.16-1.28-0.49c-0.29-0.29-0.43-0.65-0.43-1.06c0-0.29,0.03-0.73,0.07-1.33
			c0.05-0.59,0.07-1.03,0.07-1.33c0-0.43,0.01-1.07,0.05-1.93c0.03-0.86,0.04-1.51,0.04-1.94v-0.21c0-0.46-0.01-1.08-0.03-1.87
			c-0.01-0.5-0.02-0.94-0.03-1.31c-0.01-0.31-0.01-0.57-0.01-0.78c0-0.44-0.04-1.09-0.13-1.96c-0.08-0.87-0.13-1.52-0.13-1.96
			s0.19-0.83,0.56-1.18c0.38-0.34,0.81-0.51,1.29-0.51c0.54,0,1.14,0.46,1.8,1.4c1.25,1.79,2.49,3.45,3.73,4.98h-3.64
			c-0.12-0.16-0.24-0.31-0.37-0.47c-0.01,0.16-0.01,0.32-0.01,0.47C-181.04,402.7-181.06,403.71-181.06,404.1z"/>
		<linearGradient id="SVGID_18_" gradientUnits="userSpaceOnUse" x1="-178.0744" y1="403.4791" x2="-123.1803" y2="403.4791">
			<stop  offset="0" style="stop-color:#F2C02F"/>
			<stop  offset="0" style="stop-color:#EAC23D"/>
			<stop  offset="0.3198" style="stop-color:#FBF28D"/>
			<stop  offset="0.6802" style="stop-color:#D9AA27"/>
			<stop  offset="1" style="stop-color:#F9F297"/>
		</linearGradient>
		<path fill="url(#SVGID_18_)" d="M-123.18,401.08v3.18h-44.75c-0.03,2.44-0.04,4.02-0.04,4.73c0,0.37-0.07,0.95-0.19,1.73
			c-0.14,0.95-0.68,1.42-1.6,1.42c-0.51,0-1.09-0.29-1.73-0.87c-2.01-1.82-4.2-4.15-6.59-7.01h3.79c1.13,1.25,2.25,2.38,3.37,3.41
			c0.01-0.23,0.01-0.79,0.01-1.66c0-0.62,0-1.2-0.01-1.75c0-1.23-0.01-2.29-0.03-3.18c-0.02-1.01-0.05-1.8-0.08-2.35
			c-0.01-0.22-0.06-0.61-0.14-1.18c-0.07-0.52-0.1-0.91-0.1-1.21c0-1.01,0.53-1.51,1.6-1.51c1.19,0,1.78,1.83,1.78,5.5
			c0,0.05,0,0.3-0.01,0.74H-123.18z"/>
	</g>
</g>
<linearGradient id="SVGID_19_" gradientUnits="userSpaceOnUse" x1="581.5157" y1="3.5015" x2="591.4764" y2="3.5015" gradientTransform="matrix(-0.6752 0.7376 -0.7376 -0.6752 159.6695 -42.4253)">
	<stop  offset="0" style="stop-color:#F2C02F"/>
	<stop  offset="0" style="stop-color:#EAC23D"/>
	<stop  offset="0.3198" style="stop-color:#FBF28D"/>
	<stop  offset="0.6802" style="stop-color:#D9AA27"/>
	<stop  offset="1" style="stop-color:#F9F297"/>
</linearGradient>
<path fill="url(#SVGID_19_)" d="M-243.76,390.15c-0.1-0.32-0.51-1.03-0.43-1.68c0.03-0.27,1.23-0.27,1.68-0.65
	c1.24-1.04,2.89-0.81,4.2-1.53c0.71-0.39,1.28-1.02,2-1.38c0.76-0.39,1.57-0.42,1.97,0.59c0.39,0.97,0.63,2.01-0.37,2.69
	c-0.89,0.6-1.94,0.96-2.92,1.42c-0.43,0.2-0.89,0.36-1.27,0.64C-239.89,391-242.71,391.15-243.76,390.15z"/>
<g>
	<path fill="#FFFFFF" d="M-262.2,418.2v2.61h-2.57v-2.61h-1.36v6.94h1.36v-2.99h2.57v2.99h1.36v-6.94H-262.2z"/>
	<path fill="#FFFFFF" d="M-256.64,418.06c-1.9,0-3.04,1.69-3.04,3.6c0,2.02,1.08,3.64,2.98,3.64c2.04,0,3.07-1.72,3.07-3.64
		C-253.63,419.76-254.68,418.06-256.64,418.06z M-256.62,423.97c-1.09,0-1.63-1.03-1.63-2.34c0-1.17,0.48-2.27,1.57-2.27
		c1.13,0,1.61,1.07,1.61,2.3C-255.06,422.8-255.5,423.97-256.62,423.97z"/>
	<path fill="#FFFFFF" d="M-247.58,423.8v-0.35c0-1.25-0.6-1.52-0.83-1.63c0.55-0.22,0.97-0.74,0.97-1.64c0-1.19-0.74-1.98-2.03-1.98
		h-3.04v6.94h1.34v-2.67h1.14c0.82,0,1.03,0.29,1.03,0.99v0.23c0,0.74,0.01,1.14,0.1,1.45h1.39
		C-247.59,424.82-247.58,424.28-247.58,423.8z M-249.77,421.2h-1.4v-1.74h1.41c0.64,0,0.93,0.31,0.93,0.86
		C-248.83,420.91-249.11,421.2-249.77,421.2z"/>
	<path fill="#FFFFFF" d="M-246.3,418.2v6.94h1.36v-6.94H-246.3z"/>
	<path fill="#FFFFFF" d="M-242.2,423.83l3.31-4.31v-1.32h-4.92v1.32h3.21l-3.38,4.4v1.22h5.19l0.16-1.31H-242.2z"/>
	<path fill="#FFFFFF" d="M-235.11,418.06c-1.89,0-3.04,1.69-3.04,3.6c0,2.02,1.08,3.64,2.98,3.64c2.03,0,3.07-1.72,3.07-3.64
		C-232.1,419.76-233.15,418.06-235.11,418.06z M-235.09,423.97c-1.09,0-1.63-1.03-1.63-2.34c0-1.17,0.48-2.27,1.57-2.27
		c1.14,0,1.62,1.07,1.62,2.3C-233.53,422.8-233.97,423.97-235.09,423.97z"/>
	<path fill="#FFFFFF" d="M-226.86,418.2v1.72c0,1.14-0.01,2.44,0.05,3.17h-0.01c-0.35-0.82-0.98-1.91-2.55-4.88h-1.61v6.94h1.25
		v-2.2c0-1.23,0-2.22-0.05-3.08h0.02c0.33,0.8,2.12,4.24,2.65,5.28h1.5v-6.94H-226.86z"/>
	<path fill="#FFFFFF" d="M-221.79,420.83c-1.05-0.24-1.28-0.44-1.28-0.84c0-0.45,0.33-0.7,0.97-0.7c0.92,0,1.11,0.46,1.19,0.8h1.36
		c-0.07-0.81-0.58-2.03-2.5-2.03c-1.33,0-2.4,0.71-2.4,2.1c0,0.93,0.35,1.71,2.29,2.12c1.18,0.25,1.44,0.52,1.44,1
		c0,0.44-0.25,0.78-1.12,0.78c-0.93,0-1.31-0.4-1.48-0.99h-1.36c0.17,1.25,0.96,2.21,2.71,2.21c1.87,0,2.63-0.97,2.63-2.17
		C-219.34,422.1-219.67,421.3-221.79,420.83z"/>
	<path fill="#FFFFFF" d="M-214.62,423.79v-5.59h-1.35v6.94h4.31l0.18-1.35H-214.62z"/>
	<path fill="#FFFFFF" d="M-208.02,418.06c-1.89,0-3.04,1.69-3.04,3.6c0,2.02,1.08,3.64,2.98,3.64c2.04,0,3.07-1.72,3.07-3.64
		C-205.02,419.76-206.07,418.06-208.02,418.06z M-208.01,423.97c-1.09,0-1.63-1.03-1.63-2.34c0-1.17,0.48-2.27,1.57-2.27
		c1.13,0,1.61,1.07,1.61,2.3C-206.45,422.8-206.88,423.97-208.01,423.97z"/>
	<path fill="#FFFFFF" d="M-201.1,422.46h1.36v0.11c0,0.82-0.43,1.44-1.38,1.44c-1.14,0-1.66-1.02-1.66-2.38c0-1.29,0.5-2.3,1.65-2.3
		c0.92,0,1.24,0.6,1.35,0.95h1.36c-0.14-1.01-0.92-2.22-2.72-2.22c-2,0-3.08,1.63-3.08,3.66s1.01,3.58,2.82,3.58
		c1.05,0,1.53-0.34,1.89-0.86c0.02,0.25,0.06,0.56,0.09,0.71h0.99v-3.98h-2.68V422.46z"/>
	<path fill="#FFFFFF" d="M-197.14,418.2v6.94h1.36v-6.94H-197.14z"/>
	<path fill="#FFFFFF" d="M-191.94,420.83c-1.05-0.24-1.29-0.44-1.29-0.84c0-0.45,0.33-0.7,0.98-0.7c0.92,0,1.1,0.46,1.19,0.8h1.36
		c-0.07-0.81-0.59-2.03-2.51-2.03c-1.32,0-2.4,0.71-2.4,2.1c0,0.93,0.35,1.71,2.29,2.12c1.18,0.25,1.44,0.52,1.44,1
		c0,0.44-0.25,0.78-1.12,0.78c-0.93,0-1.32-0.4-1.48-0.99h-1.36c0.17,1.25,0.95,2.21,2.7,2.21c1.87,0,2.64-0.97,2.64-2.17
		C-189.49,422.1-189.82,421.3-191.94,420.83z"/>
	<path fill="#FFFFFF" d="M-189.06,418.2v1.34h1.97v5.6h1.36v-5.6h1.96v-1.34H-189.06z"/>
	<path fill="#FFFFFF" d="M-182.91,418.2v6.94h1.36v-6.94H-182.91z"/>
	<path fill="#FFFFFF" d="M-177.35,423.99c-1.1,0-1.6-1.1-1.6-2.38c0-1.27,0.55-2.25,1.59-2.25c0.95,0,1.25,0.64,1.37,1.03h1.37
		c-0.16-1.16-1.02-2.34-2.73-2.34c-1.97,0-3.04,1.72-3.04,3.62c0,1.89,0.97,3.61,2.96,3.61c1.76,0,2.53-1.14,2.79-2.35h-1.36
		C-176.21,423.61-176.55,423.99-177.35,423.99z"/>
	<path fill="#FFFFFF" d="M-171.19,420.83c-1.05-0.24-1.28-0.44-1.28-0.84c0-0.45,0.33-0.7,0.97-0.7c0.92,0,1.11,0.46,1.19,0.8h1.36
		c-0.06-0.81-0.58-2.03-2.5-2.03c-1.33,0-2.4,0.71-2.4,2.1c0,0.93,0.35,1.71,2.29,2.12c1.18,0.25,1.44,0.52,1.44,1
		c0,0.44-0.25,0.78-1.12,0.78c-0.93,0-1.31-0.4-1.48-0.99h-1.36c0.17,1.25,0.96,2.21,2.71,2.21c1.87,0,2.63-0.97,2.63-2.17
		C-168.74,422.1-169.06,421.3-171.19,420.83z"/>
</g>
<linearGradient id="SVGID_20_" gradientUnits="userSpaceOnUse" x1="-269.6732" y1="398.3474" x2="-248.0237" y2="398.3474">
	<stop  offset="0" style="stop-color:#F2C02F"/>
	<stop  offset="0" style="stop-color:#EAC23D"/>
	<stop  offset="0.3198" style="stop-color:#FBF28D"/>
	<stop  offset="0.6802" style="stop-color:#D9AA27"/>
	<stop  offset="1" style="stop-color:#F9F297"/>
</linearGradient>
<path fill="url(#SVGID_20_)" d="M-265.97,401.08c0.37-3.46,1.7-6.7,3.98-9.73c0.91-1.22,1.61-2.06,2.1-2.52
	c0.97-0.92,1.9-1.38,2.79-1.38c1.25,0,2.77,0.55,4.58,1.65c0.47,0.29,0.84,0.44,1.1,0.44c0.5,0,0.92-0.19,1.27-0.57
	c0.36-0.38,0.54-0.81,0.54-1.3c0-1.03-1.08-1.97-3.23-2.82c-1.76-0.71-3.19-1.06-4.26-1.06c-1.69,0-3.3,0.67-4.81,2
	c-2.27,2-4.13,4.62-5.58,7.87c-1.13,2.53-1.82,4.99-2.06,7.41c-0.07,0.69-0.11,1.38-0.11,2.06c0,0.39,0.01,0.76,0.03,1.12
	c0.15,2.7,0.86,4.77,2.15,6.21c1.46,1.63,3.64,2.44,6.55,2.44c3.19,0,5.97-1.09,8.32-3.26c1.59-1.47,2.8-3.26,3.65-5.39
	c0.39-0.99,0.71-2.05,0.95-3.18H-265.97z M-255.41,407.26c-1.57,1.34-3.41,2-5.52,2c-2,0-3.38-0.48-4.12-1.46
	c-0.56-0.73-0.9-1.91-1-3.55h12.95C-253.71,405.45-254.48,406.45-255.41,407.26z"/>
<linearGradient id="SVGID_21_" gradientUnits="userSpaceOnUse" x1="-322.4127" y1="402.6662" x2="-269.5623" y2="402.6662">
	<stop  offset="0" style="stop-color:#F2C02F"/>
	<stop  offset="0" style="stop-color:#EAC23D"/>
	<stop  offset="0.3198" style="stop-color:#FBF28D"/>
	<stop  offset="0.6802" style="stop-color:#D9AA27"/>
	<stop  offset="1" style="stop-color:#F9F297"/>
</linearGradient>
<path fill="url(#SVGID_21_)" d="M-269.56,401.08c-0.07,0.69-0.11,1.38-0.11,2.06c0,0.39,0.01,0.76,0.03,1.12h-52.77v-3.18H-269.56z"
	/>
<linearGradient id="SVGID_22_" gradientUnits="userSpaceOnUse" x1="-180.6336" y1="402.6662" x2="-174.2876" y2="402.6662">
	<stop  offset="0" style="stop-color:#F2C02F"/>
	<stop  offset="0" style="stop-color:#EAC23D"/>
	<stop  offset="0.3198" style="stop-color:#FBF28D"/>
	<stop  offset="0.6802" style="stop-color:#D9AA27"/>
	<stop  offset="1" style="stop-color:#F9F297"/>
</linearGradient>
<path fill="url(#SVGID_22_)" d="M-174.29,404.26h-3.79c-0.84-1-1.68-2.06-2.56-3.18h3.64
	C-176.09,402.21-175.19,403.26-174.29,404.26z"/>
<linearGradient id="SVGID_23_" gradientUnits="userSpaceOnUse" x1="-123.1803" y1="402.6662" x2="-102.6473" y2="402.6662">
	<stop  offset="0" style="stop-color:#F2C02F"/>
	<stop  offset="0" style="stop-color:#EAC23D"/>
	<stop  offset="0.3198" style="stop-color:#FBF28D"/>
	<stop  offset="0.6802" style="stop-color:#D9AA27"/>
	<stop  offset="1" style="stop-color:#F9F297"/>
</linearGradient>
<rect x="-123.18" y="401.08" fill="url(#SVGID_23_)" width="20.53" height="3.18"/>
<g>
	<g>
		<g>
			<path fill="#FFFFFF" d="M258.84,174.03c-2.05,1.55-4.44,2.56-7.01,3.08c-1.65,0.33-3.25,0.89-4.88,1.28
				c-1.07,0.25-2.18,0.4-3.26,0.53c-3.33,0.4-6.68,0.8-10.02,1.13c-3.58,0.37-7.17,0.67-10.75,0.99c0-0.05-0.01-0.1-0.01-0.14
				c-3.43,0.16-6.86,0.32-10.3,0.46c-0.41,0.02-0.84,0.04-1.25-0.05c-0.83-0.19-1.37-0.82-1.31-1.62c0.05-0.75,0.57-1.2,1.48-1.24
				c4.51-0.14,9.02-0.31,13.52-0.57c3.9-0.22,7.82-0.49,11.71-0.9c3.11-0.34,6.24-0.79,9.31-1.44c2.77-0.59,5.5-1.46,8.2-2.33
				c0.99-0.32,1.96-0.89,2.76-1.55c1.84-1.49,1.45-2.17,0.49-3.69c-1.42-2.27-3.51-3.89-5.76-5.22c-4.48-2.63-8.96-5.31-13.61-7.61
				c-5.29-2.61-10.74-4.95-16.19-7.22c-5.82-2.43-11.74-4.67-17.63-6.92c-5.54-2.12-11.1-4.16-16.65-6.22
				c-2.58-0.96-5.18-1.89-7.76-2.84c-3.03-1.11-6.06-2.24-9.09-3.37c-3.25-1.21-6.48-2.46-9.73-3.66c-3.18-1.18-6.39-2.28-9.55-3.51
				c-3.04-1.18-6.04-2.45-9.04-3.74c-2.61-1.11-5.19-2.29-7.75-3.51c-0.89-0.42-1.71-1.02-2.52-1.61c-0.66-0.47-0.85-1.62-0.45-2.13
				c0.57-0.73,1.3-0.83,2.18-0.22c2.72,1.9,5.74,3.23,8.79,4.47c4.3,1.75,8.61,3.51,12.95,5.18c3.61,1.38,7.31,2.59,10.94,3.94
				c4.6,1.71,9.18,3.51,13.77,5.24c2.22,0.83,4.48,1.55,6.7,2.37c2.94,1.08,5.85,2.21,8.78,3.31c3.91,1.46,7.85,2.84,11.74,4.37
				c5.14,2.01,10.25,4.1,15.36,6.2c3.79,1.56,7.58,3.11,11.31,4.82c3.84,1.77,7.68,3.58,11.38,5.63c3.58,1.97,7.1,4.11,10.4,6.51
				c1.74,1.25,3.26,3.01,4.37,4.85C261.98,169.61,261.7,171.86,258.84,174.03z"/>
		</g>
	</g>
</g>
<g>
	<g>
		<path fill="#FFFFFF" d="M133.82,171.2l-2.71-12.29h1.46l1.27,6.22c0.32,1.53,0.6,3.06,0.79,4.25h0.03
			c0.17-1.22,0.51-2.68,0.87-4.27l1.43-6.2h1.44l1.3,6.24c0.3,1.46,0.59,2.92,0.75,4.21h0.03c0.22-1.35,0.52-2.72,0.86-4.25
			l1.41-6.2h1.41l-3.03,12.29h-1.44l-1.35-6.4c-0.33-1.57-0.56-2.77-0.7-4.01h-0.03c-0.19,1.22-0.43,2.42-0.83,4.01l-1.52,6.4
			H133.82z"/>
		<path fill="#FFFFFF" d="M150.6,167.34l-1.11,3.87h-1.43l3.63-12.29h1.67l3.65,12.29h-1.48l-1.14-3.87H150.6z M154.1,166.1
			l-1.05-3.54c-0.24-0.8-0.4-1.53-0.56-2.24h-0.03c-0.16,0.73-0.33,1.48-0.54,2.22l-1.05,3.56H154.1z"/>
		<path fill="#FFFFFF" d="M161.95,159.08c0.7-0.16,1.7-0.25,2.65-0.25c1.48,0,2.43,0.31,3.09,1c0.54,0.55,0.84,1.39,0.84,2.33
			c0,1.62-0.89,2.7-2.02,3.14v0.05c0.83,0.33,1.32,1.2,1.57,2.48c0.35,1.71,0.6,2.9,0.83,3.37h-1.43c-0.17-0.35-0.41-1.4-0.71-2.94
			c-0.32-1.7-0.89-2.33-2.14-2.39h-1.3v5.32h-1.38V159.08z M163.33,164.68h1.41c1.48,0,2.41-0.93,2.41-2.33c0-1.59-1-2.28-2.46-2.3
			c-0.67,0-1.14,0.07-1.36,0.15V164.68z"/>
		<path fill="#FFFFFF" d="M173.85,159.08c0.84-0.15,1.84-0.25,2.94-0.25c1.98,0,3.4,0.53,4.33,1.53c0.95,1,1.51,2.42,1.51,4.41
			c0,2-0.54,3.65-1.54,4.78c-1,1.15-2.65,1.77-4.73,1.77c-0.98,0-1.81-0.05-2.51-0.15V159.08z M175.24,169.95
			c0.35,0.07,0.86,0.09,1.4,0.09c2.95,0,4.55-1.9,4.55-5.21c0.02-2.9-1.41-4.74-4.33-4.74c-0.71,0-1.25,0.07-1.62,0.16V169.95z"/>
		<path fill="#FFFFFF" d="M187.79,159.08c0.7-0.16,1.7-0.25,2.65-0.25c1.48,0,2.43,0.31,3.09,1c0.54,0.55,0.84,1.39,0.84,2.33
			c0,1.62-0.89,2.7-2.02,3.14v0.05c0.83,0.33,1.32,1.2,1.57,2.48c0.35,1.71,0.6,2.9,0.83,3.37h-1.43c-0.17-0.35-0.41-1.4-0.71-2.94
			c-0.32-1.7-0.89-2.33-2.14-2.39h-1.3v5.32h-1.38V159.08z M189.17,164.68h1.41c1.48,0,2.41-0.93,2.41-2.33c0-1.59-1-2.28-2.46-2.3
			c-0.67,0-1.14,0.07-1.36,0.15V164.68z"/>
		<path fill="#FFFFFF" d="M208.84,164.93c0,4.23-2.24,6.47-4.97,6.47c-2.83,0-4.81-2.52-4.81-6.24c0-3.9,2.11-6.45,4.97-6.45
			C206.95,158.71,208.84,161.28,208.84,164.93z M200.54,165.13c0,2.63,1.24,4.98,3.41,4.98c2.19,0,3.43-2.32,3.43-5.11
			c0-2.44-1.11-5-3.41-5C201.68,160.01,200.54,162.43,200.54,165.13z"/>
		<path fill="#FFFFFF" d="M214,159.08c0.6-0.15,1.56-0.25,2.52-0.25c1.38,0,2.27,0.27,2.94,0.89c0.56,0.47,0.89,1.2,0.89,2.17
			c0,1.19-0.68,2.22-1.81,2.7v0.04c1.02,0.29,2.21,1.26,2.21,3.08c0,1.06-0.36,1.86-0.9,2.46c-0.75,0.78-1.95,1.15-3.7,1.15
			c-0.95,0-1.68-0.07-2.14-0.15V159.08z M215.38,164.11h1.25c1.46,0,2.32-0.88,2.32-2.06c0-1.44-0.95-2-2.35-2
			c-0.63,0-1,0.05-1.22,0.11V164.11z M215.38,170c0.27,0.05,0.67,0.07,1.16,0.07c1.43,0,2.75-0.6,2.75-2.39
			c0-1.68-1.25-2.37-2.76-2.37h-1.14V170z"/>
		<path fill="#FFFFFF" d="M231.51,165.44h-4.16v4.43h4.63v1.33h-6.01v-12.29h5.78v1.33h-4.4v3.88h4.16V165.44z"/>
	</g>
</g>
<g>
	<path fill="#EA088B" d="M109.45,165.14c-0.08,0-0.15,0.06-0.2,0.18l-0.32,0.38l-0.24,0.33l-0.29,0.4
		c-2.06,2.88-3.54,4.32-4.43,4.32c-0.49,0-0.74-0.25-0.74-0.74c0-0.42,0.56-1.46,1.68-3.12c1-1.48,1.5-2.61,1.5-3.4
		c0-0.61-0.17-1.12-0.52-1.54c-0.35-0.42-0.77-0.63-1.26-0.63c-1.24,0-2.94,1.6-5.08,4.78c1.7-2.83,2.58-4.31,2.65-4.42
		c2.35-3.8,4.12-6.66,5.31-8.56c-0.4,0.11-0.84,0.17-1.3,0.17c-0.24,0-0.54-0.04-0.88-0.1l-2.6,4.41c-1.95,3.32-3.11,5.28-3.48,5.89
		c-0.7,1.26-1.23,2.23-1.57,2.88l-2.52,4.55c0.42-0.07,0.75-0.1,1.01-0.1c0.24,0,0.54,0.03,0.88,0.1c1.99-3.6,3.56-6.04,4.7-7.32
		c1.19-1.35,2.13-2.03,2.82-2.03c0.46,0,0.7,0.23,0.7,0.67c0,0.38-0.68,1.57-2.04,3.56c-0.87,1.3-1.3,2.34-1.3,3.14
		c0,0.59,0.18,1.09,0.53,1.48c0.34,0.39,0.79,0.59,1.34,0.59c1.01,0,2.53-1.38,4.55-4.14c0.08-0.11,0.17-0.22,0.25-0.33l0.74-1.02
		c0.11-0.11,0.18-0.21,0.18-0.31C109.52,165.17,109.5,165.14,109.45,165.14z"/>
	<path fill="#EA088B" d="M118.12,165.16c-0.09,0-0.21,0.1-0.34,0.27c-2.61,3.53-4.83,5.29-6.63,5.29c-1.07,0-1.6-0.49-1.6-1.47
		c0-0.79,0.39-1.77,1.17-2.95c2.51-0.5,4.3-1.04,5.38-1.61c1.07-0.58,1.61-1.28,1.61-2.11c0-0.35-0.15-0.65-0.44-0.89
		c-0.29-0.25-0.64-0.37-1.05-0.37c-0.95,0-2.18,0.41-3.68,1.23c-1.92,1.05-3.19,2.21-3.82,3.48c-0.14,0.27-0.25,0.55-0.33,0.84
		c-0.09,0.36-0.14,0.73-0.14,1.11c0,0.87,0.27,1.6,0.82,2.17c0.54,0.58,1.22,0.87,2.02,0.87c1.69,0,3.72-1.46,6.09-4.38l0.74-0.92
		c0.2-0.26,0.31-0.41,0.31-0.45C118.19,165.2,118.16,165.18,118.12,165.16z M113.75,162.8c0.99-0.84,1.78-1.26,2.39-1.26
		c0.4,0,0.61,0.18,0.61,0.55c0,0.68-0.57,1.41-1.71,2.18c-1.15,0.77-2.54,1.37-4.18,1.79C111.8,164.72,112.76,163.63,113.75,162.8z"
		/>
</g>
<g>
	<text transform="matrix(1 0 0 1 110.8486 189.7803)" fill="#FFFFFF" font-family="'MyriadPro-Regular'" font-size="18.2379px">by Anita</text>
</g>
<path fill="#EA088B" d="M122.03,66.73c2.33-1.87,5.1-2.5,7.75-0.99c4.47,2.54,7.35,6.32,7.5,11.71c0.03,0.89,0.41,1.38,1.24,1.5
	c0.87,0.12,1.5-0.42,1.6-1.16c0.14-1.05,0.21-2.19-0.06-3.2c-1.04-3.87-3.09-7.18-6.19-9.75c-3.82-3.17-8.68-3.93-12.97-0.87
	c-4.18,2.97-6.91,7-8.18,11.98c-0.89,3.51-0.42,6.93,1.29,10.07c1.46,2.66,3.12,5.2,4.79,7.74c2.44,3.71,4.87,7.39,5.25,11.99
	c0.24,2.96-0.11,5.61-3.12,7.2c-3.95,2.08-7.78,4.38-11.77,6.36c-4.61,2.3-9.32,4.38-14.01,6.54c-3.33,1.54-6.69,3.03-10.04,4.55
	c-1.91,0.87-3.82,1.73-5.73,2.59c-0.31,0.15-0.62,0.29-0.93,0.43c-1.68,0.77-3.37,1.54-5.04,2.34c-4.54,2.16-9.07,4.33-13.54,6.63
	c-4.86,2.5-9.72,5-14.43,7.76c-4.12,2.43-8.13,5.09-12,7.9c-2.76,2.02-5.33,4.34-7.75,6.75c-2.63,2.64-4.61,5.69-5.22,9.57
	c-0.44,2.8,0.87,4.39,2.92,5.37c3.1,1.49,6.47,1.96,9.81,2.26c5.14,0.48,10.32,0.72,15.48,0.85c0.64,0.02,1.28,0.03,1.92,0.03
	c0.48,0.54,1.08,1.05,1.77,1.52c2.34,1.56,5.36,2.34,9.04,2.34c6.9,0,13.57-2.38,19.99-7.14c2.43-1.84,4.34-3.74,5.73-5.69
	c1.39-1.96,3.59-5.88,6.58-11.75c3-5.89,5.8-10.43,8.4-13.64c2.61-3.21,5.48-5.63,8.63-7.27c5.96,1.11,10.95,1.65,14.97,1.65
	c3.98,0,7.36-0.47,10.12-1.44c2.76-0.96,4.14-2.12,4.14-3.51c0-2.19-2.8-3.3-8.39-3.3c-5.45,0-11.13,1.29-17.04,3.88
	c-7.09-1.46-11.54-2.32-13.35-2.61c-1.71-0.25-3.61-0.38-5.68-0.38c-4.02,0-7.57,0.45-10.67,1.34c-0.62-0.83-1.32-1.55-2.1-2.15
	c1.28-0.59,2.56-1.17,3.83-1.75c2.6-1.18,5.18-2.41,7.79-3.6c3-1.35,6.04-2.63,9.02-4.02c2.52-1.17,4.96-2.47,7.48-3.65
	c4.05-1.9,8.07-3.88,11.79-6.39c1.71-1.15,3.49-2.35,3.98-4.54c0.71-3.24,0.52-6.48-0.51-9.62c-1.03-3.12-2.79-5.88-4.61-8.61
	c-1.81-2.72-3.61-5.47-5.16-8.34c-1.47-2.72-1.68-5.73-0.61-8.66C117.03,72.07,119.11,69.05,122.03,66.73z M131.71,135.38
	c2.2,0,4.03,0.25,5.47,0.77c1.45,0.51,2.17,1.13,2.17,1.88c0,0.79-0.74,1.47-2.22,2.05c-1.48,0.57-3.26,0.86-5.33,0.86
	c-3.18,0-6.81-0.39-10.89-1.18c-2.76-0.52-4.46-0.82-5.11-0.92C120.93,136.53,126.23,135.38,131.71,135.38z M84.33,138.03
	c0.95,1.74,1.42,3.63,1.42,5.68c0,5.58-2.07,11.03-6.21,16.36c-4.15,5.33-8.38,8-12.7,8c-1.66,0-3.06-0.62-4.2-1.88
	c-1.13-1.25-1.7-2.8-1.7-4.64c0-4.81,2.46-9.69,7.4-14.66C73.27,141.93,78.6,138.98,84.33,138.03z M83.79,137.11
	c-4.19,1.05-8.04,2.89-11.56,5.54c-3.52,2.65-6.39,5.74-8.6,9.28c-2.21,3.54-3.32,6.77-3.32,9.68c0,2.12,0.63,3.86,1.89,5.2
	c1.27,1.34,2.91,2.01,4.93,2.01c4.86,0,9.43-2.47,13.69-7.39c4.27-4.94,6.41-10.22,6.41-15.85c0-2.89-0.61-5.46-1.81-7.71
	c1.79-0.1,2.87-0.15,3.23-0.15c3.45,0,8.42,0.7,14.92,2.11c2.76,0.61,4.83,1.04,6.21,1.27c-7.18,3.4-14.08,10.5-20.68,21.29
	c-4.04,6.65-7.34,11.42-9.89,14.31c-5.45,6.19-11.6,9.28-18.46,9.28c-3.11,0-5.75-0.71-7.88-2.15c-0.44-0.29-0.83-0.6-1.18-0.91
	c4.53,0.05,9.05-0.02,13.59-0.02v-0.25c2.05,0,4.1,0.02,6.15-0.01c1.15-0.01,1.56-0.49,1.5-1.62c-0.05-0.93-0.46-1.27-1.63-1.26
	c-5.45,0.06-10.9,0.18-16.35,0.2c-1.71,0.01-3.42-0.05-5.13-0.1c-0.28-0.01-0.56-0.02-0.84-0.02c-0.99-0.04-1.98-0.04-2.97-0.04
	c-5.28,0.04-10.54-0.21-15.73-1.11c-2.06-0.36-4.06-1.17-6.04-1.91c-0.44-0.17-0.85-0.9-0.92-1.43c-0.1-0.69,0.04-1.48,0.29-2.15
	c1.11-3.01,3.04-5.55,5.35-7.64c3.06-2.79,6.34-5.39,9.78-7.69c4.49-3.02,9.16-5.8,13.89-8.44c4.46-2.5,9.07-4.72,13.64-7
	c3.36-1.67,6.75-3.26,10.16-4.84c1.8-0.84,3.61-1.67,5.42-2.48C82.58,135.67,83.22,136.34,83.79,137.11z"/>
</svg>
