<?xml version="1.0" encoding="utf-8"?>
<!-- Generator: Adobe Illustrator 24.1.2, SVG Export Plug-In . SVG Version: 6.00 Build 0)  -->
<svg version="1.1" baseProfile="basic" xmlns="http://www.w3.org/2000/svg" xmlns:xlink="http://www.w3.org/1999/xlink" x="0px"
	 y="0px" viewBox="0 0 1117.49 862.62" xml:space="preserve">
<g id="Background_Simple">
</g>
<g id="Shadow">
</g>
<g id="Character">
</g>
<g id="Shield">
	<text transform="matrix(1 0 0 1 375.313 1075.2627)" fill="#FFFFFF" font-size="60.8805px">ctopus</text>
	<path fill="#FFFFFF" d="M589.19,1034.86c-3.67,0-6.65,2.76-6.65,6.16c0,3.4,2.98,6.16,6.65,6.16c3.67,0,6.65-2.76,6.65-6.16
		C595.84,1037.62,592.87,1034.86,589.19,1034.86z M589.19,1046.28c-3.14,0-5.68-2.36-5.68-5.26c0-2.91,2.54-5.26,5.68-5.26
		c3.13,0,5.67,2.36,5.67,5.26C594.87,1043.93,592.33,1046.28,589.19,1046.28z"/>
	<text transform="matrix(1 0 0 1 586.6646 1043.7598)" fill="#FFFFFF" font-size="8.5858px">R</text>
	<path fill="#FFFFFF" d="M374.15,1047.11c0,5.03-0.79,9.81-2.37,14.35c-1.57,4.53-4.24,8.79-8,12.76s-8.54,6.94-14.34,8.91
		c-5.81,1.98-11.95,2.96-18.43,2.96c-5.97,0-11.71-0.87-17.2-2.6c-5.5-1.74-10.1-4.28-13.79-7.62c-3.68-3.33-6.46-7.33-8.31-11.98
		c-1.86-4.65-2.79-9.54-2.79-14.66s0.91-10.01,2.72-14.66c1.8-4.66,4.67-8.84,8.6-12.55c3.92-3.71,8.77-6.57,14.55-8.57
		c5.78-1.99,11.8-2.99,18.05-2.99c5.82,0,11.43,0.89,16.81,2.68c5.38,1.78,9.93,4.36,13.64,7.71c3.71,3.37,6.45,7.29,8.21,11.78
		S374.15,1041.94,374.15,1047.11z"/>
	<g>
		<path fill="#58BA68" d="M365.84,1082.45c-0.97,1.24-2.12,2.33-0.77,3.82c1.02,1.12,2.81,1.5,4.08,0.85
			c1.9-0.96,2.29-3.58,0.78-5.31c-1.45-1.66-3.39-1.91-5.36-1.5c-1.72,0.36-3.45,0.89-5.03,1.66c-3.55,1.72-7.02,3.62-10.51,5.46
			c-0.44,0.23-0.83,0.55-1.38,0.92c1.69,1.25,3.37,2.27,4.77,3.59c1.91,1.79,3.9,3.61,5.32,5.77c2.63,4.02,2.65,8.35,0.09,12.47
			c-1.96,3.14-5.77,4.13-9.24,2.66c-3.02-1.28-4.7-4.82-3.94-8.3c0.71-3.24,2.76-3.97,5.34-1.9c0.34,0.27,0.65,0.58,1.16,1.04
			c-1.68-0.01-3.27-0.32-3.72,1.6c-0.33,1.37,0.7,3.09,2.24,3.91c1.5,0.79,3.13,0.36,4.01-1.13c1.01-1.71,0.85-3.46-0.27-5.01
			c-0.76-1.05-1.73-1.99-2.76-2.79c-3.92-3.04-8.31-5.2-13.13-6.92c0,1.99,0.23,3.83-0.05,5.6c-0.6,3.87-4.52,7.19-8.41,7.38
			c-3.46,0.17-6.22-2.74-6.6-6.98c-0.03-0.34-0.04-0.69-0.02-1.03c0.07-1.53,0.26-3.13,1.9-3.73c1.73-0.63,3,0.47,4.26,1.66
			c-2.43,0.33-3.29,1.13-3.17,2.85c0.12,1.67,1.75,3.27,3.26,3.19c1.85-0.1,3.58-1.64,3.41-3.39c-0.12-1.25-0.54-2.62-1.26-3.63
			c-1.95-2.73-4.85-4.32-7.84-5.67c-0.38-0.17-1.16,0.03-1.5,0.34c-4.72,4.32-9.55,8.55-14.02,13.13c-1.63,1.68-2.84,4.1-3.42,6.39
			c-1.12,4.43,2.58,7.71,6.78,6.38c1.64-0.52,2.62-1.58,2.74-3.34c0.12-1.82-0.5-3.3-2.14-4.16c-1.52-0.8-2.88-0.33-4.07,0.79
			c-0.12,0.11-0.27,0.2-0.41,0.31c-0.14-3.87,3.24-6.17,6.92-4.73c3.38,1.31,5.53,5.49,4.81,9.34c-1.14,6.05-6.57,9.46-12.62,7.92
			c-8.04-2.05-12.29-9.56-9.96-17.7c1.81-6.32,5.65-11.45,9.73-16.42c1.51-1.84,3.12-3.61,4.7-5.44c-0.19-0.16-0.27-0.3-0.35-0.3
			c-6.79,0.35-13.23-1.87-19.85-2.7c-2.78-0.35-5.74-0.24-8.48,0.32c-3.06,0.63-4.17,3.2-2.73,5.58c0.53,0.88,1.8,1.61,2.84,1.78
			c0.8,0.14,2.02-0.48,2.6-1.15c1.13-1.3,0.56-2.65-1.58-4.29c1.68-0.62,3.26-0.94,4.69,0.29c1.04,0.89,1.14,3.24,0.19,4.84
			c-1.63,2.75-4.26,3.75-7.29,3.64c-3.05-0.12-5.17-1.88-6.09-4.72c-1.47-4.54,0.56-9.36,5.03-11.98c2.97-1.74,6.26-2.11,9.59-2.27
			c1.82-0.08,3.65-0.02,5.62-0.02c-0.1-0.56-0.08-0.91-0.21-1.18c-2.13-4.3-4.17-8.66-6.5-12.85c-0.85-1.54-2.29-2.85-3.7-3.95
			c-1.34-1.05-3.02-1.07-4.49,0.02c-1.27,0.94-2.12,2.15-1.65,3.83c0.33,1.21,2.27,2.37,3.75,2.3c1.12-0.05,1.82-0.66,1.96-1.79
			c0.08-0.61,0.01-1.23,0.01-1.91c1.9,1.09,2.75,2.64,2.37,4.17c-0.4,1.61-1.7,2.47-3.83,2.54c-4.66,0.14-8.1-2.45-8.42-6.34
			c-0.34-4.09,3.13-8.11,7.7-8.94c3.91-0.71,7.05,0.91,9.89,3.33c3.92,3.35,6.79,7.57,9.6,11.83c1.32,2,2.6,4.05,4.09,5.92
			c0.49,0.62,1.58,0.77,2.4,1.14c0.1-0.89,0.5-1.87,0.26-2.66c-2.11-6.86-2.85-13.78-1.14-20.82c3.35-13.8,17.12-21.16,30.99-16.44
			c8.61,2.93,14.88,8.38,16.7,17.69c1.5,7.66-0.77,14.6-5.48,20.59c-2.48,3.15-5.73,5.7-8.63,8.53c-0.85,0.83-2.68,1.39-1.92,2.75
			c0.36,0.65,2.44,0.83,3.53,0.51c4-1.18,7.93-2.59,11.84-4.05c4.79-1.79,9.62-2.57,14.6-0.98c5.15,1.65,7.94,6.31,6.51,10.83
			c-0.9,2.87-2.82,4.69-5.83,5.17c-2.62,0.42-4.9-0.3-6.59-2.42c-1.01-1.27-1.54-2.76-0.7-4.31
			C362.64,1082.43,364.08,1082.23,365.84,1082.45z M340.35,1061.9c-3.32,1.06-6.49,2.07-9.72,3.1c0.61,2.17,1.82,3.85,4.17,4.25
			c2.17,0.37,3.95-0.5,5.19-2.3C341.13,1065.32,341.17,1063.58,340.35,1061.9z M322.99,1062.53c-2.06-2.82-4-5.46-6-8.2
			c-1.77,1.02-2.78,2.56-2.69,4.71c0.1,2.21,1.22,3.83,3.24,4.66C319.61,1064.56,321.43,1063.84,322.99,1062.53z"/>
	</g>
	<g>
		<g>
			<defs>
				<rect id="SVGID_1_" x="21.5" y="246.05" width="1060.74" height="464.46"/>
			</defs>
			<clipPath id="SVGID_2_">
				<use xlink:href="#SVGID_1_"  overflow="visible"/>
			</clipPath>
			<g clip-path="url(#SVGID_2_)">
				<defs>
					<rect id="SVGID_3_" x="21.5" y="246.05" width="1060.74" height="464.46"/>
				</defs>
				<clipPath id="SVGID_4_">
					<use xlink:href="#SVGID_3_"  overflow="visible"/>
				</clipPath>
				<path clip-path="url(#SVGID_4_)" fill="#FFFFFF" d="M191.13,554.52c13.1-13.03,26.22-26.09,39.34-39.15
					c6.7-6.66,13.43-13.29,20.07-20c9.13-9.22,9.37-23.4,0.33-32.63c-12.7-12.94-25.6-25.68-38.41-38.51
					c-0.61-0.61-1.18-1.26-1.82-1.93c5.44-5.41,10.78-10.72,16.56-16.47c3.21,3.31,6.38,6.66,9.64,9.93
					c10.5,10.51,21,21.02,31.55,31.48c17.78,17.62,18.25,44.57,0.8,62.33c-15.27,15.53-30.75,30.86-46.24,46.18
					C213.51,565.08,199.44,564.56,191.13,554.52"/>
				<path clip-path="url(#SVGID_4_)" fill="#FFFFFF" d="M184.86,403.12c-11.12,11.07-22.27,22.17-33.42,33.28
					c-8.3,8.27-16.6,16.53-24.86,24.84c-10.67,10.73-10.71,24.34-0.06,35.09c12.85,12.97,25.76,25.88,38.63,38.79
					c-5.48,5.23-10.97,10.47-17.17,16.39c-6.13-6.36-12.8-13.37-19.56-20.27c-6.96-7.11-14.01-14.11-21.04-21.15
					c-17.59-17.61-17.68-44.75-0.14-62.35c15.11-15.17,30.26-30.29,45.41-45.42C162.09,392.9,176.95,393.15,184.86,403.12"/>
				<path clip-path="url(#SVGID_4_)" fill="#FFFFFF" d="M147.36,478.14c13.09,13.02,25.4,25.27,37.67,37.47
					c-5.67,5.62-10.99,10.91-16.68,16.55c-4.8-4.76-9.77-9.68-14.72-14.62c-7.23-7.2-14.42-14.44-21.66-21.63
					c-10.81-10.72-10.8-23.32,0.03-34.12c19.86-19.83,39.68-39.7,59.58-59.5c9.45-9.41,23.31-9.22,31.59,0.05
					C197.98,427.53,172.81,452.69,147.36,478.14"/>
				<path clip-path="url(#SVGID_4_)" fill="#FFFFFF" d="M228.87,478.68c-12.88-12.73-25.21-24.92-37.15-36.72
					c5.37-5.51,10.61-10.88,16.15-16.56c8.01,8.07,16.06,16.19,24.12,24.29c4.35,4.38,8.73,8.72,13.09,13.09
					c9.54,9.6,9.58,22.48-0.09,32.21c-17.06,17.16-34.21,34.21-51.33,51.3c-3.57,3.56-7.02,7.25-10.78,10.6
					c-8.98,8.04-22.43,7.08-30.24-1.94C177.8,529.77,202.97,504.58,228.87,478.68"/>
				<path clip-path="url(#SVGID_4_)" fill="#FFFFFF" d="M207.23,488.68c-0.21-0.27-0.16-0.62-0.23-0.94
					c-0.04-0.18-0.1-0.38-0.21-0.51c-0.01,0.03-0.03,0.03-0.04,0.04c0.01-0.09-0.08-0.08-0.05-0.18c0.01,0.01-0.01,0.03,0.01,0.03
					c-0.03-0.06-0.02-0.04-0.06-0.08c0.01,0,0.02,0,0.03,0c-0.03-0.02-0.02-0.01-0.05-0.02c-0.01-0.03-0.03-0.06-0.04-0.09
					c-0.03,0.05-0.02,0.03-0.06,0.04c-0.01-0.03,0-0.01-0.03-0.04c0-0.02,0.02-0.03,0.02-0.05c0.03,0.03,0.03,0,0.06,0.03
					c-0.01-0.08-0.05-0.2-0.11-0.09c0.02,0.01,0.01,0.01,0.02,0.03c0,0,0,0,0,0c-0.05-0.02-0.02,0-0.07,0
					c0.03,0,0.03,0.01,0.06,0.03c-0.03,0.06-0.07,0.06-0.11,0.1c-0.03,0.03,0,0.08-0.04,0.1c-0.03,0.01-0.06-0.07-0.12-0.03
					c0.08,0.05,0.13,0.16,0.11,0.3c-0.02,0.1-0.11,0.42-0.25,0.24c0.01,0.03,0.02,0.06,0.03,0.1c-0.05,0-0.03,0.01-0.08,0.04
					c-0.02-0.02-0.01-0.03-0.03-0.03c0.02,0.08,0.01,0.18-0.09,0.12c-0.03-0.02-0.03-0.11-0.08-0.13c0,0.01,0,0.02-0.01,0.04
					c0-0.03-0.01-0.01-0.01-0.04c-0.04,0.03-0.06,0.07-0.04,0.12c-0.05,0.05-0.02,0.12,0.05,0.14c-0.01,0-0.03,0.02-0.04,0.03
					c0.09,0.04,0.05,0.14,0.02,0.19c0.03-0.07,0.03-0.13-0.04-0.13c0.07,0.11-0.05,0.06-0.09,0.13c-0.04,0.05-0.02,0.12,0,0.17
					c0.01-0.01,0.02-0.02,0.03-0.03c0.05,0.01,0.15,0.03,0.11,0.13c-0.01-0.08-0.02-0.05-0.05-0.07c0.01,0.02,0.01,0.02,0,0.04
					c-0.02-0.04-0.04-0.05-0.07-0.09c-0.05,0.07-0.11,0.26-0.17,0.29c-0.11,0.06,0.04-0.15-0.03-0.23c-0.04,0.03-0.08,0.07-0.1,0.11
					c0.03,0,0.02,0.01,0.05,0c-0.06,0.06-0.22,0.19-0.15,0.27c0.03,0.01,0.04,0.03,0.07,0.07c-0.05,0.03-0.13,0.03-0.16,0.08
					c0.03-0.1,0.09-0.1,0.02-0.16s-0.09,0.03-0.21,0.07c0.01,0,0.02,0,0.03,0.02c-0.05,0.02-0.07,0.03-0.11,0.05
					c-0.09,0.02-0.09,0.13-0.11,0.18c0.05,0.02,0.08,0.03,0.1,0.08c-0.02-0.02-0.03-0.03-0.05-0.03c-0.02,0.05,0.01,0.02-0.03,0.02
					c-0.01,0,0,0.02,0,0.03c-0.04-0.03-0.09-0.3-0.18-0.1c0.01,0,0.03-0.02,0.04-0.02c0,0.02-0.02,0.03,0,0.05
					c-0.15-0.09-0.22-0.05-0.26,0.11c0-0.01,0-0.02-0.01,0c0-0.04,0-0.03,0-0.06c-0.1,0-0.17,0.19-0.18-0.01
					c-0.13,0.05-0.15,0.15-0.27,0.16c-0.29,0.03-0.15,0-0.2,0.22c0-0.01,0-0.02-0.01-0.02c0.04,0.15-0.19,0.36-0.24,0.48
					c-0.05,0.14,0,0.24,0,0.39c0,0.2,0.11,0.35,0.14,0.53c0.01,0.1,0,0.18,0.09,0.27c0.09,0.08,0,0.13,0.01,0.21
					c0,0.05,0.05,0.14,0.03,0.19c-0.04,0.1-0.12,0.22-0.18,0.3l0-0.02c-0.02,0.05-0.04,0.1-0.06,0.15
					c-0.03,0.06-0.08,0.21-0.12,0.27c-0.06,0.08-0.12,0.05-0.18,0.08c-0.03,0.07-0.02,0.14-0.02,0.22
					c-0.07,0.01-0.09,0.09-0.09,0.16c0-0.02,0-0.03,0-0.04c-0.03,0.08-0.04,0.16,0,0.23c-0.08,0,0.03,0.35,0.08,0.43
					c0.07,0.13,0.19,0.28,0.17,0.41c0,0.01-0.05,0.09-0.05,0.13s0.01,0.1,0.02,0.13c0.01,0.18,0.03,0.2,0.1,0.33
					c0.04,0.08,0.04,0.21,0.1,0.28c0.05,0.06,0.17,0.09,0.21,0.14c-0.02-0.01-0.04-0.03-0.06-0.04c0.03,0.1,0.13,0.08,0.22,0.09
					c0.08,0.01,0.11,0.06,0.17,0.11c0.16,0.11,0.28,0.07,0.45-0.04c0.2-0.13,0.38-0.11,0.57-0.16c0.08-0.02,0.18-0.09,0.19-0.17
					c0,0.02,0.01,0.02,0.01,0.03c0.01-0.15,0.12-0.36,0.16-0.48c0.03-0.09,0.17-0.28,0.09-0.35c0-0.01,0-0.02,0.01-0.02
					c0,0,0.01,0.01,0.01,0.02c0.08-0.23,0.1-0.46,0.16-0.69c0.06-0.22,0.17-0.46,0.26-0.68c0.03-0.09,0.05-0.21,0.07-0.27
					c0.03-0.1,0.21-0.5,0.16-0.58c0.01,0,0.01,0,0.03,0.02c0.1-0.36,0.3-0.75,0.37-1.1c0.05-0.26-0.11-0.69,0.23-0.79
					c-0.13-0.03-0.01-0.13,0.01-0.21c0.03-0.12-0.07-0.17-0.1-0.26c-0.01-0.03,0.02-0.09,0.01-0.13c0-0.04-0.03-0.08-0.03-0.11
					c0-0.08,0.06-0.18,0.14-0.12c0.07,0.05,0.03,0.33,0.17,0.31C207.16,489.11,207.25,488.79,207.23,488.68"/>
				<path clip-path="url(#SVGID_4_)" fill="#FFFFFF" d="M207.75,473.98c-0.05,0-0.09,0-0.13-0.05c0.01,0.03,0.02,0.05,0.03,0.07
					c-0.03,0.01-0.09,0.01-0.12,0c0.15-0.1-0.02-0.27,0.1-0.41c-0.17-0.05,0.04-0.31,0.06-0.4c-0.11-0.03-0.26-0.11-0.36-0.07
					c-0.07,0.03-0.11,0.13-0.18,0.18c-0.07,0.06-0.17,0.08-0.26,0.09c-0.05,0.01-0.1,0.02-0.15,0.02c-0.05,0-0.08,0.06-0.14,0.07
					c-0.23,0.02-0.46,0.01-0.66,0.08c-0.08,0.03-0.16,0.05-0.26,0.04c-0.08-0.01-0.17-0.05-0.26-0.01c-0.11,0.06-0.21,0.15-0.33,0.2
					c-0.2,0.09-0.28-0.01-0.49-0.03c-0.05,0-0.27,0.05-0.34,0.12c-0.11,0.1-0.4,0.21-0.55,0.12c-0.15-0.08-0.52-0.36-0.48-0.55
					c-0.05,0.01-0.09-0.02-0.12-0.07c0,0.01,0,0.02,0,0.03c-0.04-0.04-0.05-0.04-0.08-0.09c-0.07,0.03-0.25-0.02-0.27,0.07
					c-0.05,0.02-0.08,0-0.1-0.05c0.1,0.03,0.09-0.06,0.16-0.1c0.05-0.03,0.12-0.03,0.17-0.06c0.21-0.1,0.15-0.18,0.13-0.37
					c-0.1-0.03-0.11-0.17-0.19-0.24c-0.01,0.04-0.03,0.04-0.05,0.06c-0.06-0.02-0.17-0.17-0.23-0.26c-0.13,0.08-0.09-0.22-0.21-0.25
					c0.03,0.03,0.02,0.02,0.03,0.06c-0.04-0.04-0.07-0.08-0.12-0.12c-0.06-0.05-0.18-0.09-0.21-0.15c-0.09-0.16-0.31-0.46-0.5-0.39
					c-0.02-0.05-0.03-0.07-0.05-0.11c0-0.01,0.02,0,0.01,0c-0.02,0-0.01,0-0.02,0c-0.03-0.04-0.05-0.05-0.08-0.08
					c-0.02,0.03-0.05,0.03-0.07,0.01c-0.07,0.12-0.15-0.03-0.18-0.1c-0.03-0.1-0.02-0.08-0.12-0.2c-0.04,0.02-0.07,0.08-0.05,0.15
					c0.05,0.01,0.03,0.15-0.05,0.08c0.02,0.02-0.04-0.19-0.04-0.2c-0.03-0.08-0.07-0.01-0.11-0.08c0.02,0,0.02,0,0.03-0.02
					c-0.02,0,0,0-0.02,0.01c0.02-0.1-0.08-0.16-0.12-0.29c-0.03-0.1-0.03-0.23-0.04-0.31c-0.05-0.28-0.18-0.66-0.36-0.89
					c0,0.02,0.01,0.02,0,0.03c-0.03-0.03-0.04-0.04-0.08-0.09c-0.02,0-0.05,0-0.1,0c0.02-0.01,0.04-0.04,0.05-0.05
					c-0.05,0.07-0.16,0.02-0.1-0.06c-0.07-0.05-0.12-0.13-0.21-0.13c-0.01-0.1-0.08-0.02-0.12-0.05c-0.05-0.04-0.07-0.1-0.09-0.17
					c-0.05-0.15-0.08-0.3-0.08-0.46c0-0.07-0.02-0.17-0.03-0.23c-0.01-0.07,0-0.17,0-0.21c-0.01-0.17-0.09-0.31-0.06-0.45
					c0.03,0.03,0.04,0.06,0.09,0.1c-0.02,0-0.04-0.02-0.05-0.03c0.12,0.15-0.01-0.07-0.05-0.13c-0.1-0.15-0.08-0.26-0.14-0.4
					c0.09-0.07-0.22-0.26-0.25-0.29c-0.08-0.09-0.13-0.1-0.24-0.16c-0.07-0.04-0.11-0.08-0.15-0.15c0,0.01,0.02,0.03,0.02,0.04
					c-0.13-0.1-0.13-0.36-0.15-0.5c-0.01-0.18,0-0.18,0.16-0.13c-0.03-0.07-0.11-0.09-0.17-0.15c0,0,0.01,0.01,0.01,0.02
					c-0.19-0.15-0.22-0.38-0.33-0.58c-0.16-0.27-0.31-0.56-0.44-0.84c-0.03-0.05-0.07-0.12-0.09-0.17
					c-0.01-0.03-0.01-0.09-0.02-0.13c0-0.01-0.04-0.11-0.06-0.17c-0.03-0.07-0.05-0.08-0.09-0.15c-0.05-0.07-0.07-0.13-0.11-0.19
					c0.02,0,0.02-0.01,0.03-0.01c0,0,0-0.01,0-0.01c0.01,0,0.02,0.02,0.03,0.02c-0.02-0.04-0.01-0.03-0.02-0.07
					c-0.02-0.02-0.03-0.02-0.04-0.05c0.02,0.01,0.05,0.03,0.06,0.03c-0.02-0.12-0.14-0.17-0.21-0.25c-0.07-0.08-0.15-0.17-0.21-0.26
					c-0.05-0.08-0.06-0.17-0.13-0.24c-0.03-0.03,0-0.15-0.01-0.19c-0.05-0.19-0.26-0.21-0.07-0.41c-0.01-0.05-0.03-0.06,0.03-0.05
					c0-0.03-0.01-0.02,0-0.05c0.01,0.09,0.07,0.24,0.09,0.36c0,0-0.01-0.01,0-0.02c0.05,0.06,0.13,0.18,0.19,0.26
					c0.08,0.1,0.03,0.26,0.11,0.35c-0.02-0.02,0-0.01,0-0.02c0,0.07,0.19,0.21,0.23,0.27c0.1,0.12,0.2,0.17,0.33,0.28
					c0,0-0.01-0.02,0-0.01c-0.02-0.02-0.01-0.02-0.03-0.03c0.11-0.08,0.1-0.15,0.12-0.3c0.01-0.13,0.08-0.25,0.11-0.38
					c0.03-0.12,0.09-0.27,0.12-0.38c0.05-0.21-0.12-0.54-0.19-0.75c-0.05-0.16-0.1-0.33-0.17-0.49c-0.1,0.08-0.24,0.11-0.36,0.13
					c-0.09,0.01-0.08-0.03-0.17,0.01c0,0,0.03,0,0.03,0c-0.01,0-0.01,0-0.01,0.01c-0.04-0.01-0.01-0.01-0.06,0.01c0,0,0,0,0,0
					c0,0,0.02,0,0.01,0.01c-0.02,0-0.03,0-0.05,0.01c0-0.02,0-0.02-0.01-0.04c0-0.01,0,0,0,0c0-0.01,0.01,0,0.02-0.01
					c-0.01-0.03-0.02-0.05-0.02-0.05c-0.04,0.02-0.07,0.04-0.1,0.06c0.04-0.01,0.03,0,0.06-0.02c-0.02,0.05-0.03,0.03-0.06,0.05
					c0-0.02-0.01-0.01-0.03-0.03c0,0,0.01,0,0.01,0.01c0,0-0.01,0-0.02,0.01c-0.01,0-0.08,0.02-0.12,0.03
					c-0.01-0.01,0.01,0-0.02-0.01c0.05-0.01,0.11-0.03,0.15-0.07c-0.23,0.14-0.22-0.07-0.41-0.09c0.05,0.03,0.05,0.04,0.03,0.08
					c-0.03,0.05-0.05,0.04-0.09,0.05c0,0.02,0.02,0.01,0.02,0.02c-0.02-0.01-0.03,0-0.05-0.02c0-0.02,0.01-0.01,0-0.04
					c0,0-0.01,0.02-0.02,0.01c0.03-0.06,0-0.08-0.05-0.04c0-0.02,0-0.02-0.02-0.01c0-0.02,0-0.01,0-0.03
					c-0.03,0-0.03-0.01-0.06-0.03c0,0.01,0,0.01-0.01,0.01c0.02-0.05,0-0.04,0.05-0.05c0,0-0.01-0.03-0.02-0.03
					c0-0.01,0.02,0,0.03,0c-0.02-0.01-0.02-0.01-0.03-0.02c0,0,0-0.01,0.01-0.01c0,0,0.02,0.02,0.03,0.02
					c0-0.01-0.02-0.04-0.02-0.04c0,0,0-0.01,0-0.02c0.06-0.01,0.07,0.08,0.13,0.12c0,0,0,0-0.01-0.01c0.03,0.02,0.05,0.03,0.07,0.04
					c-0.05-0.03-0.15-0.17-0.19-0.16c-0.12,0.04-0.13,0.06-0.25,0.03c-0.09-0.03-0.15-0.1-0.25-0.06c0.06,0.02,0.07,0.03,0.08,0.06
					c-0.04-0.01-0.17,0.04-0.22,0.07c-0.03,0-0.07,0-0.11,0c0.06-0.05,0.17-0.1,0.24-0.13c-0.1,0.04-0.24,0.13-0.35,0.05
					c0.01,0.02,0,0.02,0.02,0.04c-0.01-0.01-0.03-0.02-0.03-0.03c0.02,0.07-0.03,0.13-0.09,0.15c0.01,0,0.04,0,0.04,0s0,0-0.01,0
					c0.04,0,0.01,0.01,0.03,0.02c-0.01,0,0-0.02-0.01-0.02c-0.03,0.03-0.08,0.05-0.06,0c-0.03-0.03-0.03-0.01-0.06-0.04
					c0,0-0.03,0.01-0.01,0.01c-0.03,0.03-0.08,0.06-0.1,0.08c-0.03,0.05-0.27,0.23-0.38,0.24c-0.16,0.02-0.27-0.13-0.43-0.16
					c-0.09-0.02-0.24-0.03-0.31-0.05c-0.02,0,0-0.05-0.02-0.06c-0.04-0.01-0.08,0.06-0.13,0.03c-0.04-0.02-0.11-0.06-0.15-0.08
					c-0.17-0.1-0.45-0.1-0.68-0.17c-0.19-0.05-0.35,0.04-0.53,0.03c-0.08,0-0.09-0.26-0.14-0.29c-0.13-0.08-0.57,0.03-0.57-0.09
					c-0.13-0.07-0.27-0.04-0.4-0.09c0,0.01,0.01,0.03,0.01,0.04c-0.04-0.07-0.15-0.09-0.12-0.18c0.01,0.01,0,0.02,0.02,0.03
					c-0.02-0.18-0.02-0.12-0.16-0.21c-0.06-0.04-0.34-0.16-0.39-0.16c-0.05,0-0.15,0.02-0.21,0.02c-0.03,0-0.05-0.02-0.08-0.01
					c-0.05,0-0.08,0.08-0.13,0.1c-0.1,0.04-0.19-0.01-0.3,0.06c-0.1,0.07-0.22,0.1-0.31,0.19c-0.13,0.12-0.26,0.27-0.24,0.46
					c0.01,0.17,0.15,0.3,0.13,0.46c-0.05,0.36-0.61,0.7-0.88,0.38c-0.23-0.26-0.64-0.4-0.98-0.48c-0.29-0.06-0.57,0.01-0.77-0.27
					c-0.1-0.13-0.12-0.32-0.15-0.47c-0.03-0.14-0.36-0.09-0.47-0.15c-0.16-0.09-0.25-0.19-0.46-0.18c-0.09,0-0.15-0.09-0.25-0.08
					c-0.08,0-0.16,0.07-0.25,0.08c-0.28,0.02-0.38-0.14-0.62-0.23c0.02,0.01,0.04,0.03,0.06,0.04c-0.1,0-0.17-0.08-0.25-0.12
					c0.01,0.01,0.03,0.03,0.05,0.04c-0.08,0-0.17,0-0.17-0.08c0.03,0.01,0.07,0.01,0.09,0.02c-0.17-0.05-0.04-0.17-0.16-0.23
					c-0.08-0.04-0.07,0.16-0.17,0.1c-0.08-0.05,0.05-0.08,0.01-0.13c-0.04-0.04-0.1,0.02-0.17,0.01c-0.12-0.02-0.25-0.2-0.24-0.33
					c0-0.08,0.08-0.13,0.15-0.18c0.07-0.05,0.14-0.1,0.2-0.15c0.05-0.05,0.17-0.11,0.17-0.18c0-0.06,0.09-0.2,0.14-0.24
					c-0.08-0.04-0.08-0.13-0.04-0.19c-0.05-0.04-0.04-0.03-0.02-0.08c-0.11-0.08-0.27-0.12-0.32-0.29c-0.02-0.07-0.03-0.2,0.04-0.25
					c0.06-0.05,0.13-0.02,0.16-0.1c0.03-0.06,0.06-0.15,0.11-0.19c0.05-0.05,0.05-0.07,0.01-0.13c-0.05-0.08-0.02-0.05-0.1-0.01
					c-0.09,0.05-0.29,0.31-0.36,0.14c0,0-0.03,0.01-0.05,0.01c0.18-0.06-0.08-0.16,0.02-0.21c-0.02-0.01-0.02-0.04-0.05-0.05
					c0.03,0,0.05-0.01,0.08-0.01c-0.08-0.05-0.18-0.08-0.26-0.04c0.12,0.03,0,0.08-0.02,0.04c-0.01-0.04,0.08-0.11,0.01-0.11
					c-0.11,0-0.27,0.04-0.37,0.09c-0.15,0.08-0.23,0.18-0.42,0.21c-0.02,0-0.05-0.02-0.07-0.02c-0.05,0-0.08,0.02-0.13,0.03
					c-0.08,0.01-0.22,0.05-0.16-0.08c-0.1,0.05-0.23-0.07-0.35-0.06c0.15,0.12-0.15,0.11-0.18,0.11c-0.07-0.01-0.14-0.06-0.18-0.08
					c-0.04-0.01-0.05-0.06-0.12-0.03c-0.06,0.03-0.04,0.09-0.09,0.13c-0.09,0.06-0.21,0.03-0.3,0.07c-0.04,0.02-0.38,0.24-0.33,0.01
					c-0.19-0.06-0.35-0.08-0.54-0.08c-0.08,0-0.2-0.03-0.27,0.04c-0.06,0.06-0.18,0.06-0.26,0.03c-0.02,0.05-0.05,0.07-0.09,0.02
					c-0.05-0.06-0.08,0.01-0.13,0.03c-0.09,0.05-0.12,0.09-0.23,0.1c-0.04,0.01-0.04-0.04-0.1-0.02c-0.24,0.08-0.49,0.05-0.73,0.11
					c-0.13,0.03-0.37,0.17-0.46,0.26c-0.05,0.05-0.08,0.25-0.2,0.21c-0.07-0.03-0.1-0.09-0.18-0.07c-0.03,0.18-0.17,0.05-0.2,0.1
					c-0.02,0.03-0.1,0.05-0.14,0.08c-0.07,0.06-0.06,0.13-0.12,0.19c-0.04,0.04-0.17,0.11-0.22,0.13c-0.08,0.03-0.14,0.07-0.23,0.07
					c-0.07,0-0.14-0.03-0.21-0.04c-0.1,0-0.16,0.03-0.24-0.08c0.02,0.02,0.05,0.06,0.08,0.09c-0.11,0-0.13-0.15-0.13-0.23
					c-0.03,0.12-0.16,0.18-0.28,0.16c-0.06-0.01-0.12-0.03-0.17-0.03c-0.03,0-0.07,0.08-0.09,0c-0.21,0.03-0.33,0.1-0.54-0.03
					c-0.11-0.07-0.18-0.15-0.23-0.26c-0.03-0.05-0.05-0.15-0.1-0.16c-0.02-0.01-0.28,0.11-0.28,0.12c-0.11,0.13-0.14,0.44-0.2,0.6
					c-0.08,0.21-0.22,0.53-0.39,0.67c-0.17,0.13-0.36,0.21-0.56,0.29c-0.15,0.06-0.28,0.12-0.38,0.21c-0.1,0.1-0.33,0.35-0.36,0.46
					c-0.03,0.13,0,0.24-0.11,0.36c-0.09,0.1-0.13,0.21-0.2,0.33c-0.05,0.09,0,0.3-0.01,0.41c0,0.07-0.04,0.08-0.02,0.13
					c0.01,0.03,0.09,0.08,0.11,0.13c0.1,0.25-0.23,0.6-0.39,0.78c-0.13,0.16-0.29,0.23-0.45,0.36c-0.12,0.1-0.16,0.21-0.31,0.28
					c-0.1,0.05-0.19,0.1-0.3,0.12c-0.12,0.02-0.33,0.02-0.43,0.09c-0.1,0.07-0.13,0.22-0.18,0.33c-0.08,0.18-0.12,0.4-0.29,0.52
					c-0.14,0.1-0.33,0.13-0.41,0.29c-0.05,0.1-0.1,0.28-0.14,0.4c-0.05,0.14-0.05,0.26-0.07,0.41c-0.03,0.16-0.18,0.23-0.28,0.35
					c-0.13,0.14-0.28,0.22-0.37,0.39c0.05-0.03,0.1-0.11,0.13-0.16c0.03,0.13-0.18,0.41-0.26,0.52c0.07,0.02-0.04,0.14-0.07,0.21
					c-0.04,0.08-0.03,0.19-0.1,0.26c-0.04,0.04-0.08,0.02-0.13,0.06c-0.13,0.12-0.26,0.74-0.17,0.88c0.01-0.08,0.02-0.18,0.08-0.24
					c0.03,0.05,0.05,0.11,0.08,0.13c0.03,0.09,0.06,0.18,0.13,0.23c0-0.03,0.02-0.08,0.01-0.11c0.03,0.03,0.04,0.02,0.07,0.04
					c-0.01,0-0.03,0.01-0.03,0.01c0.05,0.04,0.17,0.27,0.12,0.31c0.04,0.06,0,0.12-0.03,0.16c0.01,0,0.02-0.01,0.03-0.02
					c0.01,0.03-0.03,0.02,0.01,0.03c-0.01,0.1-0.12,0.17-0.13,0.27c0.01-0.02,0.04-0.05,0.06-0.08c-0.01,0.02-0.02,0.03-0.03,0.05
					c0.02-0.02,0.05-0.04,0.06-0.05c-0.01,0.07-0.08,0.1-0.14,0.1c0.03,0.06,0.07,0.06,0.1,0.1c0.07,0.1,0.09,0.16,0.12,0.28
					c0.1,0.36,0.09,0.67-0.07,1.02c-0.11,0.24-0.13,0.44-0.15,0.7c-0.02,0.24-0.33,0.6-0.57,0.64c0.01,0.02,0.04,0.05,0.05,0.06
					c0-0.02,0-0.03,0-0.04c0.2-0.05,0.38,0.37,0.38,0.52c0-0.08,0.01-0.13,0.06-0.15c-0.01,0.02-0.03,0.03-0.04,0.05
					c0.07,0.01,0.1-0.05,0.15-0.08c-0.03,0.01,0-0.03,0-0.03c-0.01,0,0.04,0.02,0.05,0.02c-0.05,0.01-0.09,0.03-0.13,0.07
					c0.01,0.01,0.02,0,0.03,0c-0.02,0.03-0.03,0.02-0.05,0.04c-0.08-0.03-0.07,0.06-0.03,0.11c0.05-0.04,0.1-0.07,0.12-0.13
					c0,0.05,0,0.07,0,0.11c-0.01-0.01-0.01-0.01-0.02-0.03c-0.08,0.01-0.07,0.17,0.01,0.06c-0.05,0.07-0.01,0.13-0.01,0.22
					c0.04,0.02,0.09,0.02,0.13,0c-0.01-0.01,0-0.01,0.01-0.03c0,0,0,0.03,0,0.03c0.08-0.08,0.28-0.08,0.39-0.08
					c0.04,0,0.14,0.03,0.17,0c-0.04,0.05-0.58-0.03-0.51,0.14c0.02,0,0.02-0.01,0.03-0.01c-0.04-0.02-0.1-0.02-0.17,0
					c0.01,0,0.03,0.03,0.04,0.03c0,0-0.03-0.02-0.03,0c-0.03-0.04-0.13-0.07-0.09-0.13c-0.02-0.01-0.04-0.03-0.05-0.03
					c-0.15,0.1,0,0.26-0.07,0.41c0,0.01,0.01-0.01,0.02,0c0,0.02-0.01,0.03-0.01,0.05c0.03-0.02,0.04,0,0.05,0
					c-0.1,0.06,0.02,0.1,0.06-0.04c-0.03,0.07-0.03,0.06,0.02,0.06c0.01,0,0.02,0.04,0.03,0.04c0-0.01,0-0.03,0-0.05
					c0,0,0.01,0.03,0.02,0.02c-0.01,0.09,0.22,0.05,0.25-0.03c0.04,0.1,0.09,0.05,0.17,0.06c0.15,0.03,0.05-0.13,0.19-0.13
					c-0.11,0.01-0.04,0.15-0.2,0.15c-0.15,0-0.32,0.02-0.45,0.01c-0.01-0.01-0.02-0.03-0.03-0.04c-0.12,0.1-0.16,0.1-0.02,0.2
					c0.07,0.04,0.13,0.12,0.17,0.01c0,0.01,0,0.03,0.01,0.04c0.04-0.03,0.09-0.06,0.14-0.08c-0.05,0.03-0.1,0.06-0.12,0.1
					c-0.07,0-0.04,0.07-0.01,0.11c0.06,0.07,0.08,0.04,0.15,0.04c0.06,0,0.08-0.07,0.18-0.05c0,0-0.01,0.02-0.01,0.03
					c-0.08-0.05-0.13,0.06-0.13,0.13c0.03-0.02,0.03-0.03,0.05-0.05c0,0.01-0.02,0.04,0.01,0.03c0.05-0.05,0.03-0.03,0.08-0.05
					c-0.04,0.02-0.02,0.02-0.05,0.07c0.08-0.03,0.16-0.11,0.24-0.13c0.04-0.01,0.09,0.06,0.13,0.01c0.03-0.03,0.06-0.02,0.1-0.01
					c-0.05,0.05-0.03,0.1,0.04,0.11c-0.06,0.01-0.1-0.03-0.08-0.1c-0.1,0.08-0.26-0.03-0.27,0.15c0.01-0.01,0.01-0.02,0.03-0.02
					c0.01,0-0.01,0.03,0.01,0.03c0,0,0.03-0.02,0.03-0.03c-0.02,0.05-0.01,0.05-0.01,0.08c0-0.01,0-0.02,0.01-0.03
					c0.01,0,0,0.02,0.03,0.01c0-0.02-0.01-0.03-0.01-0.04c0,0,0.03,0.03,0.03,0.03c0-0.02,0-0.03,0-0.05c0,0,0,0,0.01,0
					c0,0.01,0,0.02,0.01,0.03c0-0.02,0-0.02,0.02-0.01c0-0.02-0.02-0.02-0.02-0.03c0.01,0.01,0.03-0.01,0.03-0.02
					c0,0.02,0,0.03,0,0.04c0.01-0.02,0.02-0.02,0.03-0.05c0-0.01,0.03,0.02,0.02,0.02c-0.01,0.01-0.01,0-0.03,0.03
					c0.02-0.01,0.03-0.01,0.06-0.03c0,0.01-0.02,0.02-0.03,0.03c0,0,0.05-0.01,0.04-0.02c0,0.01-0.01,0.02-0.01,0.03
					c0.01,0,0.01,0,0.02,0.01c0,0,0-0.02,0.02-0.02c0.01,0-0.01,0.02-0.01,0.03c0.02,0,0.03-0.01,0.04-0.01
					c-0.02,0.01-0.05,0.03-0.07,0.04c0,0,0-0.02-0.01-0.02c0,0,0.03,0,0.03,0c-0.01-0.01-0.03-0.03-0.03,0
					c-0.04-0.02-0.01-0.04-0.03,0.01c0,0-0.03-0.02-0.01-0.03c-0.01,0-0.02,0-0.03,0c0,0,0.03,0.03,0.03,0.03
					c-0.03,0-0.02-0.01-0.05,0c0.01,0,0.03,0,0.03,0.02l-0.03-0.01c-0.02,0.03,0.01,0.02-0.03,0.02c0,0,0,0,0,0
					c0,0,0.01,0.02,0.01,0.02c-0.02-0.01-0.02,0-0.04,0c0,0.02-0.01,0.06-0.02,0.09c0.03-0.02,0.08-0.05,0.1-0.08
					c0,0-0.01,0.05-0.01,0.05c0.01,0,0.03-0.03,0.04-0.03c-0.09,0.05-0.13,0.18,0.02,0.18c0-0.02,0.01-0.06,0.01-0.06
					c-0.03,0.21,0.03,0.1,0.11,0c0,0.02,0,0.03,0.01,0.05c-0.04,0.01-0.11,0.1-0.03,0.08c0,0-0.03,0.03-0.03,0.04
					c0.01,0,0.03-0.02,0.05-0.02l0,0c-0.05,0.04-0.04,0.09,0.03,0.11c0-0.05,0-0.08,0-0.12c0.01-0.01,0.02,0.01,0.03,0.01
					c0-0.02,0-0.03,0-0.04c0.05,0.03,0.02,0.01,0.06,0.01c0.03,0,0.03,0.02,0.08-0.03c0,0,0,0.02,0.01,0.02
					c-0.06,0.04-0.09,0.06-0.08,0.13c0.01-0.01,0.03-0.03,0.04-0.03c-0.02,0.05,0,0.07-0.01,0.1c0.02-0.03,0.05-0.05,0.06-0.07
					c-0.03,0.04-0.02,0.07-0.02,0.07s-0.01,0.02-0.01,0.03c0.04-0.04,0.08-0.1,0.11-0.14c-0.03,0.07-0.08,0.12-0.05,0.17
					c-0.06,0.05-0.04,0.09,0.03,0.05c0.01,0.06,0.05,0.1,0.05,0.17c0.04,0,0.09,0.01,0.12,0.02c0.02,0.05,0.01,0.04,0.06,0
					c-0.04,0.11,0.03,0.06,0.08-0.01c-0.01,0.03-0.03,0.03-0.04,0.05c0.02,0,0.02,0,0.04,0.02c-0.07,0.03,0.12,0.21,0.17,0.07
					c-0.03,0.06-0.03,0.19,0.02,0.07l0,0c0,0,0.06,0.04,0.05,0.03c-0.04,0.05-0.05,0.12-0.09,0.16c0.03-0.01,0.05-0.02,0.08-0.04
					c0.05,0.01,0,0.05,0.06,0c-0.03,0.06-0.02,0.09,0.05,0.08c-0.02,0.06-0.01,0.05,0.01,0.1c0.02-0.03,0.03-0.03,0.04-0.05
					c0,0,0,0.03,0,0.03c-0.01,0.03-0.01,0.05,0.01,0.09c0-0.03,0.02-0.04,0.03-0.06c0,0.01-0.01,0.03-0.01,0.04
					c0,0,0.05,0,0.06,0.01c-0.08,0.01-0.12,0.07-0.06,0.13c0.02,0,0.06,0.01,0.11,0.01c-0.01,0-0.04,0.03-0.05,0.03
					c0.03,0,0.06,0.02,0.1,0.02c-0.11-0.01-0.17,0-0.14,0.12c0.03,0.12,0.08,0.05,0.04-0.01c0.03,0,0.04,0,0.06,0
					c0,0,0.01,0.01,0.01,0.01c-0.01,0.01-0.02,0.02-0.03,0.03c0.05,0.02,0.09,0,0.12-0.05c0,0.02-0.02,0.05-0.03,0.06
					c0,0,0,0,0,0.01c0,0,0.03,0,0.03,0c-0.06,0-0.11,0.02-0.15,0.07c0.03,0.02,0.03,0.03,0.05,0.04c-0.05-0.03-0.1-0.07-0.15-0.07
					c0.01,0.06,0.08,0.1,0.07,0.19c0.03-0.03,0.07-0.03,0.11-0.05c0.01,0.05,0.02,0.05,0.05,0.09c-0.02,0.06-0.02,0.05,0.03,0.1
					c-0.04-0.01-0.05,0-0.08,0c0.04,0.04,0.06,0.06,0.11,0.05c-0.03,0.1,0.13,0.07,0.18,0.03c-0.03,0.03-0.03,0.05-0.04,0.08
					c0-0.01,0.01-0.01,0.02-0.01c0.01,0.1,0.11,0.03,0.17,0.03c-0.03,0.04-0.27,0.07-0.1,0.12c-0.04,0-0.05,0-0.08,0
					c0.18,0.05,0.38,0.19,0.54,0.23c0,0-0.01,0.01-0.01,0c0.08,0.04,0.08,0.11,0.12,0.15c0.08,0.07,0.27,0.14,0.35,0.18
					c-0.03,0.03,0,0.03,0,0.05c0,0-0.02-0.01-0.02-0.01c0.05,0.07,0.16,0.06,0.24,0.11c-0.02-0.01-0.03-0.03-0.05-0.04
					c0.02,0.01,0.05,0.03,0.08,0.04c0,0.01-0.03,0-0.02,0.01c0.13,0.06,0.4,0.29,0.44,0.39c0.13,0.05,0.23,0.2,0.36,0.27
					c0.21,0.12,0.44,0.23,0.66,0.31c0.18,0.07,0.29-0.02,0.46-0.09c0.27-0.11,0.54-0.2,0.82-0.29c0,0-0.01,0-0.02,0
					c0.1-0.01,0.23-0.02,0.33-0.02c-0.03-0.03-0.08-0.04-0.13-0.04c0,0.01,0.02,0.01,0.03,0.02c-0.03,0-0.06,0.01-0.09,0.02
					c0.01,0.01,0.03,0,0.04,0.01c-0.04-0.01-0.05,0-0.08-0.02c0,0,0.02,0,0.01,0c0.01,0,0.01,0.02,0.02,0.03
					c0,0,0.01-0.03,0.01-0.03c0.01,0.02,0,0,0.03,0c0,0-0.02,0-0.03,0c0,0,0,0,0-0.01c0.05-0.02,0.13,0.02,0.2,0
					c0,0.03,0,0.02,0.02,0.04c-0.01,0-0.01,0-0.01,0c0.18,0.01,0.38-0.04,0.56-0.05c-0.01,0-0.03-0.01-0.04-0.02l0.03,0
					c-0.11-0.03-0.23,0.03-0.31,0.03c0,0.02,0.02,0,0.02,0.01c-0.05-0.01-0.11,0-0.15,0.01c0.01-0.02,0.04-0.05,0.03-0.05
					c0.03-0.01,0.03-0.01,0.05-0.03c-0.02,0.02,0,0.02,0,0.04c0,0-0.02-0.01-0.03,0c0.04-0.01,0.06-0.01,0.09-0.03
					c0.02,0.01,0.04,0.02,0.06,0.03c0-0.02-0.01-0.01-0.02-0.01c0.09-0.03,0.18,0,0.31-0.01c-0.02-0.01-0.03,0-0.04-0.01
					c0.03-0.01,0.05-0.01,0.06-0.02c0.03,0.03,0.05,0.03,0.1,0.04c-0.01-0.01-0.04-0.04-0.05-0.05c0.03,0.02,0.03,0.02,0.05,0.05
					c-0.02,0-0.03,0.02-0.03,0.03c-0.03-0.01-0.05-0.02-0.07-0.03c0,0-0.03,0-0.06,0.01c0.05,0.03,0.12,0.06,0.16,0.01
					c0.02,0.06,0.19,0.08,0.26,0.05l-0.03-0.03c0,0,0.04-0.02,0.05-0.03c-0.01,0-0.03,0-0.03-0.01c0.02-0.11,0.08-0.03,0.08-0.03
					c0.02,0.02-0.06,0.09,0.03,0.09c0.07,0,0.09,0.02,0.15-0.01c-0.05,0.09-0.18,0-0.25,0.03c0.2,0.02,0.42,0.08,0.59,0.15
					c0.12,0.05,0.08,0.07,0.21,0.01c0.17-0.08,0.31-0.15,0.5-0.22c0.08-0.03,0.19-0.04,0.28-0.08c0.11-0.06,0.22-0.13,0.33-0.18
					c0.16-0.08,0.32,0,0.49-0.06c0.05-0.02,0.04-0.1,0.08-0.13c0.05-0.05,0.12-0.07,0.18-0.08c0.36-0.11,0.77-0.13,1.14-0.13
					c-0.01-0.05,0.01-0.09,0.05-0.12c0.02,0.09,0.14-0.02,0.21,0c-0.09,0.03-0.17,0.06-0.24,0.1c0,0-0.02-0.01-0.03-0.01
					c0.1,0.06,0.3,0,0.42,0.02c0.12,0.02,0.2,0.04,0.29,0.11c0.08,0.05,0.13,0.11,0.19,0.18c0.07,0.1,0.07,0.03,0.18-0.01
					c-0.02,0.03-0.06,0.05-0.08,0.08c-0.1,0.01,0.05,0.2,0.1,0.03c-0.02,0.12,0.05,0.02,0.1,0.08c-0.05-0.02-0.05,0.01-0.13,0
					c-0.12,0,0.03,0.1,0.09,0.1c0,0-0.01-0.01,0-0.03c0.05,0,0.06-0.03,0.12-0.06c-0.06,0.04-0.06,0.03-0.03,0.09
					c-0.03,0-0.05,0.02-0.06,0.02c-0.1-0.05-0.08,0.14-0.01,0.09c0,0,0.03,0.03,0.03,0.03c0,0-0.01,0-0.02,0l0.01,0.03
					c-0.03-0.02-0.03-0.02-0.05-0.03c0.02,0.06,0.04,0.12,0.07,0.18c0,0-0.01-0.01-0.02-0.01c0.02,0.03,0.04,0.05,0.05,0.08
					c0,0.04,0.08,0.11,0.13,0.15c0,0-0.01-0.01-0.02-0.01c0.04,0.02,0.03,0.02,0.05,0.02c0.02,0.03,0.03,0.03,0.05,0.06l0-0.03
					c0.02,0.01,0.02,0,0.02-0.01c0.01,0.05,0.01,0.03,0.04,0.07c0-0.02-0.01-0.04-0.01-0.07c0,0,0.04,0.03,0.04,0.03
					c-0.01,0.06,0,0.07,0.07,0.04c0,0-0.02,0-0.02,0c0.01-0.03,0.02-0.04,0-0.08c0.01-0.01,0.02,0.02,0.03,0.02
					c0-0.02-0.01-0.03-0.01-0.05c0.02,0.01,0.01,0.04,0.02,0.06c0.01-0.01,0.02-0.03,0.04-0.03c-0.13,0.12,0.21,0.09,0.12-0.04
					c0.04,0.1,0.1,0.12,0.07-0.02c0,0.02,0,0.04,0.01,0.06c0-0.04,0.01-0.07,0.02-0.1c-0.02,0.08-0.03,0.19,0.08,0.14
					c-0.05-0.05-0.07-0.2-0.09-0.27c0.02,0,0.03,0.01,0.04,0.01c0,0.03,0.02,0.2,0.05,0.23c0.09,0.1,0.11-0.08,0.04-0.09
					c0-0.02,0-0.04-0.02-0.06c0.02,0.03,0.03,0.03,0.05,0.04c-0.01-0.03-0.01-0.05-0.02-0.07c0.02,0.01,0,0.05,0.03,0.01
					c0,0.02,0.01,0.03,0.02,0.04c-0.02,0.03-0.02,0.09,0.02,0.11c-0.01-0.02,0-0.02,0-0.03c0,0,0,0.04,0.02,0.03
					c0.06-0.04,0.02-0.1-0.03-0.16c0,0,0.01-0.01,0.01-0.01c0.04,0.05,0.1,0.15,0.15,0.13c-0.02-0.02-0.03-0.02-0.04-0.03
					c0.09-0.01,0.15,0.04,0.17-0.08c-0.03,0.1,0.01,0.12,0.12,0.12c0,0-0.02-0.01-0.02,0c0.07-0.02,0.3,0.01,0.34-0.05
					c0.03-0.05-0.05-0.17-0.08-0.22c0.05,0.05,0.09,0.13,0.14,0.08c0,0.07,0.01,0.03,0.03,0.05c0,0.01-0.01,0.02,0,0.03
					c0.01-0.01,0.06-0.04,0.07-0.06c-0.02,0.05-0.03,0.09-0.03,0.11c-0.02,0.05-0.03,0.05,0.03,0.05c0,0-0.02,0.02-0.02,0.02
					c0.03,0,0.06-0.01,0.09-0.01c-0.03-0.04-0.03-0.08-0.04-0.13c0.01,0.06,0.04,0.08,0.08,0.11c0.02,0,0-0.02,0-0.03
					c0.01,0,0.02,0.03,0.03,0.03c0-0.02,0-0.04-0.01-0.06c0.03,0.03,0.03,0.03,0.03,0.07c0.01,0,0.02-0.01,0.02-0.02
					c-0.03,0.05,0,0.21,0.02,0.24c0.04,0.05,0.11,0.05,0.14,0.09c0.01-0.01,0.05-0.02,0.06-0.04c-0.02,0.07,0.03,0.08,0.09,0.07
					c-0.01-0.02-0.01-0.04-0.03-0.06c0.01,0,0.03,0.01,0.05,0.03c-0.01-0.02-0.02-0.04-0.04-0.06c0,0,0.03-0.03,0.03-0.02
					c0.03,0.1,0.1,0.03,0.15-0.01c-0.06,0.05-0.12,0.13,0,0.1c0,0,0,0.01,0,0.01c-0.01,0-0.04,0.01-0.05,0.02
					c0,0,0.05,0.03,0.04,0.03c0,0-0.01,0.02,0,0.02c-0.03-0.03-0.03-0.02-0.07-0.03c0,0.05-0.03,0.03,0.02,0.07
					c-0.03-0.02-0.04-0.01-0.07-0.04c0.06,0.09,0.03,0.16,0.16,0.11c-0.04,0.01-0.07,0.03-0.1,0.05c0.07,0.04,0.1,0.11,0.16,0.15
					c-0.02,0.18-0.07,0.45-0.09,0.66c-0.01,0.07,0,0.1-0.02,0.18c-0.02,0.05-0.14,0.15,0,0.12c-0.09,0-0.17,0.12-0.2,0.21
					c-0.03,0.08,0.13,0.13,0.19,0.06c-0.03-0.01,0.06,0.03,0.07,0.03c0,0-0.02,0.05-0.03,0.06c-0.03-0.08-0.11-0.05-0.13,0.01
					c-0.02,0.06,0.05,0.19,0.03,0.27c0-0.01-0.02-0.05-0.02-0.08c-0.02,0-0.03,0-0.06,0c0.1-0.04,0.01-0.06-0.03-0.03
					c-0.09,0.08-0.04,0.03,0.01,0.13c0.05,0.12,0.21,0.12,0.34,0.13c-0.05,0.01-0.11,0.02-0.15,0.04c0.01,0.02,0.02,0.04,0.03,0.06
					c-0.04-0.05-0.08-0.09-0.13-0.05c0,0-0.04-0.04-0.05-0.04c0,0.01,0,0.04-0.01,0.05c-0.04-0.04-0.04-0.03-0.08-0.05
					c0.01-0.03,0-0.07,0-0.1c-0.07,0.05,0,0.17-0.01,0.24c0,0.13-0.15,0.26-0.13,0.35c-0.03,0-0.05,0.05-0.06,0.11
					c0-0.05-0.03-0.08-0.06-0.11c0,0.01,0.01,0.03,0.01,0.03c-0.01,0.03-0.03,0-0.03,0.05c-0.03-0.05-0.06-0.11-0.09-0.13
					c0.01,0.08,0.07,0.22,0.13,0.23c-0.02,0-0.01,0.02-0.01,0.02l-0.03-0.01c0.04,0.03,0.07,0.09,0.08,0.14c0-0.02,0-0.02,0-0.04
					c0,0.1,0.2,0.21,0.18,0.07c0.02,0.06-0.07,0.12-0.02,0.15c0.08,0.07,0.08-0.12,0.15,0.03c-0.02,0-0.06,0-0.08,0
					c0,0.01,0.01,0.03,0,0.03c-0.01-0.01-0.02-0.01-0.01-0.03c-0.05,0.03-0.05,0.01-0.07,0.03c0.01-0.08-0.12-0.18-0.17-0.25
					c0.02,0.06,0.18,0.36,0.2,0.37c0.01-0.01,0.01-0.03,0.02-0.04c0.02,0.01,0.02,0.03,0.03,0.04c0,0,0-0.02,0-0.03
					c0.04,0.04,0.05,0.07,0.08,0.12c0,0-0.01,0.01-0.01,0.01c-0.03-0.05-0.04-0.08-0.1-0.08c-0.01-0.01,0.02-0.01,0-0.03
					c0,0-0.02,0.01-0.02,0.01c0,0-0.03-0.02-0.04-0.03c0.01,0.02,0.05,0.08,0.07,0.1c0.05,0.06,0.1,0.18,0.15,0.22
					c0,0-0.02-0.02-0.02-0.03c0.01,0,0.03,0.03,0.04,0.04c0,0,0-0.03,0-0.03c0.02,0.08,0.1-0.01,0.16,0.07
					c-0.02,0.01-0.01,0-0.02,0.03c0.01,0,0.01,0.01,0.02,0.01c0.05-0.03,0-0.02,0.06,0c0,0-0.01-0.03-0.01-0.04
					c0.03,0.01,0.03,0.03,0.05,0.04c-0.03,0.02-0.08,0.03-0.1,0.04c-0.03-0.04-0.08-0.05-0.08-0.1c-0.03,0-0.03,0.01-0.08-0.01
					c0.12,0.18,0.32,0.26,0.46,0.43c0.09,0.11,0.18,0.21,0.27,0.32c0.08,0.09,0.18,0.23,0.28,0.3c0.1,0.06,0.15,0.15,0.19,0.22
					c-0.01-0.01,0.02,0.1,0.01,0.07c0.05,0.06,0.1,0.13,0.16,0.15c0,0,0.02-0.03,0.02-0.03c-0.03,0.02,0.01,0.02-0.06,0.02
					c0.07,0.1,0.09,0.2,0.1,0.29c0.01,0.11,0.04,0.15,0.12,0.26c-0.02,0,0.04-0.02,0.03-0.01c0,0.02-0.01,0.02-0.01,0.04
					c0.05-0.01,0.1-0.02,0.15-0.03c0.03-0.01,0.01-0.07,0.05-0.08c0.08-0.03,0.14,0.02,0.22,0.01c-0.17,0.02-0.3,0.13-0.49,0.15
					c0-0.01,0-0.02,0-0.03c-0.08,0.06,0.21,0.45,0.28,0.47c-0.03,0.23,0.13,0.49,0.24,0.7c0.09,0.17,0.14,0.31-0.03,0.4
					c0.01-0.02,0.02-0.03,0.03-0.04c-0.05,0.05-0.1,0.12-0.14,0.19c0-0.05,0.03-0.09,0.07-0.12c-0.15,0.07-0.04,0.19,0.01,0.28
					c0.04,0.06,0.01,0.15,0.03,0.2c0.06,0.18,0.19,0.34,0.29,0.51c0.12,0.21,0.11,0.8-0.08,1.02c-0.01-0.01,0.01-0.02,0-0.02
					c-0.05,0.05-0.05,0.09-0.09,0.14c-0.04,0.04-0.09,0.01-0.13,0.03c-0.14,0.08-0.14,0.2-0.23,0.32c-0.04,0.05-0.09,0.08-0.13,0.13
					c-0.04,0.08-0.02,0.19-0.05,0.29c-0.01,0.03-0.07,0.1-0.08,0.17c-0.01,0.06-0.02,0.2-0.04,0.28c-0.03,0.09-0.05,0.15-0.09,0.23
					c-0.03,0.06-0.03,0.19-0.07,0.3c-0.04,0.11-0.13,0.1-0.15,0.2c0,0.01,0.03,0.21,0.04,0.23c0.01,0.1,0.02,0.21,0,0.32
					c0-0.01,0-0.03-0.01-0.04c-0.03,0.32-0.06,0.66,0.12,0.95c0.08,0.13,0.2,0.25,0.28,0.38c0.07,0.12,0.13,0.24,0.2,0.36
					c0.18,0.32,0.28,0.67,0.48,0.98c0.11,0.17,0.17,0.31,0.28,0.46c0.11,0.14,0.26,0.35,0.21,0.54c-0.01,0.04-0.02,0.06-0.04,0.09
					c0-0.03-0.01-0.03-0.01-0.07c-0.05,0.1,0.05,0.2,0.03,0.31c0,0,0-0.01,0-0.02c-0.05,0.07,0.02,0.21,0.01,0.3
					c0,0.08-0.03,0.12-0.02,0.21c0.04,0.21,0.21,0.36,0.22,0.56c0,0.19-0.01,0.36,0.03,0.54c0.03,0.1,0.02,0.13,0.03,0.24
					c0.01,0.09,0.15,0.1,0.1,0.24c0-0.01,0-0.03,0-0.03c-0.07,0.06,0.12,0.46,0.17,0.56c0.06,0.13,0.44,0.78,0.6,0.69
					c0.03,0.16,0.19,0.33,0.26,0.51c0.1,0.28,0.16,0.54,0.3,0.81c0.13,0.26,0.3,0.48,0.42,0.73c0.04,0.08,0.12,0.36,0.08,0.41
					c-0.03,0.03,0,0.14-0.02,0.2c-0.07,0.15-0.12,0.05-0.18,0.08c-0.01,0-0.01-0.01,0-0.01c-0.03,0.01-0.06,0.05-0.08,0.07
					c0.02,0.05,0.02,0.1,0.04,0.16c0.02-0.02,0.01-0.02,0.01-0.03c0.06,0.02,0.07,0.07,0.11,0.13c-0.03-0.03-0.07-0.05-0.1-0.06
					c0.11,0.1,0.15,0.23,0.24,0.34c0.05,0.07,0.05,0.15,0.04,0.2c-0.01,0.04-0.1,0.05-0.05,0.1c-0.03,0.07,0.01,0.16,0.08,0.2
					c0-0.04-0.04-0.13-0.01-0.15c0.06-0.08,0.18-0.02,0.21,0.03c0.01,0.02-0.04,0.12-0.02,0.14c0.03,0.03,0.16-0.03,0.19-0.05
					c-0.09,0.13,0.25,0.06,0.09,0.22c0.09-0.03,0.11,0.07,0.19,0.1c0.04,0.01,0.21,0.03,0.24,0.02c0.01,0,0.12-0.13,0.16-0.15
					c0.04-0.03,0.06-0.07,0.1-0.09c0.06-0.02,0.26,0.04,0.16-0.04c0.07-0.04,0.15-0.03,0.23,0.01c0.08,0.03,0.1-0.03,0.17-0.04
					c0.09-0.01,0.13,0.03,0.21-0.01c0.07-0.03,0.01-0.11,0.15-0.11c-0.04-0.09,0.29-0.14,0.36-0.1c0,0-0.02-0.03-0.03-0.03
					c0,0,0.05,0.02,0.05,0.02c0,0.04,0.07,0.06,0.13,0.06c0,0-0.01-0.03-0.02-0.04c0.05,0.05,0.14,0.05,0.23,0.06
					c-0.09-0.13,0.37-0.06,0.45-0.03c0.08,0.03,0.31,0.13,0.38,0.08c-0.02,0.01,0.04-0.1,0.03-0.1c-0.02-0.08,0.2-0.03,0.23-0.03
					c0.04,0,0.13,0.06,0.18,0.03c0.1-0.05-0.03-0.01,0-0.08c0.09-0.21,0.23-0.12,0.42-0.12c0.13,0,0.25-0.07,0.36-0.13
					c0.19-0.1,0.36-0.24,0.52-0.37c0.16-0.13,0.3-0.28,0.46-0.42c0.15-0.14,0.26-0.35,0.4-0.48c0.15-0.13,0.32-0.23,0.45-0.41
					c0.18-0.24,0.36-0.54,0.49-0.8c-0.01,0.01-0.02,0.02-0.03,0.02c0.06-0.09,0.13-0.27,0.21-0.38c0.07-0.08,0.21-0.18,0.23-0.26
					c0.07,0.02,0.13-0.02,0.17-0.08c-0.02,0-0.02,0.02-0.03,0.02c0,0-0.01-0.01-0.01-0.02c0.08-0.01,0.29-0.17,0.23-0.27
					c0.14-0.16,0.16-0.55,0.23-0.76c0.07-0.23,0.05-0.47,0.09-0.71c-0.04,0.03-0.05,0.06-0.04,0.13c-0.03-0.01-0.1-0.05-0.11-0.06
					c-0.02-0.06-0.07-0.16-0.11-0.11c0.01-0.01,0.13-0.11,0.14-0.12c0-0.17,0.17-0.23,0.28-0.32c-0.01,0.01-0.01,0-0.01-0.01
					c0.02-0.01,0.04-0.02,0.07-0.03c-0.01,0.01-0.03,0.02-0.03,0.03c0.34-0.15,0.7-0.26,1.03-0.43c0.1-0.05,0.37-0.44,0.23-0.52
					c-0.02,0.08,0.01,0.05-0.05,0.04c-0.01,0.03-0.03,0.05-0.03,0.07c0.01-0.06,0.03-0.12,0-0.18c0.01,0.02,0.02,0,0.03,0.04
					c0.03-0.14,0.11-0.39,0.11-0.52c-0.01,0.01-0.01,0.01-0.03,0.03c-0.05-0.16,0-0.31,0.01-0.47c0,0.02-0.02,0.06-0.02,0.08
					c0-0.04-0.01-0.09-0.01-0.13c-0.04,0.03-0.04,0.03-0.04,0.09c-0.01,0-0.01-0.01-0.01-0.03c-0.01,0.06,0,0.12-0.01,0.18
					c-0.11-0.09,0-0.27-0.06-0.39c-0.05-0.1-0.12-0.31-0.1-0.41c0,0.03-0.02,0.06-0.03,0.08c0-0.06,0-0.08-0.03-0.13
					c0.03-0.03,0.02-0.03,0.03-0.05c0.03-0.03,0.04-0.05-0.02-0.05c0-0.07,0-0.15-0.09-0.14c0-0.01,0.01-0.03,0.01-0.03
					c-0.04-0.02-0.07-0.09-0.13-0.07c0.02-0.06,0.02-0.04-0.02-0.1c0.04-0.01,0.08-0.09,0.01-0.13c0.11,0.05,0.06-0.15,0.03-0.16
					c0.06-0.05-0.03-0.18-0.1-0.15c0.06-0.06,0.05,0.02,0.1,0.06c0.09,0.06,0.05,0.07,0.15,0.04c0.15-0.04,0.3-0.28,0.4-0.38
					c0,0-0.01,0-0.02,0c0.03-0.05,0.09-0.08,0.13-0.12l-0.01,0c0,0,0-0.02,0-0.02c0.05-0.01,0.03-0.01,0.07-0.03
					c0,0,0.06-0.02,0.09-0.05c0.02,0.08,0.01,0.04,0.08,0.05c-0.01-0.03,0-0.08-0.02-0.12c0.04,0.08,0.1,0.07,0.08,0.03
					c0.02-0.03,0-0.04,0.02-0.02c0.05-0.13,0.15-0.17,0.26-0.31c-0.01,0-0.03,0.02-0.04,0.02c0.11-0.05,0.11-0.14,0.02-0.2
					c0.04-0.01,0.07,0.02,0.09,0.06c0.08-0.13,0.16-0.18,0.27-0.24c0.09-0.06,0.41-0.17,0.36-0.24c0.01,0.02,0.02,0,0.02-0.01
					c0.02,0.13,0.31-0.07,0.31-0.09c0.06,0.03,0.29-0.01,0.24-0.07c0.08-0.06,0.36-0.18,0.38-0.28c0.03,0.01,0.03-0.01,0.06-0.01
					c-0.11-0.09,0.13-0.15,0.15-0.28c-0.02,0.01-0.03,0.02-0.04,0.02c0.09-0.08,0.24-0.21,0.3-0.31c0.04-0.06,0.09-0.22-0.04-0.18
					c0.02-0.04,0.06-0.06,0.11-0.06c-0.01-0.02-0.02-0.05-0.02-0.06c0.02,0,0.04,0.01,0.06,0.01c-0.03-0.03-0.05-0.05-0.08-0.08
					c0.11,0.1,0.11-0.14,0.1-0.19c-0.01,0-0.03,0-0.04,0c0.09-0.08-0.05-0.09-0.08,0.03c0-0.06,0.01-0.07,0-0.13
					c0.1,0.03,0.05-0.15-0.03-0.05c0.01,0.01,0-0.03,0-0.03c0,0-0.01,0.02-0.02,0.01c0-0.03,0.01-0.06,0.02-0.08
					c0.1-0.1-0.09-0.31,0-0.42c-0.02-0.01,0-0.01-0.01-0.05c-0.01,0.01-0.02,0.01-0.03,0.02c0.04-0.06,0.07-0.22-0.02-0.21
					c-0.04,0.07-0.06-0.04,0.02-0.03c0-0.03,0.01-0.03,0-0.05c0.03,0,0.03,0,0.03-0.02c0.06,0,0.03-0.05,0-0.08
					c0.01-0.01,0.01,0.01,0.03,0c-0.05-0.05-0.1-0.09-0.03-0.15c-0.03-0.02-0.03-0.04-0.06-0.07c0.06-0.03,0.03-0.18,0.04-0.24
					c-0.1-0.09,0.03-0.26-0.1-0.31c0.06-0.02,0.1-0.1,0.12-0.17c-0.03,0,0,0-0.03,0.01c0-0.06,0-0.08,0.07-0.11
					c-0.04-0.01-0.05-0.03-0.08-0.03c0.03-0.03,0.04-0.05,0.1-0.06c-0.05-0.03-0.09-0.07-0.08-0.12c-0.04,0-0.05-0.02-0.07-0.05
					c0.02-0.05,0.01-0.03-0.01-0.05c0,0.02,0.02,0,0.02,0.03c-0.05,0-0.09-0.05-0.11-0.09c-0.01,0-0.01,0.01-0.02,0.02
					c0.01,0,0.04,0.01,0.04,0.02c-0.01,0-0.03,0-0.02,0.02c-0.03,0-0.05-0.02-0.07-0.02c0.02-0.05,0-0.07-0.07-0.08
					c0,0.02,0,0.03,0,0.05c0-0.1-0.1-0.17-0.17-0.1c0.03-0.05,0.03-0.06,0.04-0.1c0.02-0.03,0.03-0.05-0.03-0.08
					c0.03-0.05,0-0.2-0.08-0.17c0.04-0.04,0.09-0.23-0.04-0.18c0-0.05-0.01-0.1-0.02-0.13c0,0-0.04,0-0.04,0
					c0.03,0,0.05,0,0.09,0.01c-0.09-0.13-0.15-0.21-0.15-0.37c0.01,0,0.01,0.01,0.02,0.01c0.01-0.05,0.05-0.11,0.07-0.18
					c0-0.03,0-0.1-0.07-0.11c0.03,0,0-0.03,0-0.03c-0.01,0.03-0.03,0.04-0.05,0.06c0.04-0.07,0.05-0.23,0.05-0.29
					c0.06-0.06,0.24-0.27-0.02-0.28c0,0,0.01,0.02,0,0.02c0-0.02-0.02-0.05-0.01-0.07c-0.03-0.03-0.1-0.12-0.16-0.15
					c0,0,0.02,0.01,0.03,0.02c-0.28-0.03-0.05-0.59,0.03-0.72c-0.01,0-0.01,0.01-0.03,0.01c0.05-0.05,0.08-0.09,0.03-0.1
					c0.03-0.04,0.01-0.03,0.02-0.08c0.02-0.01,0.03-0.01,0.03-0.04c0.01,0.02,0,0.04,0,0.05c0.03-0.07,0.02-0.05,0-0.09
					c0-0.03,0.02-0.02,0.01-0.06c0.02-0.02,0.05-0.04,0.06-0.05c0.05,0.02,0.06,0.01,0.08-0.04c0.01,0.01,0,0.03,0,0.03
					c0.03-0.07,0.18-0.31,0.07-0.28c0.01-0.03,0.01-0.03,0.05-0.05c0,0-0.03,0-0.03-0.01c0,0,0.03,0,0.04,0
					c0,0.01,0.01,0.04,0.02,0.05c0,0,0.03-0.04,0.03-0.05c-0.03-0.01-0.03-0.01-0.03-0.03c0.08,0.07,0.1-0.15,0.05-0.19
					c0.08,0.07,0.1-0.1,0.12-0.15c0,0.02-0.01,0.03-0.01,0.04c0.11-0.04,0.09-0.15,0.15-0.23c-0.1-0.02,0.01-0.2,0.09-0.23
					c0.07-0.03,0.33-0.03,0.22-0.16c0.05-0.03,0.09-0.03,0.08,0.02c0.04-0.04-0.02-0.16-0.03-0.2c0.01,0.02,0.03,0.05,0.05,0.06
					c0.01-0.03,0.03-0.07,0.03-0.1c-0.04,0.13,0.08,0.05,0.12,0.01c0.07,0.06,0.37-0.33,0.35-0.43c0.03,0.04,0.02,0,0.04,0.01
					c0-0.01,0.05-0.1,0.03-0.16c0,0.01,0.01,0.04,0.01,0.06c0.03-0.04,0.05-0.06,0.05-0.09c0.1-0.03,0.15-0.18,0.23-0.21
					c0.05-0.12,0.21-0.24,0.31-0.35c0.16-0.18,0.39-0.33,0.53-0.51c0.24-0.31,0.67-0.49,1-0.68c0.35-0.21,0.62-0.56,0.9-0.85
					c0.21-0.22,0.36-0.45,0.53-0.69c0.17-0.23,0.35-0.44,0.47-0.7c0.03-0.07,0.01-0.13,0.05-0.21c0.05-0.12,0.1-0.23,0.18-0.34
					c0.09-0.13,0.16-0.27,0.21-0.39c0.05-0.13,0.17-0.21,0.24-0.34c0.04-0.08,0.07-0.21,0.13-0.28c0.08-0.1,0.14-0.17,0.2-0.27
					c0.04-0.06,0.03-0.22,0.05-0.31c0.02-0.12-0.03-0.24,0.12-0.29C207.65,474,207.76,474.1,207.75,473.98"/>
			</g>
			<g clip-path="url(#SVGID_2_)">
				
					<text transform="matrix(1 0 0 1.1525 317.5733 467.3784)" fill="#FFFFFF" font-family="'TimesNewRomanPS-BoldMT'" font-size="92.2179px">BSIC - GAMBIA</text>
			</g>
			<path clip-path="url(#SVGID_2_)" fill="#FFFFFF" d="M322.75,484.27c1.96-0.38,5.88-0.7,9.61-0.7c4.54,0,7.33,0.44,9.74,1.83
				c2.3,1.22,3.92,3.44,3.92,6.44c0,2.87-1.7,5.58-5.41,6.95v0.12c3.76,0.98,6.55,3.82,6.55,8.01c0,2.99-1.39,5.32-3.42,6.94
				c-2.41,1.92-6.39,2.97-12.94,2.97c-3.67,0-6.38-0.24-8.05-0.48V484.27z M330.13,496.77h2.41c3.94,0,6-1.62,6-4.05
				c0-2.48-1.9-3.79-5.26-3.79c-1.63,0-2.55,0.1-3.16,0.23V496.77z M330.13,511.23c0.71,0.12,1.6,0.13,2.85,0.13
				c3.38,0,6.35-1.3,6.35-4.74c0-3.27-2.95-4.58-6.66-4.58h-2.54V511.23z M359.69,508.1l-2.32,8.39h-7.7l10.05-32.66h9.74
				l10.25,32.66h-8.02l-2.53-8.39H359.69z M368.05,502.59l-2.05-6.94c-0.57-1.93-1.15-4.38-1.65-6.29h-0.1
				c-0.48,1.92-0.98,4.4-1.51,6.3l-1.97,6.93H368.05z M384.1,516.48v-32.66h8.67l6.83,11.98c1.97,3.42,3.9,7.51,5.38,11.2l0.13-0.02
				c-0.46-4.32-0.6-8.71-0.6-13.65v-9.52h6.83v32.66h-7.8l-7.06-12.58c-1.96-3.52-4.12-7.71-5.72-11.54l-0.16,0.02
				c0.23,4.33,0.32,8.95,0.32,14.29v9.82H384.1z M432.93,517.52c-0.73-0.3-1.51-0.45-2.27-0.51c-7.44-0.47-14.39-5.91-14.39-16.58
				c0-9.81,6.24-17.15,16.1-17.15c10.05,0,15.55,7.56,15.55,16.48c0,7.42-3.45,12.65-7.79,14.57v0.2c2.52,0.74,5.36,1.33,7.93,1.85
				l-2.12,5.71C441.26,520.76,437.35,519.32,432.93,517.52z M440.05,500.07c0-5.97-2.82-10.92-7.9-10.92
				c-5.09,0-8.03,4.91-8.02,11.05c-0.02,6.22,2.98,10.93,7.95,10.93C437.15,511.14,440.05,506.46,440.05,500.07z M460.23,483.82
				v18.79c0,5.64,2.19,8.52,5.97,8.52c3.91,0,6.06-2.73,6.06-8.52v-18.79h7.44v18.33c0,10.08-5.14,14.87-13.75,14.87
				c-8.31,0-13.16-4.57-13.16-14.95v-18.24H460.23z M505.7,502.67h-12.11v7.77h13.54v6.05h-20.99v-32.66h20.28v6.05h-12.84v6.8
				h12.11V502.67z M530.59,510.91c3.42,0,5.23-1.41,5.23-3.56c0-2.01-1.57-3.19-5.51-4.57c-5.49-1.93-9.08-4.9-9.08-9.67
				c0-5.57,4.71-9.8,12.45-9.8c3.75,0,6.46,0.74,8.41,1.64l-1.65,5.92c-1.31-0.62-3.68-1.55-6.87-1.55c-3.24,0-4.79,1.49-4.79,3.16
				c0,2.07,1.82,2.99,6.09,4.59c5.83,2.16,8.53,5.16,8.53,9.78c0,5.45-4.21,10.13-13.27,10.13c-3.73,0-7.46-1.01-9.3-2.03l1.51-6.1
				C524.31,509.91,527.4,510.91,530.59,510.91z M556.1,508.1l-2.32,8.39h-7.7l10.05-32.66h9.74l10.25,32.66h-8.02l-2.53-8.39H556.1z
				 M564.46,502.59l-2.05-6.94c-0.57-1.93-1.15-4.38-1.65-6.29h-0.1c-0.48,1.92-0.98,4.4-1.51,6.3l-1.97,6.93H564.46z
				 M587.96,483.82v12.56h12.27v-12.56h7.44v32.66h-7.44v-13.67h-12.27v13.67h-7.44v-32.66H587.96z M633.72,502.67h-12.11v7.77
				h13.54v6.05h-20.99v-32.66h20.28v6.05h-12.84v6.8h12.11V502.67z M640.25,483.82h7.44v26.47h13.1v6.19h-20.54V483.82z
				 M693.46,499.82c0,10.72-6.52,17.19-16.15,17.19c-9.76,0-15.51-7.33-15.51-16.64c0-9.76,6.33-17.09,16.03-17.09
				C687.94,483.29,693.46,490.79,693.46,499.82z M669.68,500.23c0,6.4,3.04,10.91,8.01,10.91c5.03,0,7.91-4.72,7.91-11.07
				c0-5.89-2.81-10.92-7.93-10.92C672.63,489.16,669.68,493.88,669.68,500.23z M709.97,501.29v4.91h-12.78v-4.91H709.97z
				 M723.18,510.91c3.42,0,5.23-1.41,5.23-3.56c0-2.01-1.57-3.19-5.51-4.57c-5.49-1.93-9.08-4.9-9.08-9.67
				c0-5.57,4.71-9.8,12.45-9.8c3.75,0,6.46,0.74,8.41,1.64l-1.65,5.92c-1.31-0.62-3.68-1.55-6.87-1.55c-3.24,0-4.79,1.49-4.79,3.16
				c0,2.07,1.82,2.99,6.09,4.59c5.83,2.16,8.53,5.16,8.53,9.78c0,5.45-4.21,10.13-13.27,10.13c-3.73,0-7.46-1.01-9.3-2.03l1.51-6.1
				C716.9,509.91,720,510.91,723.18,510.91z M748.7,508.1l-2.32,8.39h-7.7l10.05-32.66h9.74l10.25,32.66h-8.02l-2.53-8.39H748.7z
				 M757.06,502.59l-2.05-6.94c-0.57-1.93-1.15-4.38-1.65-6.29h-0.1c-0.48,1.92-0.98,4.4-1.51,6.3l-1.97,6.93H757.06z
				 M780.55,483.82v12.56h12.27v-12.56h7.44v32.66h-7.44v-13.67h-12.27v13.67h-7.44v-32.66H780.55z M814.39,508.1l-2.32,8.39h-7.7
				l10.05-32.66h9.74l10.25,32.66h-8.02l-2.53-8.39H814.39z M822.76,502.59l-2.05-6.94c-0.57-1.93-1.15-4.38-1.65-6.29h-0.1
				c-0.48,1.92-0.98,4.4-1.51,6.3l-1.97,6.93H822.76z M848.7,483.56c4.88,0,8.3,0.74,10.65,2.59c1.97,1.55,3.05,3.84,3.05,6.85
				c0,4.14-2.98,7.02-5.81,8.03v0.15c2.28,0.92,3.57,3.08,4.4,6.08c1.02,3.7,2.01,7.95,2.66,9.22h-7.62
				c-0.51-0.95-1.33-3.57-2.26-7.61c-0.92-4.08-2.3-5.17-5.36-5.21h-2.21v12.83h-7.38v-32.22
				C841.2,483.87,844.74,483.56,848.7,483.56z M846.18,498.31h2.92c3.69,0,5.9-1.87,5.9-4.71c0-2.99-2.07-4.52-5.47-4.54
				c-1.78,0-2.83,0.12-3.35,0.25V498.31z M875.22,483.82v32.66h-7.44v-32.66H875.22z M901.25,502.67h-12.11v7.77h13.54v6.05h-20.99
				v-32.66h20.28v6.05h-12.84v6.8h12.11V502.67z M907.78,516.48v-32.66h8.67l6.83,11.98c1.97,3.42,3.9,7.51,5.38,11.2l0.13-0.02
				c-0.46-4.32-0.6-8.71-0.6-13.65v-9.52h6.83v32.66h-7.8l-7.06-12.58c-1.96-3.52-4.12-7.71-5.72-11.54l-0.16,0.02
				c0.23,4.33,0.32,8.95,0.32,14.29v9.82H907.78z M941.48,516.48v-32.66h8.67l6.83,11.98c1.97,3.42,3.9,7.51,5.38,11.2l0.13-0.02
				c-0.46-4.32-0.6-8.71-0.6-13.65v-9.52h6.83v32.66h-7.8l-7.06-12.58c-1.96-3.52-4.12-7.71-5.72-11.54l-0.16,0.02
				c0.23,4.33,0.32,8.95,0.32,14.29v9.82H941.48z M994.74,502.67h-12.11v7.77h13.54v6.05h-20.99v-32.66h20.28v6.05h-12.84v6.8h12.11
				V502.67z"/>
			<path clip-path="url(#SVGID_2_)" fill="#FFFFFF" d="M329.15,536.83c3.31,0,5.71,0.69,7.31,2.05c1.53,1.26,2.53,3.38,2.53,5.87
				c0,2.49-0.76,4.61-2.18,6.01c-1.85,1.84-4.6,2.69-7.76,2.69c-0.72,0-1.35-0.05-1.84-0.13v9.09h-5.35v-25.05
				C323.53,537.07,325.86,536.83,329.15,536.83z M329.01,549.04c2.87,0,4.64-1.54,4.64-4.12c0-2.34-1.5-3.73-4.23-3.73
				c-1.07,0-1.81,0.09-2.2,0.19v7.5C327.66,548.99,328.22,549.04,329.01,549.04z M364.28,549.47c0,8.33-4.73,13.36-11.71,13.36
				c-7.08,0-11.25-5.7-11.25-12.94c0-7.59,4.59-13.28,11.63-13.28C360.27,536.62,364.28,542.45,364.28,549.47z M347.03,549.79
				c0,4.97,2.21,8.48,5.81,8.48c3.65,0,5.74-3.67,5.74-8.6c0-4.58-2.04-8.49-5.75-8.49C349.16,541.18,347.03,544.85,347.03,549.79z
				 M373.19,537.03v14.6c0,4.39,1.59,6.62,4.33,6.62c2.84,0,4.4-2.13,4.4-6.62v-14.6h5.4v14.25c0,7.83-3.73,11.56-9.98,11.56
				c-6.03,0-9.55-3.56-9.55-11.62v-14.18H373.19z M399.15,536.83c3.54,0,6.02,0.57,7.73,2.01c1.43,1.2,2.21,2.99,2.21,5.32
				c0,3.22-2.16,5.46-4.22,6.24v0.12c1.66,0.71,2.59,2.39,3.19,4.73c0.74,2.87,1.46,6.18,1.93,7.17h-5.53
				c-0.37-0.73-0.96-2.78-1.64-5.92c-0.67-3.17-1.67-4.02-3.89-4.05h-1.61v9.97h-5.35v-25.04
				C393.7,537.07,396.28,536.83,399.15,536.83z M397.32,548.3h2.12c2.68,0,4.28-1.45,4.28-3.66c0-2.32-1.5-3.51-3.97-3.53
				c-1.29,0-2.05,0.09-2.43,0.19V548.3z M420.12,537.03h5.4v20.58h9.5v4.81h-14.9V537.03z M440.85,536.62
				c-1.1,3.68-2.64,7.37-4.26,10.2l-3.26,0.31c1.08-3.22,1.99-6.87,2.48-10.17L440.85,536.62z M449.38,537.03v25.39h-5.4v-25.39
				H449.38z M454.07,562.42v-25.39h6.29l4.96,9.31c1.43,2.66,2.83,5.84,3.9,8.71l0.09-0.01c-0.33-3.36-0.44-6.77-0.44-10.61v-7.4
				h4.96v25.39h-5.66l-5.12-9.78c-1.42-2.74-2.99-5.99-4.15-8.97l-0.12,0.01c0.17,3.36,0.24,6.96,0.24,11.1v7.63H454.07z
				 M484.14,562.42l-7.66-25.39h5.91l2.89,10.75c0.84,3.02,1.56,5.89,2.16,9.06h0.07c0.6-3.05,1.38-6.06,2.19-8.97l3.03-10.84h5.74
				l-8.03,25.39H484.14z M515.21,551.68h-8.79v6.04h9.83v4.7h-15.23v-25.39h14.71v4.7h-9.31v5.29h8.79V551.68z M526.09,558.09
				c2.48,0,3.8-1.09,3.8-2.77c0-1.56-1.14-2.48-4-3.55c-3.98-1.5-6.59-3.81-6.59-7.52c0-4.33,3.42-7.62,9.03-7.62
				c2.72,0,4.69,0.58,6.1,1.28l-1.19,4.6c-0.95-0.48-2.67-1.21-4.99-1.21c-2.35,0-3.47,1.16-3.47,2.46c0,1.61,1.32,2.33,4.42,3.57
				c4.23,1.68,6.19,4.01,6.19,7.6c0,4.24-3.05,7.88-9.63,7.88c-2.71,0-5.42-0.78-6.75-1.58l1.09-4.74
				C521.54,557.31,523.78,558.09,526.09,558.09z M537.22,541.85v-4.82h18.38v4.82h-6.54v20.57h-5.4v-20.57H537.22z M563.85,537.03
				v25.39h-5.4v-25.39H563.85z M574.71,558.09c2.48,0,3.8-1.09,3.8-2.77c0-1.56-1.14-2.48-4-3.55c-3.98-1.5-6.59-3.81-6.59-7.52
				c0-4.33,3.42-7.62,9.03-7.62c2.72,0,4.69,0.58,6.1,1.28l-1.19,4.6c-0.95-0.48-2.67-1.21-4.99-1.21c-2.35,0-3.47,1.16-3.47,2.46
				c0,1.61,1.32,2.33,4.42,3.57c4.23,1.68,6.19,4.01,6.19,7.6c0,4.24-3.05,7.88-9.63,7.88c-2.71,0-5.42-0.78-6.75-1.58l1.09-4.74
				C570.15,557.31,572.4,558.09,574.71,558.09z M593.83,558.09c2.48,0,3.8-1.09,3.8-2.77c0-1.56-1.14-2.48-4-3.55
				c-3.98-1.5-6.59-3.81-6.59-7.52c0-4.33,3.42-7.62,9.03-7.62c2.72,0,4.69,0.58,6.1,1.28l-1.19,4.6c-0.95-0.48-2.67-1.21-4.99-1.21
				c-2.35,0-3.47,1.16-3.47,2.46c0,1.61,1.32,2.33,4.42,3.57c4.23,1.68,6.19,4.01,6.19,7.6c0,4.24-3.05,7.88-9.63,7.88
				c-2.71,0-5.42-0.78-6.75-1.58l1.09-4.74C589.27,557.31,591.52,558.09,593.83,558.09z M620.97,551.68h-8.79v6.04h9.83v4.7h-15.23
				v-25.39h14.71v4.7h-9.31v5.29h8.79V551.68z M645.88,552.71c-0.11-3.08-0.22-6.74-0.21-10.46h-0.1c-0.76,3.25-1.77,6.86-2.66,9.86
				l-2.93,9.9h-4.2l-2.57-9.81c-0.77-2.99-1.56-6.6-2.16-9.94h-0.07c-0.12,3.45-0.25,7.37-0.4,10.54l-0.45,9.64h-5l1.53-25.39h7.2
				l2.33,8.49c0.75,2.91,1.49,6.1,2.03,9.08h0.11c0.65-2.94,1.46-6.29,2.27-9.12l2.54-8.45h7.06l1.28,25.39h-5.25L645.88,552.71z
				 M669.83,551.68h-8.79v6.04h9.83v4.7h-15.23v-25.39h14.71v4.7h-9.31v5.29h8.79V551.68z M674.55,562.42v-25.39h6.29l4.96,9.31
				c1.43,2.66,2.83,5.84,3.9,8.71l0.09-0.01c-0.33-3.36-0.44-6.77-0.44-10.61v-7.4h4.96v25.39h-5.66l-5.12-9.78
				c-1.42-2.74-2.99-5.99-4.15-8.97l-0.12,0.01c0.17,3.36,0.24,6.96,0.24,11.1v7.63H674.55z M697.15,541.85v-4.82h18.38v4.82H709
				v20.57h-5.4v-20.57H697.15z M739.73,551.68h-8.79v6.04h9.83v4.7h-15.23v-25.39h14.71v4.7h-9.31v5.29h8.79V551.68z M742.79,541.85
				v-4.82h18.38v4.82h-6.54v20.57h-5.4v-20.57H742.79z M771.18,537.03h5.4v20.58h9.5v4.81h-14.9V537.03z M803.46,551.68h-8.79v6.04
				h9.83v4.7h-15.23v-25.39h14.71v4.7h-9.31v5.29h8.79V551.68z M832.85,561.72c-0.97,0.51-3.23,1.1-6.11,1.1
				c-8.27,0-12.53-5.49-12.53-12.73c0-8.66,5.84-13.45,13.05-13.45c2.81,0,4.94,0.58,5.88,1.13l-1.1,4.54
				c-1.07-0.5-2.61-0.95-4.54-0.95c-4.26,0-7.6,2.76-7.6,8.4c0,5.09,2.82,8.29,7.63,8.29c1.66,0,3.44-0.35,4.52-0.82L832.85,561.72z
				 M857.18,549.47c0,8.33-4.73,13.36-11.71,13.36c-7.08,0-11.25-5.7-11.25-12.94c0-7.59,4.59-13.28,11.63-13.28
				C853.18,536.62,857.18,542.45,857.18,549.47z M839.93,549.79c0,4.97,2.21,8.48,5.81,8.48c3.65,0,5.74-3.67,5.74-8.6
				c0-4.58-2.04-8.49-5.75-8.49C842.07,541.18,839.93,544.85,839.93,549.79z M880.91,552.71c-0.11-3.08-0.22-6.74-0.21-10.46h-0.1
				c-0.76,3.25-1.77,6.86-2.66,9.86l-2.93,9.9h-4.2l-2.57-9.81c-0.77-2.99-1.56-6.6-2.16-9.94h-0.07c-0.12,3.45-0.25,7.37-0.4,10.54
				l-0.45,9.64h-5l1.53-25.39h7.2l2.33,8.49c0.75,2.91,1.49,6.1,2.03,9.08h0.11c0.65-2.94,1.46-6.29,2.27-9.12l2.54-8.45h7.06
				l1.28,25.39h-5.25L880.91,552.71z M910.87,552.71c-0.11-3.08-0.22-6.74-0.21-10.46h-0.1c-0.76,3.25-1.77,6.86-2.66,9.86
				l-2.93,9.9h-4.2l-2.57-9.81c-0.77-2.99-1.56-6.6-2.16-9.94h-0.07c-0.12,3.45-0.25,7.37-0.4,10.54l-0.45,9.64h-5l1.53-25.39h7.2
				l2.33,8.49c0.75,2.91,1.49,6.1,2.03,9.08h0.11c0.65-2.94,1.46-6.29,2.27-9.12l2.54-8.45h7.06l1.28,25.39h-5.25L910.87,552.71z
				 M934.82,551.68h-8.79v6.04h9.83v4.7h-15.23v-25.39h14.71v4.7h-9.31v5.29h8.79V551.68z M946.72,536.83
				c3.54,0,6.02,0.57,7.73,2.01c1.43,1.2,2.21,2.99,2.21,5.32c0,3.22-2.16,5.46-4.22,6.24v0.12c1.66,0.71,2.59,2.39,3.19,4.73
				c0.74,2.87,1.46,6.18,1.93,7.17h-5.53c-0.37-0.73-0.96-2.78-1.64-5.92c-0.67-3.17-1.67-4.02-3.89-4.05h-1.61v9.97h-5.35v-25.04
				C941.28,537.07,943.85,536.83,946.72,536.83z M944.89,548.3h2.12c2.68,0,4.28-1.45,4.28-3.66c0-2.32-1.5-3.51-3.97-3.53
				c-1.29,0-2.05,0.09-2.43,0.19V548.3z M977.92,561.72c-0.97,0.51-3.23,1.1-6.11,1.1c-8.27,0-12.53-5.49-12.53-12.73
				c0-8.66,5.84-13.45,13.05-13.45c2.81,0,4.94,0.58,5.88,1.13l-1.1,4.54c-1.07-0.5-2.61-0.95-4.54-0.95c-4.26,0-7.6,2.76-7.6,8.4
				c0,5.09,2.82,8.29,7.63,8.29c1.66,0,3.44-0.35,4.52-0.82L977.92,561.72z M995.65,551.68h-8.79v6.04h9.83v4.7h-15.23v-25.39h14.71
				v4.7h-9.31v5.29h8.79V551.68z"/>
		</g>
	</g>
</g>
<g id="Viruses">
</g>
</svg>
