<?xml version="1.0" encoding="utf-8"?>
<!-- Generator: Adobe Illustrator 24.1.2, SVG Export Plug-In . SVG Version: 6.00 Build 0)  -->
<svg version="1.1" baseProfile="basic" xmlns="http://www.w3.org/2000/svg" xmlns:xlink="http://www.w3.org/1999/xlink" x="0px"
	 y="0px" viewBox="0 0 500 500" xml:space="preserve">
<g id="Background_Simple">
</g>
<g id="Shadow">
</g>
<g id="Character">
</g>
<g id="Shield">
	<text transform="matrix(1 0 0 1 205.3276 846.9761)" fill="#FFFFFF" font-size="60.8805px">ctopus</text>
	<path fill="#FFFFFF" d="M419.21,806.57c-3.67,0-6.65,2.76-6.65,6.16c0,3.4,2.98,6.16,6.65,6.16c3.67,0,6.65-2.76,6.65-6.16
		C425.86,809.33,422.88,806.57,419.21,806.57z M419.21,817.99c-3.14,0-5.68-2.36-5.68-5.26c0-2.91,2.54-5.26,5.68-5.26
		c3.13,0,5.67,2.36,5.67,5.26C424.88,815.64,422.34,817.99,419.21,817.99z"/>
	<text transform="matrix(1 0 0 1 416.6792 815.4731)" fill="#FFFFFF" font-size="8.5858px">R</text>
	<path fill="#FFFFFF" d="M204.16,818.82c0,5.03-0.79,9.81-2.37,14.35c-1.57,4.53-4.24,8.79-8,12.76c-3.76,3.97-8.54,6.94-14.34,8.91
		c-5.81,1.98-11.95,2.96-18.43,2.96c-5.97,0-11.71-0.87-17.2-2.6c-5.5-1.74-10.1-4.28-13.79-7.62c-3.68-3.33-6.46-7.33-8.31-11.98
		c-1.86-4.65-2.79-9.54-2.79-14.66s0.91-10.01,2.72-14.66c1.8-4.66,4.67-8.84,8.6-12.55c3.92-3.71,8.77-6.57,14.55-8.57
		c5.78-1.99,11.8-2.99,18.05-2.99c5.82,0,11.43,0.89,16.81,2.68c5.38,1.78,9.93,4.36,13.64,7.71c3.71,3.37,6.45,7.29,8.21,11.78
		S204.16,813.65,204.16,818.82z"/>
	<g>
		<path fill="#58BA68" d="M195.85,854.16c-0.97,1.24-2.12,2.33-0.77,3.82c1.02,1.12,2.81,1.5,4.08,0.85
			c1.9-0.96,2.29-3.58,0.78-5.31c-1.45-1.66-3.39-1.91-5.36-1.5c-1.72,0.36-3.45,0.89-5.03,1.66c-3.55,1.72-7.02,3.62-10.51,5.46
			c-0.44,0.23-0.83,0.55-1.38,0.92c1.69,1.25,3.37,2.27,4.77,3.59c1.91,1.79,3.9,3.61,5.32,5.77c2.63,4.02,2.65,8.35,0.09,12.47
			c-1.96,3.14-5.77,4.13-9.24,2.66c-3.02-1.28-4.7-4.82-3.94-8.3c0.71-3.24,2.76-3.97,5.34-1.9c0.34,0.27,0.65,0.58,1.16,1.04
			c-1.68-0.01-3.27-0.32-3.72,1.6c-0.33,1.37,0.7,3.09,2.24,3.91c1.5,0.79,3.13,0.36,4.01-1.13c1.01-1.71,0.85-3.46-0.27-5.01
			c-0.76-1.05-1.73-1.99-2.76-2.79c-3.92-3.04-8.31-5.2-13.13-6.92c0,1.99,0.23,3.83-0.05,5.6c-0.6,3.87-4.52,7.19-8.41,7.38
			c-3.46,0.17-6.22-2.74-6.6-6.98c-0.03-0.34-0.04-0.69-0.02-1.03c0.07-1.53,0.26-3.13,1.9-3.73c1.73-0.63,3,0.47,4.26,1.66
			c-2.43,0.33-3.29,1.13-3.17,2.85c0.12,1.67,1.75,3.27,3.26,3.19c1.85-0.1,3.58-1.64,3.41-3.39c-0.12-1.25-0.54-2.62-1.26-3.63
			c-1.95-2.73-4.85-4.32-7.84-5.67c-0.38-0.17-1.16,0.03-1.5,0.34c-4.72,4.32-9.55,8.55-14.02,13.13c-1.63,1.68-2.84,4.1-3.42,6.39
			c-1.12,4.43,2.58,7.71,6.78,6.38c1.64-0.52,2.62-1.58,2.74-3.34c0.12-1.82-0.5-3.3-2.14-4.16c-1.52-0.8-2.88-0.33-4.07,0.79
			c-0.12,0.11-0.27,0.2-0.41,0.31c-0.14-3.87,3.24-6.17,6.92-4.73c3.38,1.31,5.53,5.49,4.81,9.34c-1.14,6.05-6.57,9.46-12.62,7.92
			c-8.04-2.05-12.29-9.56-9.96-17.7c1.81-6.32,5.65-11.45,9.73-16.42c1.51-1.84,3.12-3.61,4.7-5.44c-0.19-0.16-0.27-0.3-0.35-0.3
			c-6.79,0.35-13.23-1.87-19.85-2.7c-2.78-0.35-5.74-0.24-8.48,0.32c-3.06,0.63-4.17,3.2-2.73,5.58c0.53,0.88,1.8,1.61,2.84,1.78
			c0.8,0.14,2.02-0.48,2.6-1.15c1.13-1.3,0.56-2.65-1.58-4.29c1.68-0.62,3.26-0.94,4.69,0.29c1.04,0.89,1.14,3.24,0.19,4.84
			c-1.63,2.75-4.26,3.75-7.29,3.64c-3.05-0.12-5.17-1.88-6.09-4.72c-1.47-4.54,0.56-9.36,5.03-11.98c2.97-1.74,6.26-2.11,9.59-2.27
			c1.82-0.08,3.65-0.02,5.62-0.02c-0.1-0.56-0.08-0.91-0.21-1.18c-2.13-4.3-4.17-8.66-6.5-12.85c-0.85-1.54-2.29-2.85-3.7-3.95
			c-1.34-1.05-3.02-1.07-4.49,0.02c-1.27,0.94-2.12,2.15-1.65,3.83c0.33,1.21,2.27,2.37,3.75,2.3c1.12-0.05,1.82-0.66,1.96-1.79
			c0.08-0.61,0.01-1.23,0.01-1.91c1.9,1.09,2.75,2.64,2.37,4.17c-0.4,1.61-1.7,2.47-3.83,2.54c-4.66,0.14-8.1-2.45-8.42-6.34
			c-0.34-4.09,3.13-8.11,7.7-8.94c3.91-0.71,7.05,0.91,9.89,3.33c3.92,3.35,6.79,7.57,9.6,11.83c1.32,2,2.6,4.05,4.09,5.92
			c0.49,0.62,1.58,0.77,2.4,1.14c0.1-0.89,0.5-1.87,0.26-2.66c-2.11-6.86-2.85-13.78-1.14-20.82c3.35-13.8,17.12-21.16,30.99-16.44
			c8.61,2.93,14.88,8.38,16.7,17.69c1.5,7.66-0.77,14.6-5.48,20.59c-2.48,3.15-5.73,5.7-8.63,8.53c-0.85,0.83-2.68,1.39-1.92,2.75
			c0.36,0.65,2.44,0.83,3.53,0.51c4-1.18,7.93-2.59,11.84-4.05c4.79-1.79,9.62-2.57,14.6-0.98c5.15,1.65,7.94,6.31,6.51,10.83
			c-0.9,2.87-2.82,4.69-5.83,5.17c-2.62,0.42-4.9-0.3-6.59-2.42c-1.01-1.27-1.54-2.76-0.7-4.31
			C192.65,854.15,194.09,853.95,195.85,854.16z M170.36,833.61c-3.32,1.06-6.49,2.07-9.72,3.1c0.61,2.17,1.82,3.85,4.17,4.25
			c2.17,0.37,3.95-0.5,5.19-2.3C171.14,837.04,171.19,835.3,170.36,833.61z M153.01,834.25c-2.06-2.82-4-5.46-6-8.2
			c-1.77,1.02-2.78,2.56-2.69,4.71c0.1,2.21,1.22,3.83,3.24,4.66C149.63,836.27,151.44,835.56,153.01,834.25z"/>
	</g>
	<g>
		<g>
			<defs>
				<rect id="SVGID_1_" x="635.1" y="567.58" width="503.79" height="220.59"/>
			</defs>
			<clipPath id="SVGID_2_">
				<use xlink:href="#SVGID_1_"  overflow="visible"/>
			</clipPath>
			<g clip-path="url(#SVGID_2_)">
				<defs>
					<rect id="SVGID_3_" x="635.1" y="567.58" width="503.79" height="220.59"/>
				</defs>
				<clipPath id="SVGID_4_">
					<use xlink:href="#SVGID_3_"  overflow="visible"/>
				</clipPath>
				<path clip-path="url(#SVGID_4_)" fill="#FFFFFF" d="M715.67,714.08c6.22-6.19,12.45-12.39,18.68-18.59
					c3.18-3.16,6.38-6.31,9.53-9.5c4.33-4.38,4.45-11.12,0.16-15.5c-6.03-6.15-12.16-12.2-18.24-18.29
					c-0.29-0.29-0.56-0.6-0.86-0.92c2.58-2.57,5.12-5.09,7.86-7.82c1.52,1.57,3.03,3.16,4.58,4.71c4.99,4.99,9.97,9.98,14.99,14.95
					c8.44,8.37,8.67,21.17,0.38,29.6c-7.25,7.38-14.61,14.66-21.96,21.93C726.3,719.09,719.61,718.85,715.67,714.08"/>
				<path clip-path="url(#SVGID_4_)" fill="#FFFFFF" d="M712.69,642.17c-5.28,5.26-10.58,10.53-15.87,15.8
					c-3.94,3.93-7.89,7.85-11.81,11.8c-5.07,5.1-5.09,11.56-0.03,16.67c6.1,6.16,12.24,12.29,18.35,18.42
					c-2.6,2.48-5.21,4.97-8.15,7.78c-2.91-3.02-6.08-6.35-9.29-9.63c-3.31-3.37-6.66-6.7-9.99-10.05
					c-8.35-8.36-8.39-21.25-0.07-29.61c7.17-7.2,14.37-14.39,21.57-21.57C701.87,637.32,708.93,637.44,712.69,642.17"/>
				<path clip-path="url(#SVGID_4_)" fill="#FFFFFF" d="M694.88,677.8c6.22,6.18,12.06,12,17.89,17.8
					c-2.69,2.67-5.22,5.18-7.92,7.86c-2.28-2.26-4.64-4.6-6.99-6.94c-3.43-3.42-6.85-6.86-10.29-10.27
					c-5.13-5.09-5.13-11.07,0.01-16.21c9.43-9.42,18.85-18.86,28.29-28.26c4.49-4.47,11.07-4.38,15.01,0.03
					C718.92,653.76,706.97,665.72,694.88,677.8"/>
				<path clip-path="url(#SVGID_4_)" fill="#FFFFFF" d="M733.59,678.06c-6.12-6.05-11.97-11.83-17.65-17.44
					c2.55-2.62,5.04-5.17,7.67-7.87c3.81,3.83,7.63,7.69,11.45,11.53c2.07,2.08,4.15,4.14,6.21,6.22c4.53,4.56,4.55,10.67-0.04,15.3
					c-8.1,8.15-16.25,16.25-24.38,24.36c-1.69,1.69-3.33,3.44-5.12,5.04c-4.27,3.82-10.65,3.36-14.36-0.92
					C709.34,702.32,721.29,690.36,733.59,678.06"/>
				<path clip-path="url(#SVGID_4_)" fill="#FFFFFF" d="M723.31,682.81c-0.1-0.13-0.08-0.29-0.11-0.45
					c-0.02-0.09-0.05-0.18-0.1-0.24c-0.01,0.01-0.01,0.01-0.02,0.02c0.01-0.04-0.04-0.04-0.02-0.09c0,0,0,0.01,0.01,0.02
					c-0.01-0.03-0.01-0.02-0.03-0.04c0.01,0,0.01,0,0.01,0c-0.02-0.01-0.01-0.01-0.02-0.01c0-0.01-0.01-0.03-0.02-0.04
					c-0.01,0.02-0.01,0.02-0.03,0.02c-0.01-0.02,0,0-0.01-0.02c0-0.01,0.01-0.01,0.01-0.02c0.01,0.01,0.01,0,0.03,0.02
					c-0.01-0.04-0.03-0.1-0.05-0.04c0.01,0.01,0.01,0.01,0.01,0.02c0,0,0,0,0,0c-0.03-0.01-0.01,0-0.03,0
					c0.02,0,0.02,0.01,0.03,0.01c-0.01,0.03-0.03,0.03-0.05,0.05c-0.01,0.01,0,0.04-0.02,0.05c-0.01,0.01-0.03-0.03-0.06-0.01
					c0.04,0.03,0.06,0.08,0.05,0.14c-0.01,0.05-0.05,0.2-0.12,0.11c0.01,0.01,0.01,0.03,0.02,0.05c-0.02,0-0.02,0-0.04,0.02
					c-0.01-0.01,0-0.01-0.02-0.01c0.01,0.04,0,0.08-0.04,0.06c-0.01-0.01-0.01-0.05-0.04-0.06c0,0.01,0,0.01,0,0.02
					c0-0.01-0.01-0.01-0.01-0.02c-0.02,0.01-0.03,0.03-0.02,0.06c-0.03,0.02-0.01,0.06,0.02,0.07c0,0-0.01,0.01-0.02,0.01
					c0.04,0.02,0.03,0.07,0.01,0.09c0.01-0.03,0.01-0.06-0.02-0.06c0.03,0.05-0.02,0.03-0.04,0.06c-0.02,0.03-0.01,0.06,0,0.08
					c0.01,0,0.01-0.01,0.01-0.01c0.03,0.01,0.07,0.01,0.05,0.06c-0.01-0.04-0.01-0.02-0.02-0.03c0,0.01,0,0.01,0,0.02
					c-0.01-0.02-0.02-0.02-0.03-0.04c-0.02,0.03-0.05,0.12-0.08,0.14c-0.05,0.03,0.02-0.07-0.01-0.11
					c-0.02,0.01-0.04,0.03-0.05,0.05c0.01,0,0.01,0,0.02,0c-0.03,0.03-0.1,0.09-0.07,0.13c0.02,0.01,0.02,0.01,0.03,0.03
					c-0.02,0.01-0.06,0.01-0.08,0.04c0.01-0.05,0.04-0.05,0.01-0.08c-0.03-0.03-0.04,0.01-0.1,0.03c0,0,0.01,0,0.01,0.01
					c-0.02,0.01-0.03,0.01-0.05,0.03c-0.04,0.01-0.04,0.06-0.05,0.09c0.03,0.01,0.04,0.01,0.05,0.04c-0.01-0.01-0.01-0.01-0.02-0.02
					c-0.01,0.02,0,0.01-0.01,0.01c0,0,0,0.01,0,0.01c-0.02-0.02-0.04-0.14-0.09-0.05c0.01,0,0.01-0.01,0.02-0.01
					c0,0.01-0.01,0.01,0,0.02c-0.07-0.04-0.1-0.02-0.13,0.05c0-0.01,0-0.01-0.01,0c0-0.02,0-0.01,0-0.03
					c-0.05,0-0.08,0.09-0.08-0.01c-0.06,0.02-0.07,0.07-0.13,0.08c-0.14,0.02-0.07,0-0.1,0.11c0-0.01,0-0.01,0-0.01
					c0.02,0.07-0.09,0.17-0.12,0.23c-0.03,0.07,0,0.11,0,0.18c0,0.09,0.05,0.16,0.07,0.25c0.01,0.05,0,0.09,0.04,0.13
					c0.04,0.04,0,0.06,0,0.1c0,0.03,0.02,0.07,0.01,0.09c-0.02,0.05-0.06,0.1-0.08,0.14l0-0.01c-0.01,0.02-0.02,0.05-0.03,0.07
					c-0.02,0.03-0.04,0.1-0.06,0.13c-0.03,0.04-0.06,0.02-0.09,0.04c-0.01,0.03-0.01,0.07-0.01,0.11c-0.03,0-0.04,0.04-0.04,0.08
					c0-0.01,0-0.01,0-0.02c-0.02,0.04-0.02,0.08,0,0.11c-0.04,0,0.01,0.16,0.04,0.2c0.03,0.06,0.09,0.13,0.08,0.19
					c0,0.01-0.02,0.04-0.02,0.06s0.01,0.05,0.01,0.06c0.01,0.08,0.01,0.1,0.05,0.16c0.02,0.04,0.02,0.1,0.05,0.13
					c0.02,0.03,0.08,0.04,0.1,0.07c-0.01-0.01-0.02-0.01-0.03-0.02c0.02,0.05,0.06,0.04,0.1,0.04c0.04,0,0.05,0.03,0.08,0.05
					c0.08,0.05,0.14,0.03,0.21-0.02c0.1-0.06,0.18-0.05,0.27-0.08c0.04-0.01,0.08-0.04,0.09-0.08c0,0.01,0,0.01,0.01,0.02
					c0.01-0.07,0.06-0.17,0.08-0.23c0.02-0.04,0.08-0.13,0.04-0.16c0,0,0-0.01,0.01-0.01c0,0,0,0.01,0.01,0.01
					c0.04-0.11,0.05-0.22,0.08-0.33c0.03-0.11,0.08-0.22,0.12-0.32c0.02-0.04,0.03-0.1,0.03-0.13c0.01-0.05,0.1-0.24,0.08-0.28
					c0.01,0,0.01,0,0.01,0.01c0.05-0.17,0.14-0.36,0.17-0.52c0.03-0.13-0.05-0.33,0.11-0.37c-0.06-0.01,0-0.06,0.01-0.1
					c0.01-0.06-0.03-0.08-0.05-0.12c0-0.01,0.01-0.04,0.01-0.06c0-0.02-0.01-0.04-0.01-0.05c0-0.04,0.03-0.08,0.07-0.06
					c0.03,0.02,0.01,0.16,0.08,0.15C723.28,683.01,723.32,682.86,723.31,682.81"/>
				<path clip-path="url(#SVGID_4_)" fill="#FFFFFF" d="M723.56,675.83c-0.02,0-0.04,0-0.06-0.02c0.01,0.01,0.01,0.03,0.01,0.03
					c-0.02,0.01-0.04,0.01-0.06,0c0.07-0.05-0.01-0.13,0.05-0.19c-0.08-0.02,0.02-0.15,0.03-0.19c-0.05-0.02-0.12-0.05-0.17-0.03
					c-0.03,0.02-0.05,0.06-0.09,0.09c-0.03,0.03-0.08,0.04-0.12,0.04c-0.02,0-0.05,0.01-0.07,0.01c-0.03,0-0.04,0.03-0.07,0.03
					c-0.11,0.01-0.22,0.01-0.31,0.04c-0.04,0.01-0.08,0.02-0.12,0.02c-0.04,0-0.08-0.03-0.12,0c-0.05,0.03-0.1,0.07-0.16,0.1
					c-0.1,0.04-0.13,0-0.23-0.01c-0.03,0-0.13,0.03-0.16,0.06c-0.05,0.05-0.19,0.1-0.26,0.06c-0.07-0.04-0.25-0.17-0.23-0.26
					c-0.02,0.01-0.04-0.01-0.06-0.03c0,0,0,0.01,0,0.01c-0.02-0.02-0.03-0.02-0.04-0.04c-0.03,0.02-0.12-0.01-0.13,0.03
					c-0.02,0.01-0.04,0-0.05-0.02c0.05,0.02,0.04-0.03,0.08-0.05c0.03-0.01,0.06-0.02,0.08-0.03c0.1-0.05,0.07-0.08,0.06-0.18
					c-0.05-0.02-0.05-0.08-0.09-0.11c0,0.02-0.01,0.02-0.02,0.03c-0.03-0.01-0.08-0.08-0.11-0.12c-0.06,0.04-0.04-0.11-0.1-0.12
					c0.01,0.02,0.01,0.01,0.02,0.03c-0.02-0.02-0.03-0.04-0.06-0.06c-0.03-0.02-0.09-0.04-0.1-0.07c-0.04-0.08-0.15-0.22-0.24-0.18
					c-0.01-0.02-0.01-0.03-0.03-0.05c0,0,0.01,0,0.01,0c-0.01,0-0.01,0-0.01,0c-0.01-0.02-0.02-0.02-0.04-0.04
					c-0.01,0.01-0.02,0.01-0.03,0c-0.03,0.06-0.07-0.02-0.08-0.05c-0.01-0.05-0.01-0.04-0.06-0.1c-0.02,0.01-0.03,0.04-0.02,0.07
					c0.02,0.01,0.02,0.07-0.03,0.04c0.01,0.01-0.02-0.09-0.02-0.09c-0.01-0.04-0.03-0.01-0.05-0.04c0.01,0,0.01,0,0.01-0.01
					c-0.01,0,0,0-0.01,0c0.01-0.05-0.04-0.08-0.06-0.14c-0.01-0.05-0.01-0.11-0.02-0.15c-0.03-0.13-0.09-0.31-0.17-0.42
					c0,0.01,0.01,0.01,0,0.02c-0.02-0.02-0.02-0.02-0.04-0.04c-0.01,0-0.02,0-0.05,0c0.01-0.01,0.02-0.02,0.02-0.02
					c-0.03,0.03-0.08,0.01-0.05-0.03c-0.03-0.02-0.06-0.06-0.1-0.06c-0.01-0.05-0.04-0.01-0.06-0.02c-0.03-0.02-0.03-0.05-0.04-0.08
					c-0.02-0.07-0.04-0.14-0.04-0.22c0-0.03-0.01-0.08-0.01-0.11c0-0.03,0-0.08,0-0.1c0-0.08-0.04-0.15-0.03-0.21
					c0.01,0.02,0.02,0.03,0.04,0.05c-0.01,0-0.02-0.01-0.02-0.01c0.06,0.07-0.01-0.03-0.03-0.06c-0.05-0.07-0.04-0.12-0.07-0.19
					c0.04-0.03-0.11-0.12-0.12-0.14c-0.04-0.04-0.06-0.05-0.11-0.08c-0.03-0.02-0.05-0.04-0.07-0.07c0,0.01,0.01,0.01,0.01,0.02
					c-0.06-0.05-0.06-0.17-0.07-0.24c-0.01-0.09,0-0.08,0.08-0.06c-0.02-0.03-0.05-0.04-0.08-0.07c0,0,0,0,0,0.01
					c-0.09-0.07-0.1-0.18-0.16-0.27c-0.08-0.13-0.15-0.26-0.21-0.4c-0.01-0.02-0.03-0.06-0.04-0.08c-0.01-0.02,0-0.04-0.01-0.06
					c0-0.01-0.02-0.05-0.03-0.08c-0.02-0.03-0.02-0.04-0.04-0.07c-0.02-0.03-0.03-0.06-0.05-0.09c0.01,0,0.01,0,0.02,0
					c0,0,0-0.01,0-0.01c0.01,0,0.01,0.01,0.01,0.01c-0.01-0.02-0.01-0.02-0.01-0.03c-0.01-0.01-0.01-0.01-0.02-0.03
					c0.01,0.01,0.02,0.01,0.03,0.02c-0.01-0.06-0.07-0.08-0.1-0.12c-0.03-0.04-0.07-0.08-0.1-0.12c-0.02-0.04-0.03-0.08-0.06-0.11
					c-0.01-0.01,0-0.07,0-0.09c-0.03-0.09-0.13-0.1-0.03-0.19c-0.01-0.02-0.01-0.03,0.02-0.02c0-0.01,0-0.01,0-0.02
					c0,0.04,0.03,0.11,0.04,0.17c0,0,0-0.01,0-0.01c0.02,0.03,0.06,0.08,0.09,0.12c0.04,0.05,0.02,0.12,0.05,0.16
					c-0.01-0.01,0-0.01,0-0.01c0,0.03,0.09,0.1,0.11,0.13c0.05,0.06,0.09,0.08,0.16,0.13c0,0,0-0.01,0,0
					c-0.01-0.01-0.01-0.01-0.01-0.02c0.05-0.04,0.05-0.07,0.06-0.14c0.01-0.06,0.04-0.12,0.05-0.18c0.01-0.06,0.04-0.13,0.06-0.18
					c0.03-0.1-0.06-0.26-0.09-0.36c-0.03-0.08-0.05-0.16-0.08-0.23c-0.05,0.04-0.12,0.05-0.17,0.06c-0.04,0.01-0.04-0.02-0.08,0.01
					c0,0,0.01,0,0.01,0c-0.01,0-0.01,0,0,0.01c-0.02,0-0.01,0-0.03,0c0,0,0,0,0,0c0,0,0.01,0,0.01,0c-0.01,0-0.02,0-0.02,0
					c0-0.01,0-0.01,0-0.02c0,0,0,0,0,0c0-0.01,0.01,0,0.01-0.01c0-0.02-0.01-0.02-0.01-0.03c-0.02,0.01-0.03,0.02-0.05,0.03
					c0.02-0.01,0.01,0,0.03-0.01c-0.01,0.02-0.01,0.02-0.03,0.02c0-0.01,0,0-0.01-0.01c0,0,0.01,0,0.01,0c0,0-0.01,0-0.01,0
					c0,0-0.04,0.01-0.06,0.01c0,0,0,0-0.01,0c0.03-0.01,0.05-0.02,0.07-0.03c-0.11,0.07-0.11-0.03-0.2-0.04
					c0.02,0.01,0.02,0.02,0.02,0.04c-0.01,0.02-0.03,0.02-0.04,0.02c0,0.01,0.01,0.01,0.01,0.01c-0.01-0.01-0.01,0-0.02-0.01
					c0-0.01,0.01,0,0-0.02c0,0-0.01,0.01-0.01,0c0.01-0.03,0-0.04-0.02-0.02c0-0.01,0-0.01-0.01-0.01c0-0.01,0,0,0-0.01
					c-0.01,0-0.01,0-0.03-0.01c0,0,0,0-0.01,0c0.01-0.02,0-0.02,0.02-0.03c0,0-0.01-0.01-0.01-0.02c0,0,0.01,0,0.01,0
					c-0.01-0.01-0.01-0.01-0.02-0.01c0,0,0,0,0-0.01c0,0,0.01,0.01,0.01,0.01c0,0-0.01-0.02-0.01-0.02c0,0,0-0.01,0-0.01
					c0.03-0.01,0.03,0.04,0.06,0.06c0,0,0,0,0,0c0.01,0.01,0.02,0.01,0.03,0.02c-0.03-0.02-0.07-0.08-0.09-0.08
					c-0.06,0.02-0.06,0.03-0.12,0.01c-0.04-0.01-0.07-0.05-0.12-0.03c0.03,0.01,0.03,0.02,0.04,0.03c-0.02,0-0.08,0.02-0.1,0.03
					c-0.01,0-0.03,0-0.05,0c0.03-0.02,0.08-0.05,0.12-0.06c-0.05,0.02-0.12,0.06-0.16,0.03c0,0.01,0,0.01,0.01,0.02
					c0,0-0.01-0.01-0.02-0.02c0.01,0.03-0.01,0.06-0.04,0.07c0,0,0.02,0,0.02,0s0,0,0,0c0.02,0,0,0,0.01,0.01c-0.01,0,0-0.01,0-0.01
					c-0.02,0.01-0.04,0.03-0.03,0c-0.01-0.01-0.02,0-0.03-0.02c0,0-0.01,0.01-0.01,0.01c-0.02,0.01-0.04,0.03-0.05,0.04
					c-0.02,0.03-0.13,0.11-0.18,0.12c-0.08,0.01-0.13-0.06-0.2-0.08c-0.04-0.01-0.11-0.02-0.15-0.02c-0.01,0,0-0.02-0.01-0.03
					c-0.02,0-0.04,0.03-0.06,0.02c-0.02-0.01-0.05-0.03-0.07-0.04c-0.08-0.05-0.21-0.05-0.32-0.08c-0.09-0.03-0.16,0.02-0.25,0.01
					c-0.04,0-0.04-0.12-0.07-0.14c-0.06-0.04-0.27,0.02-0.27-0.04c-0.06-0.03-0.13-0.02-0.19-0.04c0,0.01,0,0.01,0,0.02
					c-0.02-0.03-0.07-0.04-0.06-0.09c0.01,0,0,0.01,0.01,0.01c-0.01-0.09-0.01-0.06-0.08-0.1c-0.03-0.02-0.16-0.08-0.19-0.08
					c-0.02,0-0.07,0.01-0.1,0.01c-0.01,0-0.02-0.01-0.04-0.01c-0.03,0-0.04,0.04-0.06,0.05c-0.05,0.02-0.09,0-0.14,0.03
					c-0.05,0.03-0.11,0.05-0.15,0.09c-0.06,0.06-0.12,0.13-0.12,0.22c0,0.08,0.07,0.14,0.06,0.22c-0.02,0.17-0.29,0.33-0.42,0.18
					c-0.11-0.13-0.3-0.19-0.46-0.23c-0.14-0.03-0.27,0-0.36-0.13c-0.05-0.06-0.06-0.15-0.07-0.22c-0.02-0.07-0.17-0.04-0.22-0.07
					c-0.08-0.04-0.12-0.09-0.22-0.09c-0.04,0-0.07-0.04-0.12-0.04c-0.04,0-0.08,0.03-0.12,0.04c-0.13,0.01-0.18-0.07-0.29-0.11
					c0.01,0,0.02,0.01,0.03,0.02c-0.05,0-0.08-0.04-0.12-0.06c0.01,0.01,0.01,0.01,0.02,0.02c-0.04,0-0.08,0-0.08-0.04
					c0.01,0,0.03,0.01,0.04,0.01c-0.08-0.02-0.02-0.08-0.08-0.11c-0.04-0.02-0.03,0.08-0.08,0.05c-0.04-0.02,0.03-0.04,0.01-0.06
					c-0.02-0.02-0.05,0.01-0.08,0c-0.06-0.01-0.12-0.1-0.12-0.16c0-0.04,0.04-0.06,0.07-0.09c0.03-0.02,0.07-0.05,0.09-0.07
					c0.02-0.02,0.08-0.05,0.08-0.09c0-0.03,0.04-0.1,0.07-0.11c-0.04-0.02-0.04-0.06-0.02-0.09c-0.02-0.02-0.02-0.01-0.01-0.04
					c-0.05-0.04-0.13-0.06-0.15-0.14c-0.01-0.03-0.01-0.1,0.02-0.12c0.03-0.02,0.06-0.01,0.08-0.05c0.01-0.03,0.03-0.07,0.05-0.09
					c0.03-0.02,0.02-0.03,0-0.06c-0.02-0.04-0.01-0.02-0.05-0.01c-0.04,0.02-0.14,0.15-0.17,0.07c0,0-0.02,0.01-0.02,0.01
					c0.09-0.03-0.04-0.08,0.01-0.1c-0.01-0.01-0.01-0.02-0.03-0.02c0.02,0,0.02-0.01,0.04-0.01c-0.04-0.03-0.09-0.04-0.12-0.02
					c0.06,0.01,0,0.04-0.01,0.02c-0.01-0.02,0.04-0.05,0.01-0.05c-0.05,0-0.13,0.02-0.17,0.04c-0.07,0.04-0.11,0.09-0.2,0.1
					c-0.01,0-0.02-0.01-0.03-0.01c-0.02,0-0.04,0.01-0.06,0.01c-0.04,0.01-0.11,0.02-0.08-0.04c-0.05,0.02-0.11-0.03-0.17-0.03
					c0.07,0.06-0.07,0.05-0.08,0.05c-0.03-0.01-0.07-0.03-0.08-0.04c-0.02-0.01-0.03-0.03-0.06-0.01c-0.03,0.02-0.02,0.04-0.04,0.06
					c-0.04,0.03-0.1,0.01-0.14,0.03c-0.02,0.01-0.18,0.12-0.16,0.01c-0.09-0.03-0.16-0.04-0.26-0.04c-0.04,0-0.1-0.01-0.13,0.02
					c-0.03,0.03-0.09,0.03-0.12,0.01c-0.01,0.02-0.02,0.03-0.04,0.01c-0.03-0.03-0.04,0-0.06,0.01c-0.04,0.02-0.06,0.04-0.11,0.05
					c-0.02,0-0.02-0.02-0.05-0.01c-0.12,0.04-0.23,0.03-0.35,0.05c-0.06,0.01-0.18,0.08-0.22,0.13c-0.02,0.03-0.04,0.12-0.09,0.1
					c-0.03-0.02-0.05-0.04-0.09-0.03c-0.01,0.09-0.08,0.02-0.1,0.05c-0.01,0.02-0.05,0.02-0.07,0.04c-0.03,0.03-0.03,0.06-0.06,0.09
					c-0.02,0.02-0.08,0.05-0.1,0.06c-0.04,0.01-0.07,0.03-0.11,0.03c-0.03,0-0.07-0.01-0.1-0.02c-0.05,0-0.08,0.02-0.12-0.04
					c0.01,0.01,0.02,0.03,0.04,0.04c-0.05,0-0.06-0.07-0.06-0.11c-0.01,0.06-0.08,0.09-0.13,0.08c-0.03,0-0.06-0.01-0.08-0.02
					c-0.01,0-0.03,0.04-0.04,0c-0.1,0.01-0.16,0.05-0.26-0.02c-0.05-0.03-0.09-0.07-0.11-0.13c-0.01-0.02-0.02-0.07-0.05-0.08
					c-0.01,0-0.13,0.05-0.14,0.06c-0.05,0.06-0.07,0.21-0.1,0.28c-0.04,0.1-0.1,0.25-0.18,0.32c-0.08,0.06-0.17,0.1-0.27,0.14
					c-0.07,0.03-0.13,0.06-0.18,0.1c-0.05,0.05-0.16,0.16-0.17,0.22c-0.02,0.06,0,0.12-0.05,0.17c-0.04,0.05-0.06,0.1-0.09,0.16
					c-0.03,0.04,0,0.14,0,0.2c0,0.03-0.02,0.04-0.01,0.06c0,0.01,0.04,0.04,0.05,0.06c0.05,0.12-0.11,0.28-0.18,0.37
					c-0.06,0.08-0.14,0.11-0.21,0.17c-0.06,0.05-0.08,0.1-0.15,0.13c-0.05,0.02-0.09,0.05-0.14,0.06c-0.06,0.01-0.16,0.01-0.2,0.04
					c-0.05,0.03-0.06,0.11-0.09,0.16c-0.04,0.09-0.06,0.19-0.14,0.25c-0.07,0.05-0.16,0.06-0.19,0.14
					c-0.03,0.05-0.05,0.13-0.07,0.19c-0.03,0.07-0.02,0.13-0.03,0.19c-0.01,0.08-0.09,0.11-0.14,0.17
					c-0.06,0.07-0.13,0.11-0.18,0.19c0.02-0.01,0.05-0.05,0.06-0.08c0.01,0.06-0.08,0.19-0.12,0.25c0.03,0.01-0.02,0.07-0.03,0.1
					c-0.02,0.04-0.02,0.09-0.05,0.12c-0.02,0.02-0.04,0.01-0.06,0.03c-0.06,0.06-0.12,0.35-0.08,0.42c0.01-0.04,0.01-0.08,0.04-0.11
					c0.01,0.02,0.03,0.05,0.04,0.06c0.01,0.04,0.03,0.08,0.06,0.11c0-0.02,0.01-0.04,0-0.05c0.02,0.01,0.02,0.01,0.03,0.02
					c0,0-0.02,0-0.02,0.01c0.02,0.02,0.08,0.13,0.06,0.15c0.02,0.03,0,0.06-0.01,0.08c0.01,0,0.01-0.01,0.02-0.01
					c0.01,0.01-0.01,0.01,0,0.01c0,0.05-0.06,0.08-0.06,0.13c0.01-0.01,0.02-0.03,0.03-0.04c0,0.01-0.01,0.02-0.01,0.02
					c0.01-0.01,0.02-0.02,0.03-0.02c-0.01,0.03-0.04,0.05-0.07,0.05c0.01,0.03,0.03,0.03,0.05,0.05c0.03,0.05,0.04,0.08,0.06,0.13
					c0.05,0.17,0.04,0.32-0.03,0.48c-0.05,0.12-0.06,0.21-0.07,0.33c-0.01,0.11-0.16,0.29-0.27,0.31c0.01,0.01,0.02,0.02,0.03,0.03
					c0-0.01,0-0.02,0-0.02c0.09-0.03,0.18,0.17,0.18,0.25c0-0.04,0-0.06,0.03-0.07c-0.01,0.01-0.01,0.01-0.02,0.02
					c0.03,0,0.05-0.03,0.07-0.04c-0.01,0,0-0.02,0-0.01c0,0,0.02,0.01,0.02,0.01c-0.02,0-0.04,0.01-0.06,0.03c0,0.01,0.01,0,0.01,0
					c-0.01,0.01-0.01,0.01-0.03,0.02c-0.04-0.01-0.03,0.03-0.02,0.05c0.02-0.02,0.05-0.03,0.06-0.06c0,0.02,0,0.03,0,0.05
					c0,0-0.01,0-0.01-0.01c-0.04,0.01-0.03,0.08,0,0.03c-0.02,0.03,0,0.06,0,0.11c0.02,0.01,0.04,0.01,0.06,0
					c-0.01-0.01,0-0.01,0-0.01c0,0,0,0.01,0,0.01c0.04-0.04,0.13-0.04,0.18-0.04c0.02,0,0.07,0.01,0.08,0
					c-0.02,0.02-0.27-0.01-0.24,0.07c0.01,0,0.01,0,0.01,0c-0.02-0.01-0.05-0.01-0.08,0c0,0,0.01,0.01,0.02,0.02
					c0,0-0.01-0.01-0.01,0c-0.01-0.02-0.06-0.03-0.04-0.06c-0.01-0.01-0.02-0.01-0.03-0.02c-0.07,0.05,0,0.12-0.03,0.19
					c0,0,0.01,0,0.01,0c0,0.01-0.01,0.02-0.01,0.03c0.01-0.01,0.02,0,0.03,0c-0.05,0.03,0.01,0.05,0.03-0.02
					c-0.02,0.03-0.01,0.03,0.01,0.03c0,0,0.01,0.02,0.02,0.02c0-0.01,0-0.01,0-0.02c0,0,0,0.01,0.01,0.01
					c-0.01,0.04,0.11,0.02,0.12-0.02c0.02,0.05,0.04,0.02,0.08,0.03c0.07,0.01,0.02-0.06,0.09-0.06c-0.05,0.01-0.02,0.07-0.1,0.07
					c-0.07,0-0.15,0.01-0.21,0.01c-0.01-0.01-0.01-0.01-0.01-0.02c-0.06,0.05-0.08,0.05-0.01,0.09c0.03,0.02,0.06,0.06,0.08,0
					c0,0.01,0,0.02,0,0.02c0.02-0.02,0.04-0.03,0.07-0.04c-0.02,0.01-0.05,0.03-0.06,0.05c-0.03,0-0.02,0.03-0.01,0.05
					c0.03,0.03,0.04,0.02,0.07,0.02c0.03,0,0.04-0.03,0.08-0.02c0,0,0,0.01,0,0.01c-0.04-0.02-0.06,0.03-0.06,0.06
					c0.01-0.01,0.01-0.01,0.02-0.03c0,0-0.01,0.02,0,0.02c0.02-0.03,0.01-0.02,0.04-0.03c-0.02,0.01-0.01,0.01-0.03,0.03
					c0.04-0.02,0.08-0.05,0.12-0.06c0.02-0.01,0.04,0.03,0.06,0.01c0.02-0.02,0.03-0.01,0.05-0.01c-0.03,0.02-0.02,0.05,0.02,0.05
					c-0.03,0.01-0.05-0.01-0.04-0.05c-0.05,0.04-0.13-0.01-0.13,0.07c0.01,0,0.01-0.01,0.01-0.01c0,0-0.01,0.01,0,0.02
					c0,0,0.01-0.01,0.01-0.01c-0.01,0.02,0,0.02,0,0.04c0,0,0-0.01,0.01-0.01c0.01,0,0,0.01,0.01,0.01c0-0.01-0.01-0.01-0.01-0.02
					c0,0,0.01,0.01,0.01,0.02c0-0.01,0-0.02,0-0.02c0,0,0,0,0,0c0,0,0,0.01,0,0.01c0-0.01,0-0.01,0.01-0.01
					c0-0.01-0.01-0.01-0.01-0.02c0.01,0,0.01-0.01,0.01-0.01c0,0.01,0,0.01,0,0.02c0.01-0.01,0.01-0.01,0.01-0.02
					c0,0,0.01,0.01,0.01,0.01c-0.01,0.01-0.01,0-0.01,0.01c0.01,0,0.02,0,0.03-0.01c0,0.01-0.01,0.01-0.01,0.01
					c0,0,0.02-0.01,0.02-0.01c0,0.01,0,0.01,0,0.01c0.01,0,0,0,0.01,0.01c0,0,0-0.01,0.01-0.01c0,0,0,0.01,0,0.01
					c0.01,0,0.01,0,0.02,0c-0.01,0-0.02,0.01-0.03,0.02c0,0,0-0.01-0.01-0.01c0,0,0.01,0,0.01,0c-0.01-0.01-0.01-0.01-0.01,0
					c-0.02-0.01-0.01-0.02-0.02,0.01c0,0-0.02-0.01-0.01-0.01c0,0-0.01,0-0.02,0c0,0,0.01,0.01,0.01,0.01c-0.02,0-0.01-0.01-0.03,0
					c0,0,0.01,0,0.01,0.01l-0.02-0.01c-0.01,0.01,0,0.01-0.02,0.01c0,0,0,0,0,0c0,0,0.01,0.01,0,0.01c-0.01,0-0.01,0-0.02,0
					c0,0.01-0.01,0.03-0.01,0.04c0.02-0.01,0.04-0.02,0.05-0.04c0,0,0,0.03,0,0.02c0.01,0,0.01-0.01,0.02-0.02
					c-0.04,0.02-0.06,0.09,0.01,0.09c0-0.01,0.01-0.03,0.01-0.03c-0.01,0.1,0.01,0.05,0.05,0c0,0.01,0,0.02,0,0.02
					c-0.02,0.01-0.05,0.05-0.01,0.04c0,0-0.01,0.02-0.01,0.02c0.01,0,0.02-0.01,0.02-0.01l0,0c-0.02,0.02-0.02,0.04,0.01,0.05
					c0-0.02,0-0.04,0-0.06c0.01,0,0.01,0,0.01,0.01c0-0.01,0-0.01,0-0.02c0.02,0.01,0.01,0.01,0.03,0c0.02,0,0.01,0.01,0.04-0.01
					c0,0,0,0.01,0,0.01c-0.03,0.02-0.04,0.03-0.04,0.06c0,0,0.01-0.01,0.02-0.01c-0.01,0.02,0,0.03-0.01,0.05
					c0.01-0.01,0.02-0.02,0.03-0.03c-0.01,0.02-0.01,0.03-0.01,0.03s0,0.01,0,0.01c0.02-0.02,0.04-0.05,0.05-0.07
					c-0.01,0.03-0.04,0.06-0.03,0.08c-0.03,0.03-0.02,0.04,0.02,0.03c0,0.03,0.02,0.05,0.02,0.08c0.02,0,0.04,0,0.06,0.01
					c0.01,0.02,0,0.02,0.03,0c-0.02,0.05,0.02,0.03,0.04-0.01c0,0.01-0.01,0.02-0.02,0.02c0.01,0,0.01,0,0.02,0.01
					c-0.03,0.01,0.06,0.1,0.08,0.03c-0.02,0.03-0.01,0.09,0.01,0.03l0,0c0,0,0.03,0.02,0.03,0.02c-0.02,0.02-0.02,0.06-0.04,0.08
					c0.01-0.01,0.02-0.01,0.04-0.02c0.02,0.01,0,0.02,0.03,0c-0.01,0.03-0.01,0.04,0.02,0.04c-0.01,0.03,0,0.02,0.01,0.05
					c0.01-0.02,0.01-0.01,0.02-0.02c0,0,0,0.01,0,0.01c0,0.01-0.01,0.02,0.01,0.04c0-0.01,0.01-0.02,0.01-0.03c0,0,0,0.01-0.01,0.02
					c0,0,0.03,0,0.03,0c-0.04,0.01-0.06,0.03-0.03,0.06c0.01,0,0.03,0,0.05,0c-0.01,0-0.02,0.01-0.02,0.01
					c0.01,0,0.03,0.01,0.05,0.01c-0.05,0-0.08,0-0.07,0.06c0.02,0.06,0.04,0.03,0.02-0.01c0.01,0,0.02,0,0.03,0c0,0,0,0,0,0
					c0,0.01-0.01,0.01-0.02,0.01c0.02,0.01,0.04,0,0.06-0.02c0,0.01-0.01,0.02-0.02,0.03c0,0,0,0,0,0c0,0,0.01,0,0.02,0
					c-0.03,0-0.05,0.01-0.07,0.03c0.02,0.01,0.01,0.01,0.03,0.02c-0.02-0.02-0.05-0.03-0.07-0.03c0,0.03,0.04,0.05,0.03,0.09
					c0.02-0.01,0.03-0.01,0.05-0.02c0.01,0.02,0.01,0.02,0.03,0.04c-0.01,0.03-0.01,0.03,0.02,0.05c-0.02,0-0.02,0-0.04,0
					c0.02,0.02,0.03,0.03,0.05,0.02c-0.01,0.05,0.06,0.03,0.08,0.01c-0.01,0.01-0.01,0.03-0.02,0.04c0,0,0.01-0.01,0.01-0.01
					c0.01,0.05,0.05,0.02,0.08,0.01c-0.02,0.02-0.13,0.03-0.05,0.06c-0.02,0-0.02,0-0.04,0c0.09,0.03,0.18,0.09,0.25,0.11
					c0,0,0,0,0,0c0.04,0.02,0.04,0.05,0.06,0.07c0.04,0.03,0.13,0.07,0.16,0.09c-0.01,0.01,0,0.01,0,0.03c0,0-0.01-0.01-0.01-0.01
					c0.03,0.03,0.08,0.03,0.11,0.05c-0.01-0.01-0.01-0.01-0.02-0.02c0.01,0.01,0.02,0.01,0.04,0.02c0,0.01-0.01,0-0.01,0.01
					c0.06,0.03,0.19,0.14,0.21,0.18c0.06,0.03,0.11,0.09,0.17,0.13c0.1,0.06,0.21,0.11,0.31,0.15c0.09,0.03,0.14-0.01,0.22-0.04
					c0.13-0.05,0.26-0.1,0.39-0.14c0,0,0,0-0.01,0c0.05,0,0.11-0.01,0.16-0.01c-0.02-0.01-0.04-0.02-0.06-0.02
					c0,0.01,0.01,0.01,0.01,0.01c-0.01,0-0.03,0.01-0.04,0.01c0,0,0.01,0,0.02,0c-0.02,0-0.02,0-0.04-0.01c0,0,0.01,0,0,0
					c0.01,0,0,0.01,0.01,0.01c0,0,0.01-0.01,0.01-0.01c0.01,0.01,0,0,0.01,0c0,0-0.01,0-0.01,0c0,0,0,0,0,0
					c0.02-0.01,0.06,0.01,0.09,0c0,0.02,0,0.01,0.01,0.02c0,0,0,0,0,0c0.08,0.01,0.18-0.02,0.27-0.03c-0.01,0-0.01-0.01-0.02-0.01
					l0.01,0c-0.05-0.01-0.11,0.01-0.15,0.01c0,0.01,0.01,0,0.01,0c-0.03,0-0.05,0-0.07,0.01c0.01-0.01,0.02-0.03,0.02-0.02
					c0.01,0,0.01-0.01,0.02-0.01c-0.01,0.01,0,0.01,0,0.02c0,0-0.01,0-0.01,0c0.02,0,0.03-0.01,0.04-0.01
					c0.01,0,0.02,0.01,0.03,0.01c0-0.01-0.01,0-0.01,0c0.04-0.01,0.08,0,0.15-0.01c-0.01,0-0.01,0-0.02-0.01
					c0.01,0,0.02-0.01,0.03-0.01c0.01,0.02,0.02,0.02,0.05,0.02c-0.01-0.01-0.02-0.02-0.02-0.02c0.01,0.01,0.01,0.01,0.03,0.02
					c-0.01,0-0.01,0.01-0.02,0.01c-0.01-0.01-0.02-0.01-0.03-0.01c0,0-0.01,0-0.03,0.01c0.03,0.01,0.06,0.03,0.08,0.01
					c0.01,0.03,0.09,0.04,0.12,0.03l-0.01-0.01c0,0,0.02-0.01,0.02-0.01c0,0-0.01,0-0.01,0c0.01-0.05,0.04-0.02,0.04-0.02
					c0.01,0.01-0.03,0.04,0.02,0.04c0.03,0,0.04,0.01,0.07-0.01c-0.02,0.04-0.08,0-0.12,0.02c0.1,0.01,0.2,0.04,0.28,0.07
					c0.06,0.02,0.04,0.03,0.1,0c0.08-0.04,0.15-0.07,0.24-0.1c0.04-0.01,0.09-0.02,0.13-0.04c0.05-0.03,0.11-0.06,0.16-0.08
					c0.08-0.04,0.15,0,0.23-0.03c0.02-0.01,0.02-0.05,0.04-0.06c0.02-0.02,0.06-0.03,0.09-0.04c0.17-0.05,0.36-0.06,0.54-0.06
					c-0.01-0.02,0-0.04,0.03-0.06c0.01,0.04,0.07-0.01,0.1,0c-0.04,0.02-0.08,0.03-0.11,0.05c0,0-0.01,0-0.01-0.01
					c0.05,0.03,0.14,0,0.2,0.01c0.06,0.01,0.09,0.02,0.14,0.05c0.04,0.03,0.06,0.05,0.09,0.09c0.03,0.05,0.03,0.01,0.08-0.01
					c-0.01,0.01-0.03,0.03-0.04,0.04c-0.05,0.01,0.02,0.1,0.05,0.01c-0.01,0.06,0.02,0.01,0.05,0.04c-0.02-0.01-0.03,0-0.06,0
					c-0.06,0,0.01,0.05,0.04,0.05c0,0,0-0.01,0-0.01c0.02,0,0.03-0.02,0.06-0.03c-0.03,0.02-0.03,0.01-0.02,0.04
					c-0.01,0-0.02,0.01-0.03,0.01c-0.05-0.02-0.04,0.07-0.01,0.04c0,0,0.01,0.01,0.01,0.01c0,0-0.01,0-0.01,0l0.01,0.01
					c-0.01-0.01-0.01-0.01-0.02-0.01c0.01,0.03,0.02,0.06,0.03,0.08c0,0-0.01,0-0.01,0c0.01,0.01,0.02,0.03,0.03,0.04
					c0,0.02,0.04,0.05,0.06,0.07c0,0-0.01,0-0.01,0c0.02,0.01,0.01,0.01,0.03,0.01c0.01,0.02,0.01,0.02,0.03,0.03l0-0.02
					c0.01,0.01,0.01,0,0.01-0.01c0.01,0.02,0.01,0.02,0.02,0.03c0-0.01,0-0.02-0.01-0.03c0,0,0.02,0.01,0.02,0.01
					c0,0.03,0,0.03,0.03,0.02c0,0-0.01,0-0.01,0c0-0.02,0.01-0.02,0-0.04c0,0,0.01,0.01,0.01,0.01c0-0.01,0-0.02,0-0.02
					c0.01,0,0.01,0.02,0.01,0.03c0.01-0.01,0.01-0.01,0.02-0.01c-0.06,0.06,0.1,0.04,0.06-0.02c0.02,0.05,0.05,0.06,0.03-0.01
					c0,0.01,0,0.02,0.01,0.03c0-0.02,0.01-0.03,0.01-0.05c-0.01,0.04-0.01,0.09,0.04,0.07c-0.02-0.03-0.03-0.09-0.04-0.13
					c0.01,0,0.01,0,0.02,0.01c0,0.02,0.01,0.1,0.02,0.11c0.04,0.05,0.05-0.04,0.02-0.04c0-0.01,0-0.02-0.01-0.03
					c0.01,0.01,0.01,0.01,0.02,0.02c0-0.01,0-0.02-0.01-0.03c0.01,0,0,0.02,0.01,0c0,0.01,0.01,0.01,0.01,0.02
					c-0.01,0.02-0.01,0.04,0.01,0.05c-0.01-0.01,0-0.01,0-0.02c0,0,0,0.02,0.01,0.01c0.03-0.02,0.01-0.05-0.02-0.08
					c0,0,0.01-0.01,0-0.01c0.02,0.02,0.05,0.07,0.07,0.06c-0.01-0.01-0.01-0.01-0.02-0.01c0.04,0,0.07,0.02,0.08-0.04
					c-0.01,0.05,0,0.06,0.06,0.06c0,0-0.01,0-0.01,0c0.03-0.01,0.14,0,0.16-0.02c0.02-0.02-0.02-0.08-0.04-0.11
					c0.03,0.02,0.04,0.06,0.07,0.04c0,0.03,0,0.01,0.02,0.02c0,0.01,0,0.01,0,0.01c0-0.01,0.03-0.02,0.03-0.03
					c-0.01,0.02-0.02,0.04-0.01,0.05c-0.01,0.03-0.02,0.03,0.01,0.02c0,0-0.01,0.01-0.01,0.01c0.01,0,0.03,0,0.04,0
					c-0.01-0.02-0.01-0.04-0.02-0.06c0.01,0.03,0.02,0.04,0.04,0.05c0.01,0,0-0.01,0-0.02c0.01,0,0.01,0.01,0.02,0.02
					c0-0.01,0-0.02-0.01-0.03c0.02,0.01,0.01,0.02,0.02,0.03c0.01,0,0.01,0,0.01-0.01c-0.01,0.02,0,0.1,0.01,0.12
					c0.02,0.02,0.05,0.03,0.07,0.04c0.01,0,0.02-0.01,0.03-0.02c-0.01,0.03,0.01,0.04,0.04,0.03c-0.01-0.01-0.01-0.02-0.01-0.03
					c0,0,0.02,0.01,0.03,0.01c-0.01-0.01-0.01-0.02-0.02-0.03c0,0,0.01-0.01,0.01-0.01c0.01,0.05,0.05,0.01,0.07-0.01
					c-0.03,0.02-0.06,0.06,0,0.05c0,0,0,0.01,0,0.01c0,0-0.02,0.01-0.02,0.01c0,0,0.02,0.02,0.02,0.01c0,0,0,0.01,0,0.01
					c-0.01-0.01-0.02-0.01-0.03-0.01c0,0.03-0.01,0.01,0.01,0.03c-0.01-0.01-0.02,0-0.03-0.02c0.03,0.04,0.02,0.08,0.08,0.05
					c-0.02,0-0.03,0.02-0.05,0.02c0.03,0.02,0.05,0.05,0.08,0.07c-0.01,0.09-0.03,0.21-0.04,0.31c0,0.03,0,0.05-0.01,0.08
					c-0.01,0.03-0.07,0.07,0,0.06c-0.04,0-0.08,0.06-0.1,0.1c-0.01,0.04,0.06,0.06,0.09,0.03c-0.01,0,0.03,0.01,0.03,0.02
					c0,0-0.01,0.02-0.01,0.03c-0.01-0.04-0.05-0.02-0.06,0.01s0.02,0.09,0.01,0.13c0,0-0.01-0.03-0.01-0.04c-0.01,0-0.01,0-0.03,0
					c0.05-0.02,0.01-0.03-0.01-0.01c-0.04,0.04-0.02,0.01,0,0.06c0.03,0.06,0.1,0.06,0.16,0.06c-0.02,0-0.05,0.01-0.07,0.02
					c0.01,0.01,0.01,0.02,0.02,0.03c-0.02-0.03-0.04-0.04-0.06-0.02c0,0-0.02-0.02-0.02-0.02c0,0.01,0,0.02,0,0.02
					c-0.02-0.02-0.02-0.02-0.04-0.02c0-0.01,0-0.03,0-0.05c-0.03,0.02,0,0.08,0,0.12c0,0.06-0.07,0.12-0.06,0.16
					c-0.02,0-0.03,0.02-0.03,0.05c0-0.03-0.01-0.04-0.03-0.05c0,0,0.01,0.01,0,0.01c-0.01,0.01-0.01,0-0.01,0.02
					c-0.01-0.02-0.03-0.05-0.04-0.06c0,0.04,0.03,0.11,0.06,0.11c-0.01,0-0.01,0.01,0,0.01l-0.01-0.01
					c0.02,0.02,0.03,0.04,0.04,0.07c0-0.01,0-0.01,0-0.02c0,0.05,0.09,0.1,0.09,0.03c0.01,0.03-0.03,0.06-0.01,0.07
					c0.04,0.03,0.04-0.06,0.07,0.02c-0.01,0-0.03,0-0.04,0c0,0,0.01,0.01,0,0.02c-0.01,0-0.01-0.01,0-0.01
					c-0.02,0.01-0.02,0.01-0.03,0.02c0-0.04-0.06-0.09-0.08-0.12c0.01,0.03,0.09,0.17,0.1,0.18c0,0,0.01-0.01,0.01-0.02
					c0.01,0,0.01,0.02,0.02,0.02c0,0,0-0.01,0-0.01c0.02,0.02,0.03,0.03,0.04,0.06c0,0-0.01,0-0.01,0.01
					c-0.01-0.03-0.02-0.04-0.05-0.04c0-0.01,0.01,0,0-0.01c0,0-0.01,0.01-0.01,0.01c0,0-0.01-0.01-0.02-0.01
					c0.01,0.01,0.02,0.04,0.03,0.05c0.02,0.03,0.05,0.08,0.07,0.1c0,0-0.01-0.01-0.01-0.01c0.01,0,0.01,0.01,0.02,0.02
					c0,0,0-0.01,0-0.02c0.01,0.04,0.05,0,0.08,0.03c-0.01,0.01-0.01,0-0.01,0.01c0,0,0.01,0,0.01,0c0.02-0.01,0-0.01,0.03,0
					c0,0-0.01-0.02-0.01-0.02c0.01,0.01,0.02,0.01,0.02,0.02c-0.01,0.01-0.04,0.02-0.05,0.02c-0.01-0.02-0.04-0.02-0.04-0.05
					c-0.02,0-0.01,0-0.04,0c0.06,0.09,0.15,0.13,0.22,0.2c0.04,0.05,0.08,0.1,0.13,0.15c0.04,0.04,0.08,0.11,0.13,0.14
					c0.05,0.03,0.07,0.07,0.09,0.1c0-0.01,0.01,0.05,0,0.03c0.03,0.03,0.05,0.06,0.08,0.07c0,0,0.01-0.01,0.01-0.01
					c-0.02,0.01,0,0.01-0.03,0.01c0.03,0.05,0.04,0.1,0.05,0.14c0.01,0.05,0.02,0.07,0.06,0.13c-0.01,0,0.02-0.01,0.02-0.01
					c0,0.01,0,0.01-0.01,0.02c0.02-0.01,0.05-0.01,0.07-0.02c0.01-0.01,0.01-0.03,0.03-0.04c0.04-0.01,0.07,0.01,0.11,0
					c-0.08,0.01-0.14,0.06-0.23,0.07c0,0,0-0.01,0-0.01c-0.04,0.03,0.1,0.21,0.14,0.22c-0.01,0.11,0.06,0.23,0.11,0.33
					c0.04,0.08,0.07,0.15-0.01,0.19c0-0.01,0.01-0.01,0.02-0.02c-0.02,0.03-0.05,0.06-0.07,0.09c0-0.02,0.01-0.04,0.03-0.06
					c-0.07,0.03-0.02,0.09,0,0.14c0.02,0.03,0,0.07,0.01,0.09c0.03,0.09,0.09,0.16,0.14,0.24c0.06,0.1,0.05,0.38-0.04,0.48
					c-0.01-0.01,0-0.01,0-0.01c-0.02,0.02-0.02,0.04-0.04,0.07c-0.02,0.02-0.04,0-0.06,0.01c-0.07,0.04-0.07,0.1-0.11,0.15
					c-0.02,0.03-0.04,0.04-0.06,0.06c-0.02,0.04-0.01,0.09-0.03,0.14c0,0.01-0.03,0.05-0.04,0.08c0,0.03-0.01,0.09-0.02,0.14
					c-0.01,0.04-0.03,0.07-0.04,0.11c-0.01,0.03-0.01,0.09-0.03,0.14c-0.02,0.05-0.06,0.05-0.07,0.09c0,0.01,0.02,0.1,0.02,0.11
					c0,0.05,0.01,0.1,0,0.15c0-0.01,0-0.01,0-0.02c-0.02,0.15-0.03,0.31,0.06,0.45c0.04,0.06,0.09,0.12,0.13,0.18
					c0.03,0.06,0.06,0.12,0.09,0.17c0.08,0.15,0.13,0.32,0.23,0.46c0.05,0.08,0.08,0.15,0.13,0.22c0.05,0.07,0.12,0.16,0.1,0.25
					c0,0.02-0.01,0.03-0.02,0.04c0-0.01-0.01-0.02-0.01-0.03c-0.02,0.05,0.02,0.1,0.01,0.15c0,0,0-0.01,0-0.01
					c-0.03,0.03,0.01,0.1,0.01,0.14c0,0.04-0.02,0.06-0.01,0.1c0.02,0.1,0.1,0.17,0.1,0.27c0,0.09,0,0.17,0.01,0.25
					c0.01,0.05,0.01,0.06,0.01,0.11c0,0.04,0.07,0.05,0.05,0.12c0,0,0-0.01,0-0.02c-0.03,0.03,0.06,0.22,0.08,0.26
					c0.03,0.06,0.21,0.37,0.29,0.33c0.01,0.08,0.09,0.16,0.12,0.24c0.05,0.13,0.08,0.26,0.14,0.39c0.06,0.12,0.14,0.23,0.2,0.35
					c0.02,0.04,0.06,0.17,0.04,0.2c-0.01,0.02,0,0.07-0.01,0.09c-0.03,0.07-0.06,0.03-0.08,0.04c0,0-0.01,0,0-0.01
					c-0.01,0.01-0.03,0.02-0.04,0.03c0.01,0.02,0.01,0.05,0.02,0.08c0.01-0.01,0-0.01,0.01-0.01c0.03,0.01,0.03,0.03,0.05,0.06
					c-0.01-0.01-0.03-0.02-0.05-0.03c0.05,0.05,0.07,0.11,0.11,0.16c0.03,0.03,0.03,0.07,0.02,0.1c0,0.02-0.05,0.03-0.02,0.05
					c-0.01,0.03,0,0.08,0.04,0.09c0-0.02-0.02-0.06,0-0.07c0.03-0.04,0.09-0.01,0.1,0.02c0,0.01-0.02,0.06-0.01,0.07
					c0.01,0.01,0.08-0.01,0.09-0.02c-0.04,0.06,0.12,0.03,0.04,0.11c0.04-0.01,0.05,0.03,0.09,0.05c0.02,0.01,0.1,0.01,0.12,0.01
					c0.01,0,0.06-0.06,0.08-0.07c0.02-0.01,0.03-0.03,0.05-0.04c0.03-0.01,0.12,0.02,0.08-0.02c0.03-0.02,0.07-0.01,0.11,0
					c0.04,0.01,0.05-0.02,0.08-0.02c0.04,0,0.06,0.02,0.1,0c0.03-0.02,0.01-0.05,0.07-0.05c-0.02-0.04,0.14-0.07,0.17-0.05
					c0,0-0.01-0.01-0.01-0.02c0,0,0.02,0.01,0.02,0.01c0,0.02,0.03,0.03,0.06,0.03c0,0-0.01-0.01-0.01-0.02
					c0.02,0.03,0.07,0.02,0.11,0.03c-0.04-0.06,0.18-0.03,0.21-0.01c0.04,0.02,0.15,0.06,0.18,0.04c-0.01,0.01,0.02-0.05,0.02-0.05
					c-0.01-0.04,0.09-0.01,0.11-0.01c0.02,0,0.06,0.03,0.08,0.02c0.05-0.03-0.01-0.01,0-0.04c0.04-0.1,0.11-0.06,0.2-0.06
					c0.06,0,0.12-0.03,0.17-0.06c0.09-0.05,0.17-0.11,0.25-0.17c0.08-0.06,0.14-0.13,0.22-0.2c0.07-0.07,0.12-0.17,0.19-0.23
					c0.07-0.06,0.15-0.11,0.21-0.19c0.08-0.12,0.17-0.25,0.23-0.38c0,0-0.01,0.01-0.02,0.01c0.03-0.04,0.06-0.13,0.1-0.18
					c0.03-0.04,0.1-0.08,0.11-0.12c0.03,0.01,0.06-0.01,0.08-0.04c-0.01,0-0.01,0.01-0.02,0.01c0,0,0,0-0.01-0.01
					c0.04-0.01,0.14-0.08,0.11-0.13c0.07-0.08,0.08-0.26,0.11-0.36c0.03-0.11,0.03-0.22,0.04-0.34c-0.02,0.02-0.02,0.03-0.02,0.06
					c-0.01-0.01-0.05-0.02-0.05-0.03c-0.01-0.03-0.03-0.08-0.05-0.05c0-0.01,0.06-0.05,0.07-0.06c0-0.08,0.08-0.11,0.14-0.15
					c0,0.01-0.01,0-0.01,0c0.01,0,0.02-0.01,0.03-0.01c0,0-0.01,0.01-0.02,0.01c0.16-0.07,0.33-0.12,0.49-0.2
					c0.05-0.02,0.17-0.21,0.11-0.25c-0.01,0.04,0.01,0.02-0.03,0.02c0,0.01-0.01,0.03-0.01,0.03c0-0.03,0.01-0.06,0-0.08
					c0.01,0.01,0.01,0,0.01,0.02c0.01-0.07,0.05-0.19,0.05-0.25c0,0-0.01,0.01-0.01,0.01c-0.02-0.08,0-0.15,0-0.22
					c0,0.01-0.01,0.03-0.01,0.04c0-0.02,0-0.04,0-0.06c-0.02,0.02-0.02,0.01-0.02,0.04c0,0-0.01-0.01-0.01-0.01
					c0,0.03,0,0.06,0,0.08c-0.05-0.04,0-0.13-0.03-0.19c-0.02-0.05-0.06-0.15-0.05-0.19c0,0.01-0.01,0.03-0.01,0.04
					c0-0.03,0-0.04-0.02-0.06c0.02-0.01,0.01-0.01,0.01-0.02c0.02-0.02,0.02-0.02-0.01-0.02c0-0.03,0-0.07-0.04-0.07
					c0,0,0.01-0.01,0-0.02c-0.02-0.01-0.03-0.04-0.06-0.03c0.01-0.03,0.01-0.02-0.01-0.05c0.02-0.01,0.04-0.04,0-0.06
					c0.05,0.02,0.03-0.07,0.01-0.08c0.03-0.02-0.02-0.08-0.05-0.07c0.03-0.03,0.02,0.01,0.05,0.03c0.04,0.03,0.03,0.03,0.07,0.02
					c0.07-0.02,0.14-0.14,0.19-0.18c0,0-0.01,0-0.01,0c0.02-0.02,0.04-0.04,0.06-0.06l-0.01,0c0,0,0-0.01,0-0.01
					c0.02,0,0.01,0,0.03-0.02c0,0,0.03-0.01,0.04-0.03c0.01,0.04,0,0.02,0.04,0.03c0-0.02,0-0.04-0.01-0.06
					c0.02,0.04,0.05,0.03,0.04,0.01c0.01-0.01,0-0.02,0.01-0.01c0.02-0.06,0.07-0.08,0.12-0.15c-0.01,0-0.01,0.01-0.02,0.01
					c0.05-0.03,0.05-0.07,0.01-0.09c0.02,0,0.03,0.01,0.04,0.03c0.04-0.06,0.08-0.08,0.13-0.12c0.04-0.03,0.2-0.08,0.17-0.12
					c0.01,0.01,0.01,0,0.01-0.01c0.01,0.06,0.15-0.03,0.15-0.04c0.03,0.02,0.14,0,0.11-0.03c0.04-0.03,0.17-0.09,0.18-0.13
					c0.02,0,0.01-0.01,0.03,0c-0.05-0.04,0.06-0.07,0.07-0.13c-0.01,0.01-0.01,0.01-0.02,0.01c0.04-0.04,0.12-0.1,0.14-0.15
					c0.02-0.03,0.04-0.11-0.02-0.08c0.01-0.02,0.03-0.03,0.05-0.03c0-0.01-0.01-0.02-0.01-0.03c0.01,0,0.02,0.01,0.03,0.01
					c-0.01-0.01-0.02-0.03-0.04-0.04c0.05,0.05,0.05-0.07,0.05-0.09c-0.01,0-0.01,0-0.02,0c0.04-0.04-0.02-0.04-0.04,0.01
					c0-0.03,0-0.03,0-0.06c0.05,0.01,0.03-0.07-0.02-0.02c0,0.01,0-0.01,0-0.01c0,0-0.01,0.01-0.01,0.01c0-0.02,0.01-0.03,0.01-0.04
					c0.05-0.05-0.04-0.15,0-0.2c-0.01,0,0-0.01,0-0.02c0,0-0.01,0.01-0.01,0.01c0.02-0.03,0.03-0.1-0.01-0.1
					c-0.02,0.03-0.03-0.02,0.01-0.01c0-0.01,0.01-0.01,0-0.03c0.01,0,0.01,0,0.01-0.01c0.03,0,0.01-0.02,0-0.04c0.01,0,0,0,0.01,0
					c-0.02-0.02-0.05-0.04-0.02-0.07c-0.01-0.01-0.02-0.02-0.03-0.03c0.03-0.01,0.02-0.08,0.02-0.12c-0.05-0.04,0.01-0.12-0.05-0.15
					c0.03-0.01,0.05-0.05,0.06-0.08c-0.01,0,0,0-0.02,0.01c0-0.03,0-0.04,0.03-0.05c-0.02-0.01-0.02-0.01-0.04-0.01
					c0.02-0.02,0.02-0.02,0.05-0.03c-0.03-0.01-0.04-0.03-0.04-0.06c-0.02,0-0.03-0.01-0.03-0.03c0.01-0.03,0-0.01,0-0.02
					c0,0.01,0.01,0,0.01,0.01c-0.02,0-0.04-0.02-0.05-0.04c0,0-0.01,0.01-0.01,0.01c0,0,0.02,0,0.02,0.01c-0.01,0-0.01,0-0.01,0.01
					c-0.01,0-0.02-0.01-0.03-0.01c0.01-0.02,0-0.03-0.03-0.04c0,0.01,0,0.02,0,0.02c0-0.05-0.05-0.08-0.08-0.05
					c0.02-0.02,0.02-0.03,0.02-0.05c0.01-0.02,0.01-0.03-0.02-0.04c0.02-0.02,0-0.09-0.04-0.08c0.02-0.02,0.04-0.11-0.02-0.09
					c0-0.02,0-0.05-0.01-0.06c0,0-0.02,0-0.02,0c0.01,0,0.02,0,0.04,0.01c-0.04-0.06-0.07-0.1-0.07-0.18c0,0,0.01,0.01,0.01,0.01
					c0-0.02,0.03-0.05,0.03-0.09c0-0.01,0-0.05-0.03-0.05c0.01,0,0-0.01,0-0.02c-0.01,0.01-0.02,0.02-0.02,0.03
					c0.02-0.03,0.03-0.11,0.02-0.14c0.03-0.03,0.12-0.13-0.01-0.14c0,0,0.01,0.01,0,0.01c0-0.01-0.01-0.02-0.01-0.03
					c-0.02-0.02-0.05-0.06-0.08-0.07c0,0,0.01,0.01,0.01,0.01c-0.13-0.02-0.02-0.28,0.01-0.34c-0.01,0,0,0-0.01,0
					c0.02-0.02,0.04-0.04,0.01-0.05c0.01-0.02,0-0.01,0.01-0.04c0.01,0,0.01-0.01,0.01-0.02c0,0.01,0,0.02,0,0.03
					c0.01-0.03,0.01-0.02,0-0.04c0-0.01,0.01-0.01,0.01-0.03c0.01-0.01,0.02-0.02,0.03-0.02c0.02,0.01,0.03,0.01,0.04-0.02
					c0,0,0,0.01,0,0.02c0.01-0.03,0.09-0.15,0.03-0.14c0-0.01,0-0.01,0.02-0.02c0,0-0.02,0-0.01-0.01c0,0,0.02,0,0.02,0
					c0,0,0.01,0.02,0.01,0.02c0,0,0.01-0.02,0.02-0.02c-0.01-0.01-0.01,0-0.02-0.02c0.04,0.03,0.05-0.07,0.02-0.09
					c0.04,0.03,0.05-0.05,0.06-0.07c0,0.01,0,0.01-0.01,0.02c0.05-0.02,0.04-0.07,0.07-0.11c-0.05-0.01,0-0.09,0.04-0.11
					c0.03-0.01,0.16-0.02,0.11-0.08c0.03-0.02,0.04-0.02,0.04,0.01c0.02-0.02-0.01-0.08-0.02-0.1c0,0.01,0.02,0.02,0.02,0.03
					c0-0.01,0.01-0.03,0.02-0.05c-0.02,0.06,0.04,0.02,0.06,0.01c0.03,0.03,0.17-0.15,0.16-0.2c0.01,0.02,0.01,0,0.02,0
					c0-0.01,0.02-0.05,0.01-0.08c0,0.01,0,0.02,0.01,0.03c0.01-0.02,0.02-0.03,0.02-0.04c0.05-0.01,0.07-0.09,0.11-0.1
					c0.02-0.06,0.1-0.11,0.15-0.16c0.08-0.08,0.19-0.16,0.25-0.24c0.12-0.15,0.32-0.23,0.48-0.32c0.16-0.1,0.29-0.26,0.43-0.41
					c0.1-0.1,0.17-0.21,0.25-0.33c0.08-0.11,0.16-0.21,0.22-0.33c0.02-0.03,0.01-0.06,0.02-0.1c0.03-0.06,0.05-0.11,0.08-0.16
					c0.04-0.06,0.08-0.13,0.1-0.18c0.03-0.06,0.08-0.1,0.11-0.16c0.02-0.04,0.03-0.1,0.06-0.13c0.04-0.05,0.07-0.08,0.1-0.13
					c0.02-0.03,0.02-0.11,0.02-0.15c0.01-0.06-0.01-0.12,0.06-0.14C723.51,675.84,723.57,675.88,723.56,675.83"/>
			</g>
			<g clip-path="url(#SVGID_2_)">
				
					<text transform="matrix(1 0 0 1.1525 775.7197 672.6914)" fill="#FFFFFF" font-family="'TimesNewRomanPS-BoldMT'" font-size="43.7979px">BSIC - GAMBIA</text>
			</g>
			<path clip-path="url(#SVGID_2_)" fill="#FFFFFF" d="M778.18,680.71c0.93-0.18,2.79-0.33,4.56-0.33c2.15,0,3.48,0.21,4.62,0.87
				c1.09,0.58,1.86,1.64,1.86,3.06c0,1.36-0.81,2.65-2.57,3.3v0.06c1.79,0.46,3.11,1.82,3.11,3.8c0,1.42-0.66,2.53-1.63,3.29
				c-1.15,0.91-3.03,1.41-6.15,1.41c-1.74,0-3.03-0.11-3.82-0.23V680.71z M781.68,686.65h1.15c1.87,0,2.85-0.77,2.85-1.92
				c0-1.18-0.9-1.8-2.5-1.8c-0.77,0-1.21,0.05-1.5,0.11V686.65z M781.68,693.52c0.34,0.06,0.76,0.06,1.36,0.06
				c1.61,0,3.02-0.62,3.02-2.25c0-1.55-1.4-2.17-3.17-2.17h-1.21V693.52z M795.72,692.03l-1.1,3.98h-3.66l4.77-15.51h4.63
				l4.87,15.51h-3.81l-1.2-3.98H795.72z M799.7,689.42l-0.97-3.3c-0.27-0.92-0.55-2.08-0.79-2.99h-0.05
				c-0.23,0.91-0.47,2.09-0.72,2.99l-0.94,3.29H799.7z M807.32,696.01V680.5h4.12l3.25,5.69c0.94,1.63,1.85,3.57,2.56,5.32
				l0.06-0.01c-0.22-2.05-0.28-4.14-0.28-6.48v-4.52h3.25v15.51h-3.7l-3.35-5.97c-0.93-1.67-1.96-3.66-2.72-5.48l-0.08,0.01
				c0.11,2.06,0.15,4.25,0.15,6.78v4.66H807.32z M830.51,696.51c-0.35-0.14-0.72-0.21-1.08-0.24c-3.54-0.22-6.83-2.81-6.83-7.87
				c0-4.66,2.97-8.15,7.65-8.15c4.77,0,7.38,3.59,7.38,7.83c0,3.52-1.64,6.01-3.7,6.92v0.1c1.2,0.35,2.54,0.63,3.77,0.88l-1.01,2.71
				C834.46,698.04,832.61,697.36,830.51,696.51z M833.89,688.22c0-2.84-1.34-5.18-3.75-5.18c-2.42,0-3.81,2.33-3.81,5.25
				c-0.01,2.95,1.42,5.19,3.78,5.19C832.51,693.48,833.89,691.26,833.89,688.22z M843.47,680.5v8.92c0,2.68,1.04,4.05,2.83,4.05
				c1.86,0,2.88-1.3,2.88-4.05v-8.92h3.54v8.71c0,4.79-2.44,7.06-6.53,7.06c-3.95,0-6.25-2.17-6.25-7.1v-8.66H843.47z
				 M865.07,689.45h-5.75v3.69h6.43v2.87h-9.97V680.5h9.63v2.87h-6.1v3.23h5.75V689.45z M876.89,693.37c1.62,0,2.48-0.67,2.48-1.69
				c0-0.95-0.75-1.51-2.62-2.17c-2.61-0.92-4.31-2.33-4.31-4.59c0-2.65,2.24-4.66,5.91-4.66c1.78,0,3.07,0.35,3.99,0.78l-0.78,2.81
				c-0.62-0.29-1.75-0.74-3.26-0.74c-1.54,0-2.27,0.71-2.27,1.5c0,0.99,0.87,1.42,2.89,2.18c2.77,1.03,4.05,2.45,4.05,4.65
				c0,2.59-2,4.81-6.3,4.81c-1.77,0-3.55-0.48-4.42-0.96l0.71-2.9C873.91,692.89,875.38,693.37,876.89,693.37z M889,692.03
				l-1.1,3.98h-3.66l4.77-15.51h4.63l4.87,15.51h-3.81l-1.2-3.98H889z M892.98,689.42l-0.97-3.3c-0.27-0.92-0.55-2.08-0.79-2.99
				h-0.05c-0.23,0.91-0.47,2.09-0.72,2.99l-0.94,3.29H892.98z M904.13,680.5v5.97h5.83v-5.97h3.54v15.51h-3.54v-6.49h-5.83v6.49
				h-3.54V680.5H904.13z M925.87,689.45h-5.75v3.69h6.43v2.87h-9.97V680.5h9.63v2.87h-6.1v3.23h5.75V689.45z M928.97,680.5h3.54
				v12.57h6.22v2.94h-9.76V680.5z M954.24,688.1c0,5.09-3.1,8.17-7.67,8.17c-4.64,0-7.36-3.48-7.36-7.9c0-4.64,3.01-8.12,7.61-8.12
				C951.62,680.25,954.24,683.81,954.24,688.1z M942.95,688.3c0,3.04,1.44,5.18,3.8,5.18c2.39,0,3.76-2.24,3.76-5.26
				c0-2.8-1.33-5.18-3.76-5.18C944.35,683.04,942.95,685.28,942.95,688.3z M962.08,688.8v2.33h-6.07v-2.33H962.08z M968.36,693.37
				c1.62,0,2.48-0.67,2.48-1.69c0-0.95-0.75-1.51-2.62-2.17c-2.61-0.92-4.31-2.33-4.31-4.59c0-2.65,2.24-4.66,5.91-4.66
				c1.78,0,3.07,0.35,3.99,0.78l-0.78,2.81c-0.62-0.29-1.75-0.74-3.26-0.74c-1.54,0-2.27,0.71-2.27,1.5c0,0.99,0.87,1.42,2.89,2.18
				c2.77,1.03,4.05,2.45,4.05,4.65c0,2.59-2,4.81-6.3,4.81c-1.77,0-3.55-0.48-4.42-0.96l0.71-2.9
				C965.38,692.89,966.85,693.37,968.36,693.37z M980.48,692.03l-1.1,3.98h-3.66l4.77-15.51h4.63l4.87,15.51h-3.81l-1.2-3.98H980.48
				z M984.45,689.42l-0.97-3.3c-0.27-0.92-0.55-2.08-0.79-2.99h-0.05c-0.23,0.91-0.47,2.09-0.72,2.99l-0.94,3.29H984.45z
				 M995.61,680.5v5.97h5.83v-5.97h3.54v15.51h-3.54v-6.49h-5.83v6.49h-3.54V680.5H995.61z M1011.68,692.03l-1.1,3.98h-3.66
				l4.77-15.51h4.63l4.87,15.51h-3.81l-1.2-3.98H1011.68z M1015.65,689.42l-0.97-3.3c-0.27-0.92-0.55-2.08-0.79-2.99h-0.05
				c-0.23,0.91-0.47,2.09-0.72,2.99l-0.94,3.29H1015.65z M1027.97,680.38c2.32,0,3.94,0.35,5.06,1.23c0.93,0.74,1.45,1.83,1.45,3.25
				c0,1.97-1.42,3.33-2.76,3.81v0.07c1.08,0.43,1.7,1.46,2.09,2.89c0.48,1.76,0.96,3.78,1.26,4.38h-3.62
				c-0.24-0.45-0.63-1.7-1.08-3.62c-0.44-1.94-1.09-2.46-2.55-2.48h-1.05v6.09h-3.5v-15.3
				C1024.41,680.52,1026.09,680.38,1027.97,680.38z M1026.78,687.38h1.38c1.75,0,2.8-0.89,2.8-2.24c0-1.42-0.98-2.15-2.6-2.16
				c-0.85,0-1.34,0.05-1.59,0.12V687.38z M1040.57,680.5v15.51h-3.54V680.5H1040.57z M1052.93,689.45h-5.75v3.69h6.43v2.87h-9.97
				V680.5h9.63v2.87h-6.1v3.23h5.75V689.45z M1056.03,696.01V680.5h4.12l3.25,5.69c0.94,1.63,1.85,3.57,2.56,5.32l0.06-0.01
				c-0.22-2.05-0.29-4.14-0.29-6.48v-4.52h3.25v15.51h-3.7l-3.35-5.97c-0.93-1.67-1.96-3.66-2.72-5.48l-0.08,0.01
				c0.11,2.06,0.15,4.25,0.15,6.78v4.66H1056.03z M1072.04,696.01V680.5h4.12l3.25,5.69c0.94,1.63,1.85,3.57,2.56,5.32l0.06-0.01
				c-0.22-2.05-0.28-4.14-0.28-6.48v-4.52h3.25v15.51h-3.7l-3.35-5.97c-0.93-1.67-1.96-3.66-2.72-5.48l-0.08,0.01
				c0.11,2.06,0.15,4.25,0.15,6.78v4.66H1072.04z M1097.33,689.45h-5.75v3.69h6.43v2.87h-9.97V680.5h9.63v2.87h-6.1v3.23h5.75
				V689.45z"/>
			<path clip-path="url(#SVGID_2_)" fill="#FFFFFF" d="M781.22,705.68c1.57,0,2.71,0.33,3.47,0.97c0.73,0.6,1.2,1.61,1.2,2.79
				c0,1.18-0.36,2.19-1.04,2.86c-0.88,0.88-2.18,1.28-3.68,1.28c-0.34,0-0.64-0.02-0.87-0.06v4.32h-2.54v-11.9
				C778.55,705.79,779.66,705.68,781.22,705.68z M781.15,711.47c1.36,0,2.2-0.73,2.2-1.95c0-1.11-0.71-1.77-2.01-1.77
				c-0.51,0-0.86,0.04-1.05,0.09v3.56C780.51,711.45,780.78,711.47,781.15,711.47z M797.9,711.68c0,3.96-2.25,6.35-5.56,6.35
				c-3.36,0-5.34-2.71-5.34-6.14c0-3.6,2.18-6.31,5.52-6.31C796,705.58,797.9,708.35,797.9,711.68z M789.71,711.83
				c0,2.36,1.05,4.03,2.76,4.03c1.73,0,2.73-1.74,2.73-4.09c0-2.17-0.97-4.03-2.73-4.03C790.72,707.74,789.71,709.49,789.71,711.83z
				 M802.13,705.77v6.94c0,2.08,0.75,3.15,2.06,3.15c1.35,0,2.09-1.01,2.09-3.15v-6.94h2.56v6.77c0,3.72-1.77,5.49-4.74,5.49
				c-2.86,0-4.53-1.69-4.53-5.52v-6.74H802.13z M814.46,705.68c1.68,0,2.86,0.27,3.67,0.96c0.68,0.57,1.05,1.42,1.05,2.53
				c0,1.53-1.03,2.59-2,2.96v0.06c0.79,0.34,1.23,1.14,1.52,2.25c0.35,1.36,0.69,2.94,0.92,3.4h-2.63
				c-0.17-0.35-0.46-1.32-0.78-2.81c-0.32-1.51-0.79-1.91-1.85-1.92h-0.76v4.73h-2.54v-11.89
				C811.88,705.79,813.1,705.68,814.46,705.68z M813.6,711.12h1c1.27,0,2.03-0.69,2.03-1.74c0-1.1-0.71-1.67-1.88-1.68
				c-0.61,0-0.97,0.04-1.15,0.09V711.12z M824.42,705.77h2.56v9.77h4.51v2.29h-7.08V705.77z M834.27,705.58
				c-0.52,1.75-1.25,3.5-2.02,4.84l-1.55,0.15c0.51-1.53,0.95-3.26,1.18-4.83L834.27,705.58z M838.32,705.77v12.06h-2.56v-12.06
				H838.32z M840.55,717.83v-12.06h2.99l2.36,4.42c0.68,1.26,1.34,2.77,1.85,4.14l0.04-0.01c-0.16-1.59-0.21-3.22-0.21-5.04v-3.52
				h2.35v12.06h-2.69l-2.43-4.64c-0.68-1.3-1.42-2.85-1.97-4.26l-0.06,0.01c0.08,1.6,0.11,3.3,0.11,5.27v3.62H840.55z
				 M854.83,717.83l-3.64-12.06H854l1.37,5.11c0.4,1.43,0.74,2.8,1.02,4.3h0.04c0.29-1.45,0.65-2.88,1.04-4.26l1.44-5.15h2.73
				l-3.81,12.06H854.83z M869.59,712.73h-4.17v2.87h4.67v2.23h-7.23v-12.06h6.99v2.23h-4.42v2.51h4.17V712.73z M874.75,715.78
				c1.18,0,1.8-0.52,1.8-1.31c0-0.74-0.54-1.18-1.9-1.69c-1.89-0.71-3.13-1.81-3.13-3.57c0-2.06,1.62-3.62,4.29-3.62
				c1.29,0,2.23,0.27,2.9,0.61l-0.57,2.19c-0.45-0.23-1.27-0.57-2.37-0.57c-1.12,0-1.65,0.55-1.65,1.17c0,0.77,0.63,1.1,2.1,1.7
				c2.01,0.8,2.94,1.91,2.94,3.61c0,2.01-1.45,3.74-4.57,3.74c-1.29,0-2.57-0.37-3.2-0.75l0.52-2.25
				C872.59,715.41,873.66,715.78,874.75,715.78z M880.04,708.06v-2.29h8.73v2.29h-3.1v9.77h-2.56v-9.77H880.04z M892.69,705.77
				v12.06h-2.56v-12.06H892.69z M897.84,715.78c1.18,0,1.8-0.52,1.8-1.31c0-0.74-0.54-1.18-1.9-1.69c-1.89-0.71-3.13-1.81-3.13-3.57
				c0-2.06,1.62-3.62,4.29-3.62c1.29,0,2.23,0.27,2.9,0.61l-0.57,2.19c-0.45-0.23-1.27-0.57-2.37-0.57c-1.12,0-1.65,0.55-1.65,1.17
				c0,0.77,0.63,1.1,2.1,1.7c2.01,0.8,2.94,1.91,2.94,3.61c0,2.01-1.45,3.74-4.57,3.74c-1.29,0-2.57-0.37-3.2-0.75l0.52-2.25
				C895.68,715.41,896.75,715.78,897.84,715.78z M906.92,715.78c1.18,0,1.8-0.52,1.8-1.31c0-0.74-0.54-1.18-1.9-1.69
				c-1.89-0.71-3.13-1.81-3.13-3.57c0-2.06,1.62-3.62,4.29-3.62c1.29,0,2.23,0.27,2.9,0.61l-0.57,2.19
				c-0.45-0.23-1.27-0.57-2.37-0.57c-1.12,0-1.65,0.55-1.65,1.17c0,0.77,0.63,1.1,2.1,1.7c2.01,0.8,2.94,1.91,2.94,3.61
				c0,2.01-1.45,3.74-4.57,3.74c-1.29,0-2.57-0.37-3.2-0.75l0.52-2.25C904.76,715.41,905.83,715.78,906.92,715.78z M919.82,712.73
				h-4.17v2.87h4.67v2.23h-7.23v-12.06h6.99v2.23h-4.42v2.51h4.17V712.73z M931.64,713.22c-0.05-1.46-0.1-3.2-0.1-4.97h-0.05
				c-0.36,1.54-0.84,3.26-1.27,4.68l-1.39,4.7h-1.99l-1.22-4.66c-0.37-1.42-0.74-3.13-1.02-4.72h-0.04c-0.06,1.64-0.12,3.5-0.19,5
				l-0.21,4.58h-2.37l0.73-12.06h3.42l1.11,4.03c0.36,1.38,0.71,2.9,0.96,4.31h0.05c0.31-1.4,0.69-2.99,1.08-4.33l1.2-4.01h3.36
				l0.61,12.06h-2.49L931.64,713.22z M943.02,712.73h-4.17v2.87h4.67v2.23h-7.23v-12.06h6.99v2.23h-4.42v2.51h4.17V712.73z
				 M945.26,717.83v-12.06h2.99l2.35,4.42c0.68,1.26,1.34,2.77,1.85,4.14l0.04-0.01c-0.16-1.59-0.21-3.22-0.21-5.04v-3.52h2.35
				v12.06h-2.69l-2.43-4.64c-0.68-1.3-1.42-2.85-1.97-4.26l-0.06,0.01c0.08,1.6,0.11,3.3,0.11,5.27v3.62H945.26z M956,708.06v-2.29
				h8.73v2.29h-3.1v9.77h-2.56v-9.77H956z M976.22,712.73h-4.17v2.87h4.67v2.23h-7.23v-12.06h6.99v2.23h-4.42v2.51h4.17V712.73z
				 M977.67,708.06v-2.29h8.73v2.29h-3.1v9.77h-2.56v-9.77H977.67z M991.15,705.77h2.56v9.77h4.51v2.29h-7.08V705.77z
				 M1006.49,712.73h-4.17v2.87h4.67v2.23h-7.23v-12.06h6.99v2.23h-4.42v2.51h4.17V712.73z M1020.45,717.5
				c-0.46,0.24-1.53,0.52-2.9,0.52c-3.93,0-5.95-2.61-5.95-6.05c0-4.11,2.77-6.39,6.2-6.39c1.33,0,2.35,0.28,2.79,0.53l-0.52,2.16
				c-0.51-0.24-1.24-0.45-2.15-0.45c-2.02,0-3.61,1.31-3.61,3.99c0,2.42,1.34,3.94,3.62,3.94c0.79,0,1.64-0.16,2.14-0.39
				L1020.45,717.5z M1032,711.68c0,3.96-2.25,6.35-5.56,6.35c-3.36,0-5.34-2.71-5.34-6.14c0-3.6,2.18-6.31,5.52-6.31
				C1030.1,705.58,1032,708.35,1032,711.68z M1023.81,711.83c0,2.36,1.05,4.03,2.76,4.03c1.73,0,2.73-1.74,2.73-4.09
				c0-2.17-0.97-4.03-2.73-4.03C1024.82,707.74,1023.81,709.49,1023.81,711.83z M1043.27,713.22c-0.05-1.46-0.1-3.2-0.1-4.97h-0.05
				c-0.36,1.54-0.84,3.26-1.27,4.68l-1.39,4.7h-1.99l-1.22-4.66c-0.37-1.42-0.74-3.13-1.02-4.72h-0.04c-0.06,1.64-0.12,3.5-0.19,5
				l-0.21,4.58h-2.37l0.73-12.06h3.42l1.11,4.03c0.36,1.38,0.71,2.9,0.96,4.31h0.05c0.31-1.4,0.69-2.99,1.08-4.33l1.2-4.01h3.36
				l0.61,12.06h-2.49L1043.27,713.22z M1057.5,713.22c-0.05-1.46-0.1-3.2-0.1-4.97h-0.05c-0.36,1.54-0.84,3.26-1.27,4.68l-1.39,4.7
				h-1.99l-1.22-4.66c-0.37-1.42-0.74-3.13-1.02-4.72h-0.04c-0.06,1.64-0.12,3.5-0.19,5l-0.21,4.58h-2.37l0.73-12.06h3.42l1.11,4.03
				c0.36,1.38,0.71,2.9,0.96,4.31h0.05c0.31-1.4,0.69-2.99,1.08-4.33l1.2-4.01h3.36l0.61,12.06h-2.49L1057.5,713.22z
				 M1068.88,712.73h-4.17v2.87h4.67v2.23h-7.23v-12.06h6.99v2.23h-4.42v2.51h4.17V712.73z M1074.53,705.68
				c1.68,0,2.86,0.27,3.67,0.96c0.68,0.57,1.05,1.42,1.05,2.53c0,1.53-1.03,2.59-2,2.96v0.06c0.79,0.34,1.23,1.14,1.52,2.25
				c0.35,1.36,0.69,2.94,0.92,3.4h-2.63c-0.17-0.35-0.46-1.32-0.78-2.81c-0.32-1.51-0.79-1.91-1.85-1.92h-0.76v4.73h-2.54v-11.89
				C1071.94,705.79,1073.16,705.68,1074.53,705.68z M1073.66,711.12h1c1.27,0,2.03-0.69,2.03-1.74c0-1.1-0.71-1.67-1.88-1.68
				c-0.61,0-0.97,0.04-1.15,0.09V711.12z M1089.34,717.5c-0.46,0.24-1.53,0.52-2.9,0.52c-3.93,0-5.95-2.61-5.95-6.05
				c0-4.11,2.77-6.39,6.2-6.39c1.33,0,2.35,0.28,2.79,0.53l-0.52,2.16c-0.51-0.24-1.24-0.45-2.15-0.45c-2.02,0-3.61,1.31-3.61,3.99
				c0,2.42,1.34,3.94,3.62,3.94c0.79,0,1.64-0.16,2.14-0.39L1089.34,717.5z M1097.77,712.73h-4.17v2.87h4.67v2.23h-7.23v-12.06h6.99
				v2.23h-4.42v2.51h4.17V712.73z"/>
		</g>
	</g>
	<g>
		
			<linearGradient id="SVGID_5_" gradientUnits="userSpaceOnUse" x1="201.1367" y1="268.9766" x2="235.1004" y2="268.9766" gradientTransform="matrix(-0.1497 0.9887 -0.9887 -0.1497 430.4132 7.9483)">
			<stop  offset="0" style="stop-color:#F1BF2D"/>
			<stop  offset="0" style="stop-color:#E9C139"/>
			<stop  offset="0.3198" style="stop-color:#FAF18D"/>
			<stop  offset="0.6802" style="stop-color:#D8A928"/>
			<stop  offset="1" style="stop-color:#F8F297"/>
		</linearGradient>
		<path fill="url(#SVGID_5_)" d="M137.48,187.7c-0.4,2.66-0.8,5.32-1.21,7.97c-0.59,3.84-3.02,5.1-6.59,4.52
			c-3.5-0.57-4.56-3.51-4.46-6.22c0.29-7.67,1.04-15.33,1.82-22.97c0.21-2.02-0.37-5.05,3.23-4.97c4.44,0.1,8.26,2.72,8.29,6.04
			c0.04,5.22-0.35,10.44-0.56,15.65C137.83,187.72,137.65,187.71,137.48,187.7z"/>
		
			<linearGradient id="SVGID_6_" gradientUnits="userSpaceOnUse" x1="214.8975" y1="303.096" x2="244.6022" y2="303.096" gradientTransform="matrix(-0.1497 0.9887 -0.9887 -0.1497 430.4132 7.9483)">
			<stop  offset="0" style="stop-color:#F1BF2D"/>
			<stop  offset="0" style="stop-color:#E9C139"/>
			<stop  offset="0.3198" style="stop-color:#FAF18D"/>
			<stop  offset="0.6802" style="stop-color:#D8A928"/>
			<stop  offset="1" style="stop-color:#F8F297"/>
		</linearGradient>
		<path fill="url(#SVGID_6_)" d="M91.93,174.05c1.64,1.28,3.35,2.08,4.24,3.42c2.88,4.36,6.4,8.65,7.85,13.5
			c1.06,3.53,0.77,7.47,3.21,10.73c0.27,0.36-0.34,1.88-0.94,2.3c-4.78,3.34-10.5,0.82-12.35-4.72c-2.05-6.13-4.88-11.99-7.26-18.02
			c-0.63-1.6-1.62-4.44-1.06-4.86C87.31,175.14,89.67,174.8,91.93,174.05z"/>
		
			<linearGradient id="SVGID_7_" gradientUnits="userSpaceOnUse" x1="247.8973" y1="339.4014" x2="261.0685" y2="339.4014" gradientTransform="matrix(0.123 0.9924 -0.9924 0.123 369.9431 -50.0042)">
			<stop  offset="0" style="stop-color:#F1BF2D"/>
			<stop  offset="0" style="stop-color:#E9C139"/>
			<stop  offset="0.3198" style="stop-color:#FAF18D"/>
			<stop  offset="0.6802" style="stop-color:#D8A928"/>
			<stop  offset="1" style="stop-color:#F8F297"/>
		</linearGradient>
		<path fill="url(#SVGID_7_)" d="M55.4,238.77c8.45,0.25,16.91,0.33,25.34,0.82c3.45,0.2,2.89,3.16,2.19,5.26
			c-1.26,3.77-4.42,4.78-8.08,4.52c-8.57-0.61-17.13-1.35-25.7-1.86c-2.39-0.14-3.81-0.72-4.08-3.33c-0.28-2.72,1.25-3.63,3.49-3.96
			c2.27-0.34,4.55-0.58,6.83-0.86C55.39,239.17,55.4,238.97,55.4,238.77z"/>
		
			<linearGradient id="SVGID_8_" gradientUnits="userSpaceOnUse" x1="218.4307" y1="329.6956" x2="243.0927" y2="329.6956" gradientTransform="matrix(0.0601 0.9982 -0.9982 0.0601 387.0191 -37.4979)">
			<stop  offset="0" style="stop-color:#F1BF2D"/>
			<stop  offset="0" style="stop-color:#E9C139"/>
			<stop  offset="0.3198" style="stop-color:#FAF18D"/>
			<stop  offset="0.6802" style="stop-color:#D8A928"/>
			<stop  offset="1" style="stop-color:#F8F297"/>
		</linearGradient>
		<path fill="url(#SVGID_8_)" d="M83.05,224.32c-2.93-2.17-5.53-4.24-8.28-6.08c-1.62-1.08-3.54-1.69-5.22-2.68
			c-4.1-2.4-8.35-4.62-12.06-7.52c-0.97-0.76-0.78-4.05,0-5.63c0.49-1.01,3.39-1.83,4.61-1.31c5.25,2.24,10.67,4.16,14.58,8.94
			c2.31,2.82,5.97,4.49,8.67,7.06c1.06,1.01,1.61,3.08,1.49,4.58C86.75,222.51,84.78,223.18,83.05,224.32z"/>
		
			<linearGradient id="SVGID_9_" gradientUnits="userSpaceOnUse" x1="218.4439" y1="236.3574" x2="245.5224" y2="236.3574" gradientTransform="matrix(-0.1497 0.9887 -0.9887 -0.1497 430.4132 7.9483)">
			<stop  offset="0" style="stop-color:#F1BF2D"/>
			<stop  offset="0" style="stop-color:#E9C139"/>
			<stop  offset="0.3198" style="stop-color:#FAF18D"/>
			<stop  offset="0.6802" style="stop-color:#D8A928"/>
			<stop  offset="1" style="stop-color:#F8F297"/>
		</linearGradient>
		<path fill="url(#SVGID_9_)" d="M154.67,214.52c-0.72-0.58-2.73-1.55-3.52-3.14c-0.34-0.67,2.37-2.47,2.82-4.02
			c1.23-4.22,5.3-6.2,7.17-9.81c1.01-1.95,1.36-4.24,2.42-6.14c1.13-2.02,2.9-3.32,5.34-1.65c2.34,1.6,4.48,3.58,3.25,6.63
			c-1.09,2.7-2.93,5.1-4.43,7.64c-0.66,1.11-1.47,2.17-1.89,3.37C164.69,210.6,158.56,215.19,154.67,214.52z"/>
	</g>
	<g>
		<g>
			
				<linearGradient id="SVGID_10_" gradientUnits="userSpaceOnUse" x1="796.0822" y1="243.3193" x2="957.6653" y2="243.3193" gradientTransform="matrix(1 0 0 1 -634.5564 32.0031)">
				<stop  offset="0" style="stop-color:#F1BF2D"/>
				<stop  offset="0" style="stop-color:#E9C139"/>
				<stop  offset="0.3198" style="stop-color:#FAF18D"/>
				<stop  offset="0.6802" style="stop-color:#D8A928"/>
				<stop  offset="1" style="stop-color:#F8F297"/>
			</linearGradient>
			<path fill="url(#SVGID_10_)" d="M206.41,268.14c-0.44-4.99-2.13-8.82-5.06-11.52c-3.44-3.16-8.64-4.76-15.57-4.76
				c-7.21,0-13.17,3.12-17.91,9.37c-1.69,2.22-3.03,4.51-4.05,6.9c-1.17,2.75-1.9,5.64-2.17,8.64c-0.09,0.96-0.14,1.93-0.14,2.91
				c0,5.73,2.2,10.42,6.62,14.02c4.12,3.37,9.12,5.06,15,5.06c7.22,0,13.08-3.16,17.57-9.5c2.73-3.85,4.51-8,5.31-12.5
				c0.34-1.9,0.51-3.83,0.51-5.84C206.54,269.97,206.5,269.05,206.41,268.14z M197.4,276.79c-0.62,2.68-1.74,5.18-3.32,7.51
				c-2.93,4.28-6.57,6.43-10.93,6.43c-3.75,0-6.85-0.99-9.32-2.98c-2.56-2.06-3.83-4.74-3.83-8.04c0-0.99,0.05-1.95,0.19-2.91
				c0.37-3.07,1.4-5.95,3.05-8.64c0.35-0.6,0.76-1.19,1.19-1.77c3.14-4.3,6.94-6.42,11.36-6.42c4.54,0,7.72,0.76,9.5,2.31
				c1.42,1.24,2.29,3.19,2.64,5.89c0.11,0.85,0.16,1.79,0.16,2.8C198.09,272.99,197.86,274.92,197.4,276.79z"/>
			
				<linearGradient id="SVGID_11_" gradientUnits="userSpaceOnUse" x1="796.0822" y1="243.399" x2="957.6653" y2="243.399" gradientTransform="matrix(1 0 0 1 -634.5564 32.0031)">
				<stop  offset="0" style="stop-color:#F1BF2D"/>
				<stop  offset="0" style="stop-color:#E9C139"/>
				<stop  offset="0.3198" style="stop-color:#FAF18D"/>
				<stop  offset="0.6802" style="stop-color:#D8A928"/>
				<stop  offset="1" style="stop-color:#F8F297"/>
			</linearGradient>
			<path fill="url(#SVGID_11_)" d="M242.02,292.12c0,1.7-0.85,2.95-2.59,3.71c-2.33,1.03-5.95,1.95-10.86,2.77
				c-4.47,0.76-8.16,1.14-11.04,1.14c-4.86,0-7.29-2.13-7.29-6.39c0.02,0,0.21-3.14,0.6-9.44c0.14-2.31,0.25-4.67,0.36-7.12
				c0.11-2.79,0.21-5.68,0.27-8.64c0.09-4.15,0.14-8.48,0.14-12.99c0-1.14,0.39-2.09,1.19-2.89c0.78-0.8,1.76-1.19,2.96-1.19
				c1.19,0,2.17,0.39,2.96,1.19s1.19,1.76,1.19,2.89c0,4.49-0.05,8.8-0.14,12.99c-0.07,2.95-0.16,5.84-0.28,8.64
				c-0.11,2.59-0.23,5.13-0.37,7.6c-0.18,1.58-0.37,4.01-0.57,7.28c4.7-0.07,10.74-1.22,18.1-3.44c0.46-0.14,0.89-0.21,1.31-0.21
				c1.24,0,2.25,0.46,3.04,1.37C241.68,290.19,242.02,291.11,242.02,292.12z"/>
			
				<linearGradient id="SVGID_12_" gradientUnits="userSpaceOnUse" x1="796.0822" y1="243.2749" x2="957.6653" y2="243.2749" gradientTransform="matrix(1 0 0 1 -634.5564 32.0031)">
				<stop  offset="0" style="stop-color:#F1BF2D"/>
				<stop  offset="0" style="stop-color:#E9C139"/>
				<stop  offset="0.3198" style="stop-color:#FAF18D"/>
				<stop  offset="0.6802" style="stop-color:#D8A928"/>
				<stop  offset="1" style="stop-color:#F8F297"/>
			</linearGradient>
			<path fill="url(#SVGID_12_)" d="M283.97,276.79c-0.39-3.03-1.53-5.91-3.41-8.64c-1.03-1.53-2.29-2.98-3.78-4.42
				c-4.1-3.96-9.05-6.87-14.87-8.75c-0.59-0.19-2.4-1.01-5.48-2.48c-2.63-1.22-4.28-1.85-4.93-1.85c-1.19,0-2.31,0.55-3.37,1.63
				c-1.05,1.08-1.58,2.17-1.58,3.25c0,2.2,0.05,5.52,0.14,9.92c0.02,0.96,0.04,1.85,0.05,2.7c0.05,3.07,0.07,5.48,0.07,7.21
				c0,0.43,0,0.91-0.02,1.44c-0.02,1.9-0.11,4.4-0.25,7.51c-0.19,3.96-0.28,6.94-0.28,8.93c0,1.1,0.39,2.06,1.19,2.84
				c0.78,0.78,1.77,1.19,2.95,1.21c1.31,0.83,3.11,1.51,5.38,2.02c1.9,0.41,3.55,0.62,5.01,0.62c5.98,0,10.61-1.07,13.9-3.21
				c2.95-1.9,5.25-4.44,6.94-7.6c1.69-3.09,2.54-6.35,2.54-9.8C284.15,278.45,284.1,277.62,283.97,276.79z M274.19,285.5
				c-1.05,1.95-2.45,3.48-4.22,4.61c-1.86,1.19-4.93,1.79-9.23,1.79c-1.22,0-2.34-0.12-3.34-0.37c-1.01-0.25-1.9-0.62-2.66-1.12
				v-29.46c6.32,2.59,10.45,4.49,12.37,5.71c0.78,0.48,1.49,0.98,2.17,1.47c3.41,2.57,5.47,5.45,6.19,8.64
				c0.19,0.87,0.28,1.74,0.28,2.64C275.76,281.54,275.22,283.57,274.19,285.5z"/>
			
				<linearGradient id="SVGID_13_" gradientUnits="userSpaceOnUse" x1="796.0822" y1="242.5471" x2="957.6653" y2="242.5471" gradientTransform="matrix(1 0 0 1 -634.5564 32.0031)">
				<stop  offset="0" style="stop-color:#F1BF2D"/>
				<stop  offset="0" style="stop-color:#E9C139"/>
				<stop  offset="0.3198" style="stop-color:#FAF18D"/>
				<stop  offset="0.6802" style="stop-color:#D8A928"/>
				<stop  offset="1" style="stop-color:#F8F297"/>
			</linearGradient>
			<path fill="url(#SVGID_13_)" d="M297.96,268.14c-0.04,0.75-0.05,1.54-0.09,2.36c1.12-0.07,4.99-0.44,11.64-1.1
				c3.78-0.37,6.19-0.57,7.21-0.57c1.17,0,2.17,0.37,3,1.12c0.83,0.75,1.24,1.72,1.24,2.96c0,2.09-0.99,3.39-3,3.87
				c-0.25,0.05-0.5,0.11-0.78,0.14c-1.58,0.12-3.96,0.32-7.1,0.6c-2.82,0.32-7.06,0.71-12.74,1.15c-0.14,2.52-0.21,4.56-0.21,6.11
				c0,3.89,0.23,6.11,0.69,6.64c0.21,0.25,1.46,0.39,3.74,0.39c1.22,0,3.09-0.04,5.57-0.09c2.47-0.07,4.33-0.09,5.56-0.09
				c0.41,0,0.98-0.07,1.76-0.18c0.78-0.12,1.35-0.18,1.72-0.18c1.15,0,2.15,0.32,2.95,0.98c0.94,0.73,1.4,1.77,1.4,3.09
				c0,2.24-1.15,3.57-3.48,3.99c-1.99,0.37-6.11,0.57-12.35,0.57c-6.48,0-10.68-0.87-12.65-2.63c-2.17-1.92-3.25-6.09-3.25-12.5
				c0-1.95,0.11-4.61,0.32-8c0.07-1.22,0.16-2.56,0.27-3.98c0.12-1.69,0.23-3.25,0.3-4.67c0.19-3.05,0.28-5.48,0.28-7.28
				c0-0.71-0.11-1.72-0.3-3.09c-0.2-1.37-0.3-2.38-0.3-3.09c0-3.02,1.38-4.53,4.17-4.53c0.87,0,1.69,0.25,2.41,0.75
				c2.31-0.57,4.49-0.99,6.57-1.3c2.08-0.28,4.03-0.43,5.87-0.43c5.01,0,9,0.59,12,1.72c1.83,0.71,2.73,1.97,2.73,3.78
				c0,1.03-0.36,1.95-1.07,2.75c-0.8,0.9-1.81,1.37-3.03,1.37c-0.41,0-0.82-0.07-1.26-0.18c-3.21-0.87-6.34-1.31-9.37-1.31
				c-1.49,0-3.09,0.12-4.79,0.35c-1.7,0.25-3.53,0.6-5.45,1.07C298.14,260.95,298.07,264.1,297.96,268.14z"/>
		</g>
		<g>
			<linearGradient id="SVGID_14_" gradientUnits="userSpaceOnUse" x1="161.5258" y1="275.3224" x2="206.536" y2="275.3224">
				<stop  offset="0" style="stop-color:#F1BF2D"/>
				<stop  offset="0" style="stop-color:#E9C139"/>
				<stop  offset="0.3198" style="stop-color:#FAF18D"/>
				<stop  offset="0.6802" style="stop-color:#D8A928"/>
				<stop  offset="1" style="stop-color:#F8F297"/>
			</linearGradient>
			<path fill="url(#SVGID_14_)" d="M206.41,268.14c-0.44-4.99-2.13-8.82-5.06-11.52c-3.44-3.16-8.64-4.76-15.57-4.76
				c-7.21,0-13.17,3.12-17.91,9.37c-1.69,2.22-3.03,4.51-4.05,6.9c-1.17,2.75-1.9,5.64-2.17,8.64c-0.09,0.96-0.14,1.93-0.14,2.91
				c0,5.73,2.2,10.42,6.62,14.02c4.12,3.37,9.12,5.06,15,5.06c7.22,0,13.08-3.16,17.57-9.5c2.73-3.85,4.51-8,5.31-12.5
				c0.34-1.9,0.51-3.83,0.51-5.84C206.54,269.97,206.5,269.05,206.41,268.14z M197.4,276.79c-0.62,2.68-1.74,5.18-3.32,7.51
				c-2.93,4.28-6.57,6.43-10.93,6.43c-3.75,0-6.85-0.99-9.32-2.98c-2.56-2.06-3.83-4.74-3.83-8.04c0-0.99,0.05-1.95,0.19-2.91
				c0.37-3.07,1.4-5.95,3.05-8.64c0.35-0.6,0.76-1.19,1.19-1.77c3.14-4.3,6.94-6.42,11.36-6.42c4.54,0,7.72,0.76,9.5,2.31
				c1.42,1.24,2.29,3.19,2.64,5.89c0.11,0.85,0.16,1.79,0.16,2.8C198.09,272.99,197.86,274.92,197.4,276.79z"/>
			<linearGradient id="SVGID_15_" gradientUnits="userSpaceOnUse" x1="210.2278" y1="275.4022" x2="242.0154" y2="275.4022">
				<stop  offset="0" style="stop-color:#F1BF2D"/>
				<stop  offset="0" style="stop-color:#E9C139"/>
				<stop  offset="0.3198" style="stop-color:#FAF18D"/>
				<stop  offset="0.6802" style="stop-color:#D8A928"/>
				<stop  offset="1" style="stop-color:#F8F297"/>
			</linearGradient>
			<path fill="url(#SVGID_15_)" d="M242.02,292.12c0,1.7-0.85,2.95-2.59,3.71c-2.33,1.03-5.95,1.95-10.86,2.77
				c-4.47,0.76-8.16,1.14-11.04,1.14c-4.86,0-7.29-2.13-7.29-6.39c0.02,0,0.21-3.14,0.6-9.44c0.14-2.31,0.25-4.67,0.36-7.12
				c0.11-2.79,0.21-5.68,0.27-8.64c0.09-4.15,0.14-8.48,0.14-12.99c0-1.14,0.39-2.09,1.19-2.89c0.78-0.8,1.76-1.19,2.96-1.19
				c1.19,0,2.17,0.39,2.96,1.19s1.19,1.76,1.19,2.89c0,4.49-0.05,8.8-0.14,12.99c-0.07,2.95-0.16,5.84-0.28,8.64
				c-0.11,2.59-0.23,5.13-0.37,7.6c-0.18,1.58-0.37,4.01-0.57,7.28c4.7-0.07,10.74-1.22,18.1-3.44c0.46-0.14,0.89-0.21,1.31-0.21
				c1.24,0,2.25,0.46,3.04,1.37C241.68,290.19,242.02,291.11,242.02,292.12z"/>
			<linearGradient id="SVGID_16_" gradientUnits="userSpaceOnUse" x1="246.2571" y1="275.278" x2="284.1505" y2="275.278">
				<stop  offset="0" style="stop-color:#F1BF2D"/>
				<stop  offset="0" style="stop-color:#E9C139"/>
				<stop  offset="0.3198" style="stop-color:#FAF18D"/>
				<stop  offset="0.6802" style="stop-color:#D8A928"/>
				<stop  offset="1" style="stop-color:#F8F297"/>
			</linearGradient>
			<path fill="url(#SVGID_16_)" d="M283.97,276.79c-0.39-3.03-1.53-5.91-3.41-8.64c-1.03-1.53-2.29-2.98-3.78-4.42
				c-4.1-3.96-9.05-6.87-14.87-8.75c-0.59-0.19-2.4-1.01-5.48-2.48c-2.63-1.22-4.28-1.85-4.93-1.85c-1.19,0-2.31,0.55-3.37,1.63
				c-1.05,1.08-1.58,2.17-1.58,3.25c0,2.2,0.05,5.52,0.14,9.92c0.02,0.96,0.04,1.85,0.05,2.7c0.05,3.07,0.07,5.48,0.07,7.21
				c0,0.43,0,0.91-0.02,1.44c-0.02,1.9-0.11,4.4-0.25,7.51c-0.19,3.96-0.28,6.94-0.28,8.93c0,1.1,0.39,2.06,1.19,2.84
				c0.78,0.78,1.77,1.19,2.95,1.21c1.31,0.83,3.11,1.51,5.38,2.02c1.9,0.41,3.55,0.62,5.01,0.62c5.98,0,10.61-1.07,13.9-3.21
				c2.95-1.9,5.25-4.44,6.94-7.6c1.69-3.09,2.54-6.35,2.54-9.8C284.15,278.45,284.1,277.62,283.97,276.79z M274.19,285.5
				c-1.05,1.95-2.45,3.48-4.22,4.61c-1.86,1.19-4.93,1.79-9.23,1.79c-1.22,0-2.34-0.12-3.34-0.37c-1.01-0.25-1.9-0.62-2.66-1.12
				v-29.46c6.32,2.59,10.45,4.49,12.37,5.71c0.78,0.48,1.49,0.98,2.17,1.47c3.41,2.57,5.47,5.45,6.19,8.64
				c0.19,0.87,0.28,1.74,0.28,2.64C275.76,281.54,275.22,283.57,274.19,285.5z"/>
			<linearGradient id="SVGID_17_" gradientUnits="userSpaceOnUse" x1="288.783" y1="274.5503" x2="323.1089" y2="274.5503">
				<stop  offset="0" style="stop-color:#F1BF2D"/>
				<stop  offset="0" style="stop-color:#E9C139"/>
				<stop  offset="0.3198" style="stop-color:#FAF18D"/>
				<stop  offset="0.6802" style="stop-color:#D8A928"/>
				<stop  offset="1" style="stop-color:#F8F297"/>
			</linearGradient>
			<path fill="url(#SVGID_17_)" d="M297.96,268.14c-0.04,0.75-0.05,1.54-0.09,2.36c1.12-0.07,4.99-0.44,11.64-1.1
				c3.78-0.37,6.19-0.57,7.21-0.57c1.17,0,2.17,0.37,3,1.12c0.83,0.75,1.24,1.72,1.24,2.96c0,2.09-0.99,3.39-3,3.87
				c-0.25,0.05-0.5,0.11-0.78,0.14c-1.58,0.12-3.96,0.32-7.1,0.6c-2.82,0.32-7.06,0.71-12.74,1.15c-0.14,2.52-0.21,4.56-0.21,6.11
				c0,3.89,0.23,6.11,0.69,6.64c0.21,0.25,1.46,0.39,3.74,0.39c1.22,0,3.09-0.04,5.57-0.09c2.47-0.07,4.33-0.09,5.56-0.09
				c0.41,0,0.98-0.07,1.76-0.18c0.78-0.12,1.35-0.18,1.72-0.18c1.15,0,2.15,0.32,2.95,0.98c0.94,0.73,1.4,1.77,1.4,3.09
				c0,2.24-1.15,3.57-3.48,3.99c-1.99,0.37-6.11,0.57-12.35,0.57c-6.48,0-10.68-0.87-12.65-2.63c-2.17-1.92-3.25-6.09-3.25-12.5
				c0-1.95,0.11-4.61,0.32-8c0.07-1.22,0.16-2.56,0.27-3.98c0.12-1.69,0.23-3.25,0.3-4.67c0.19-3.05,0.28-5.48,0.28-7.28
				c0-0.71-0.11-1.72-0.3-3.09c-0.2-1.37-0.3-2.38-0.3-3.09c0-3.02,1.38-4.53,4.17-4.53c0.87,0,1.69,0.25,2.41,0.75
				c2.31-0.57,4.49-0.99,6.57-1.3c2.08-0.28,4.03-0.43,5.87-0.43c5.01,0,9,0.59,12,1.72c1.83,0.71,2.73,1.97,2.73,3.78
				c0,1.03-0.36,1.95-1.07,2.75c-0.8,0.9-1.81,1.37-3.03,1.37c-0.41,0-0.82-0.07-1.26-0.18c-3.21-0.87-6.34-1.31-9.37-1.31
				c-1.49,0-3.09,0.12-4.79,0.35c-1.7,0.25-3.53,0.6-5.45,1.07C298.14,260.95,298.07,264.1,297.96,268.14z"/>
		</g>
	</g>
	
		<linearGradient id="SVGID_18_" gradientUnits="userSpaceOnUse" x1="275.8074" y1="56.7573" x2="302.8859" y2="56.7573" gradientTransform="matrix(-0.6752 0.7376 -0.7376 -0.6752 415.4305 56.9667)">
		<stop  offset="0" style="stop-color:#F1BF2D"/>
		<stop  offset="0" style="stop-color:#E9C139"/>
		<stop  offset="0.3198" style="stop-color:#FAF18D"/>
		<stop  offset="0.6802" style="stop-color:#D8A928"/>
		<stop  offset="1" style="stop-color:#F8F297"/>
	</linearGradient>
	<path fill="url(#SVGID_18_)" d="M165.09,238.43c-0.27-0.88-1.4-2.81-1.18-4.57c0.09-0.74,3.34-0.73,4.58-1.76
		c3.38-2.82,7.86-2.2,11.42-4.15c1.92-1.06,3.49-2.76,5.43-3.75c2.06-1.05,4.26-1.15,5.36,1.61c1.05,2.63,1.73,5.47-1,7.31
		c-2.41,1.64-5.28,2.6-7.94,3.87c-1.16,0.56-2.43,0.98-3.45,1.74C175.6,240.76,167.95,241.15,165.09,238.43z"/>
	<g>
		<path fill="#FFFFFF" d="M106.81,314.69v7.1h-7.76v-7.1h-4.1v18.87h4.1v-8.13h7.76v8.13h4.1v-18.87H106.81z"/>
		<path fill="#FFFFFF" d="M123.62,314.3c-5.73,0-9.18,4.6-9.18,9.78c0,5.5,3.27,9.89,8.98,9.89c6.15,0,9.26-4.67,9.26-9.9
			C132.68,318.91,129.51,314.3,123.62,314.3z M123.66,330.38c-3.29,0-4.91-2.79-4.91-6.35c0-3.18,1.46-6.16,4.75-6.16
			c3.41,0,4.87,2.91,4.87,6.25C128.36,327.18,127.04,330.38,123.66,330.38z"/>
		<path fill="#FFFFFF" d="M150.94,329.92v-0.94c0-3.39-1.81-4.14-2.5-4.44c1.66-0.59,2.94-2.02,2.94-4.46c0-3.25-2.25-5.4-6.13-5.4
			h-9.18v18.87h4.04v-7.26h3.43c2.46,0,3.09,0.78,3.09,2.7v0.62c0,2.01,0.04,3.11,0.32,3.94h4.2
			C150.9,332.67,150.94,331.21,150.94,329.92z M144.32,322.85h-4.22v-4.72h4.26c1.93,0,2.82,0.83,2.82,2.32
			C147.18,322.05,146.31,322.85,144.32,322.85z"/>
		<path fill="#FFFFFF" d="M154.8,314.69v18.87h4.1v-18.87H154.8z"/>
		<path fill="#FFFFFF" d="M167.18,329.99l9.99-11.71v-3.59h-14.84v3.59h9.69l-10.19,11.96v3.32h15.66l0.47-3.57H167.18z"/>
		<path fill="#FFFFFF" d="M188.57,314.3c-5.71,0-9.18,4.6-9.18,9.78c0,5.5,3.27,9.89,9,9.89c6.13,0,9.26-4.67,9.26-9.9
			C197.66,318.91,194.48,314.3,188.57,314.3z M188.63,330.38c-3.29,0-4.91-2.79-4.91-6.35c0-3.18,1.44-6.16,4.73-6.16
			c3.43,0,4.89,2.91,4.89,6.25C193.34,327.18,192.02,330.38,188.63,330.38z"/>
		<path fill="#FFFFFF" d="M213.46,314.69v4.67c0,3.11-0.02,6.64,0.14,8.61h-0.04c-1.06-2.24-2.96-5.18-7.7-13.28H201v18.87h3.76
			v-5.98c0-3.35,0-6.03-0.16-8.36h0.06c1,2.16,6.4,11.54,8,14.34h4.53v-18.87H213.46z"/>
		<path fill="#FFFFFF" d="M234.44,329.89V314.7h-4.08v18.87h13l0.53-3.67H234.44z"/>
		<path fill="#FFFFFF" d="M254.36,314.31c-5.71,0-9.18,4.6-9.18,9.78c0,5.5,3.27,9.89,8.98,9.89c6.15,0,9.26-4.67,9.26-9.9
			C263.42,318.92,260.25,314.31,254.36,314.31z M254.4,330.39c-3.29,0-4.91-2.79-4.91-6.35c0-3.18,1.46-6.16,4.75-6.16
			c3.41,0,4.87,2.91,4.87,6.25C259.11,327.19,257.8,330.39,254.4,330.39z"/>
		<path fill="#FFFFFF" d="M275.24,326.29h4.1v0.3c0,2.24-1.3,3.9-4.16,3.9c-3.43,0-5-2.77-5-6.48c0-3.5,1.52-6.26,4.96-6.26
			c2.78,0,3.74,1.63,4.08,2.59h4.12c-0.43-2.75-2.78-6.03-8.2-6.03c-6.03,0-9.28,4.42-9.28,9.94s3.05,9.73,8.51,9.73
			c3.17,0,4.63-0.92,5.69-2.34c0.06,0.69,0.18,1.53,0.28,1.93h2.97v-10.81h-8.08V326.29z"/>
		<path fill="#FFFFFF" d="M287.2,314.7v18.87h4.1V314.7H287.2z"/>
		<path fill="#FFFFFF" d="M302.88,321.85c-3.17-0.64-3.88-1.19-3.88-2.27c0-1.22,1-1.92,2.96-1.92c2.78,0,3.33,1.24,3.59,2.18h4.1
			c-0.2-2.2-1.77-5.52-7.57-5.52c-3.98,0-7.23,1.92-7.23,5.7c0,2.52,1.06,4.65,6.92,5.77c3.57,0.67,4.33,1.4,4.33,2.72
			c0,1.21-0.75,2.11-3.37,2.11c-2.8,0-3.98-1.08-4.45-2.7h-4.1c0.51,3.39,2.88,6.02,8.16,6.02c5.65,0,7.96-2.63,7.96-5.91
			C310.29,325.29,309.29,323.13,302.88,321.85z"/>
		<path fill="#FFFFFF" d="M311.57,314.7v3.66h5.95v15.21h4.1v-15.21h5.91v-3.66H311.57z"/>
		<path fill="#FFFFFF" d="M330.15,314.7v18.87h4.1V314.7H330.15z"/>
		<path fill="#FFFFFF" d="M346.92,330.44c-3.31,0-4.83-2.98-4.83-6.46c0-3.44,1.66-6.12,4.81-6.12c2.88,0,3.78,1.74,4.14,2.8h4.14
			c-0.49-3.14-3.07-6.35-8.24-6.35c-5.95,0-9.16,4.69-9.16,9.85c0,5.15,2.92,9.82,8.94,9.82c5.3,0,7.64-3.09,8.43-6.39h-4.12
			C350.36,329.39,349.32,330.44,346.92,330.44z"/>
		<path fill="#FFFFFF" d="M365.49,321.85c-3.17-0.64-3.86-1.19-3.86-2.27c0-1.22,0.99-1.92,2.94-1.92c2.78,0,3.35,1.24,3.59,2.18
			h4.1c-0.18-2.2-1.75-5.52-7.55-5.52c-4,0-7.23,1.92-7.23,5.7c0,2.52,1.06,4.65,6.92,5.77c3.55,0.67,4.33,1.4,4.33,2.72
			c0,1.21-0.77,2.11-3.39,2.11c-2.8,0-3.96-1.08-4.45-2.7h-4.1c0.51,3.39,2.9,6.02,8.18,6.02c5.65,0,7.94-2.63,7.94-5.91
			C372.9,325.29,371.92,323.13,365.49,321.85z"/>
	</g>
	<linearGradient id="SVGID_19_" gradientUnits="userSpaceOnUse" x1="94.6489" y1="260.724" x2="153.5034" y2="260.724">
		<stop  offset="0" style="stop-color:#F1BF2D"/>
		<stop  offset="0" style="stop-color:#E9C139"/>
		<stop  offset="0.3198" style="stop-color:#FAF18D"/>
		<stop  offset="0.6802" style="stop-color:#D8A928"/>
		<stop  offset="1" style="stop-color:#F8F297"/>
	</linearGradient>
	<path fill="url(#SVGID_19_)" d="M104.71,268.14c1.01-9.41,4.63-18.21,10.83-26.45c2.48-3.32,4.38-5.59,5.7-6.85
		c2.64-2.5,5.17-3.76,7.58-3.76c3.39,0,7.54,1.49,12.46,4.49c1.28,0.8,2.29,1.21,3,1.21c1.35,0,2.5-0.51,3.46-1.54
		c0.98-1.03,1.46-2.2,1.46-3.53c0-2.8-2.93-5.36-8.79-7.67c-4.79-1.93-8.66-2.89-11.59-2.89c-4.6,0-8.96,1.81-13.08,5.45
		c-6.18,5.43-11.23,12.57-15.18,21.4c-3.07,6.87-4.93,13.58-5.61,20.14c-0.19,1.88-0.3,3.75-0.3,5.61c0,1.05,0.04,2.06,0.09,3.03
		c0.41,7.35,2.34,12.96,5.84,16.88c3.96,4.42,9.9,6.64,17.82,6.64c8.68,0,16.22-2.96,22.61-8.86c4.31-3.99,7.61-8.87,9.92-14.66
		c1.07-2.7,1.93-5.57,2.57-8.64H104.71z M133.41,284.95c-4.26,3.64-9.26,5.45-15.02,5.45c-5.45,0-9.18-1.31-11.2-3.96
		c-1.53-1.99-2.45-5.2-2.72-9.66h35.21C138.04,280.03,135.95,282.75,133.41,284.95z"/>
	<linearGradient id="SVGID_20_" gradientUnits="userSpaceOnUse" x1="-48.7239" y1="272.4647" x2="94.9505" y2="272.4647">
		<stop  offset="0" style="stop-color:#F1BF2D"/>
		<stop  offset="0" style="stop-color:#E9C139"/>
		<stop  offset="0.3198" style="stop-color:#FAF18D"/>
		<stop  offset="0.6802" style="stop-color:#D8A928"/>
		<stop  offset="1" style="stop-color:#F8F297"/>
	</linearGradient>
	<path fill="url(#SVGID_20_)" d="M94.95,268.14c-0.19,1.88-0.3,3.75-0.3,5.61c0,1.05,0.04,2.06,0.09,3.03H-48.72v-8.64H94.95z"/>
	<linearGradient id="SVGID_21_" gradientUnits="userSpaceOnUse" x1="326.5401" y1="275.0649" x2="548.7239" y2="275.0649">
		<stop  offset="0" style="stop-color:#F1BF2D"/>
		<stop  offset="0" style="stop-color:#E9C139"/>
		<stop  offset="0.3198" style="stop-color:#FAF18D"/>
		<stop  offset="0.6802" style="stop-color:#D8A928"/>
		<stop  offset="1" style="stop-color:#F8F297"/>
	</linearGradient>
	<path fill="url(#SVGID_21_)" d="M548.72,268.13v8.65H371.23c-0.05,6.66-0.11,10.96-0.11,12.86c0,1.01-0.16,2.58-0.49,4.7
		c-0.41,2.58-1.85,3.86-4.35,3.86c-1.39,0-2.96-0.79-4.7-2.37c-5.49-4.95-11.44-11.28-17.91-19.06c-2.28-2.72-4.59-5.57-6.96-8.65
		c-0.35-0.41-0.65-0.84-1.01-1.28c0,0.46,0,0.87-0.03,1.28c-0.08,4.4-0.14,7.18-0.14,8.24v0.41c0,1.58,0,3.78,0.08,6.69
		c0.08,3.13,0.11,5.49,0.11,7.07c0,5.87-1.41,8.78-4.27,8.78c-1.47,0-2.61-0.44-3.48-1.33c-0.79-0.82-1.17-1.77-1.17-2.91
		c0-0.76,0.05-1.98,0.19-3.59c0.11-1.6,0.19-2.8,0.19-3.62c0-1.17,0.03-2.91,0.14-5.25c0.05-2.34,0.08-4.1,0.08-5.27v-0.57
		c0-1.22-0.03-2.91-0.08-5.08c-0.03-1.36-0.05-2.56-0.05-3.56c-0.03-0.82-0.03-1.52-0.03-2.09c0-1.2-0.11-2.96-0.35-5.33
		c-0.24-2.36-0.35-4.13-0.35-5.33c0-1.2,0.52-2.26,1.52-3.21c1.03-0.9,2.2-1.36,3.51-1.36c1.47,0,3.1,1.25,4.89,3.78
		c3.4,4.87,6.77,9.38,10.14,13.54c2.45,3.07,4.89,5.95,7.34,8.65c3.07,3.4,6.14,6.5,9.16,9.3c0.03-0.65,0.05-2.15,0.05-4.54
		c0-1.69,0-3.26-0.03-4.76c0-3.34-0.03-6.23-0.08-8.65c-0.05-2.75-0.14-4.87-0.19-6.39c-0.05-0.57-0.16-1.63-0.41-3.21
		c-0.19-1.39-0.27-2.47-0.27-3.29c0-2.72,1.44-4.08,4.35-4.08c3.24,0,4.84,4.98,4.84,14.95c0,0.14,0,0.82-0.03,2.01H548.72z"/>
</g>
<g id="Viruses">
</g>
</svg>
