<?xml version="1.0" encoding="utf-8"?>
<!-- Generator: Adobe Illustrator 24.1.2, SVG Export Plug-In . SVG Version: 6.00 Build 0)  -->
<svg version="1.0" id="Layer_1" xmlns="http://www.w3.org/2000/svg" xmlns:xlink="http://www.w3.org/1999/xlink" x="0px" y="0px"
	 viewBox="0 0 595.28 628.28" enable-background="new 0 0 595.28 628.28" xml:space="preserve">
<g>
	<g>
		<g>
			<path d="M-142.76,443.93c-2.98,2.26-6.45,3.72-10.18,4.47c-2.4,0.48-4.71,1.3-7.08,1.86c-1.55,0.36-3.16,0.59-4.74,0.76
				c-4.84,0.59-9.7,1.16-14.55,1.64c-5.2,0.54-10.41,0.97-15.62,1.44c0-0.08-0.01-0.14-0.01-0.2c-4.98,0.23-9.96,0.46-14.96,0.68
				c-0.6,0.03-1.22,0.06-1.81-0.08c-1.21-0.28-1.99-1.19-1.9-2.36c0.08-1.1,0.83-1.75,2.15-1.8c6.55-0.2,13.1-0.45,19.64-0.83
				c5.67-0.32,11.35-0.71,17.01-1.31c4.52-0.5,9.06-1.15,13.52-2.09c4.03-0.85,7.99-2.12,11.91-3.39c1.44-0.47,2.84-1.3,4.01-2.26
				c2.68-2.17,2.1-3.15,0.71-5.36c-2.06-3.3-5.1-5.66-8.37-7.58c-6.51-3.82-13.01-7.71-19.76-11.06c-7.68-3.8-15.6-7.19-23.52-10.49
				c-8.46-3.53-17.05-6.78-25.61-10.05c-8.04-3.08-16.12-6.04-24.18-9.03c-3.75-1.4-7.52-2.74-11.28-4.13
				c-4.4-1.62-8.8-3.25-13.2-4.89c-4.71-1.76-9.42-3.57-14.13-5.31c-4.63-1.72-9.29-3.31-13.88-5.1c-4.42-1.72-8.78-3.56-13.14-5.43
				c-3.78-1.62-7.54-3.33-11.26-5.1c-1.3-0.61-2.48-1.48-3.66-2.33c-0.96-0.69-1.24-2.36-0.65-3.1c0.83-1.06,1.89-1.21,3.17-0.32
				c3.95,2.77,8.33,4.69,12.77,6.5c6.24,2.55,12.5,5.1,18.81,7.52c5.25,2,10.61,3.76,15.89,5.72c6.68,2.48,13.33,5.1,20.01,7.61
				c3.22,1.21,6.51,2.26,9.74,3.44c4.27,1.57,8.5,3.21,12.75,4.8c5.68,2.12,11.4,4.13,17.05,6.35c7.47,2.92,14.9,5.95,22.31,9.01
				c5.5,2.27,11.01,4.52,16.42,7.01c5.58,2.57,11.15,5.2,16.53,8.18c5.2,2.87,10.31,5.98,15.11,9.45c2.52,1.81,4.74,4.37,6.35,7.05
				C-138.21,437.51-138.61,440.78-142.76,443.93z"/>
		</g>
	</g>
</g>
<g>
	<text transform="matrix(0.8704 0 0 1 -328.6624 439.8322)" font-family="'MyriadPro-Regular'" font-size="26.4921px">W A R D R O B E</text>
</g>
<g>
	<path fill="#EB0C8C" d="M-359.77,431.02c-0.11,0-0.22,0.09-0.29,0.25l-0.46,0.55l-0.34,0.48l-0.42,0.59
		c-2.99,4.18-5.14,6.28-6.43,6.28c-0.71,0-1.07-0.36-1.07-1.07c0-0.61,0.82-2.13,2.45-4.54c1.45-2.15,2.18-3.8,2.18-4.94
		c0-0.88-0.24-1.63-0.75-2.24c-0.51-0.61-1.12-0.92-1.83-0.92c-1.8,0-4.27,2.32-7.38,6.94c2.47-4.12,3.75-6.26,3.85-6.42
		c3.41-5.52,5.99-9.67,7.71-12.44c-0.59,0.17-1.22,0.24-1.89,0.24c-0.34,0-0.78-0.05-1.27-0.14l-3.77,6.41
		c-2.83,4.82-4.51,7.67-5.06,8.56c-1.02,1.83-1.78,3.24-2.28,4.18l-3.66,6.61c0.61-0.1,1.1-0.14,1.47-0.14
		c0.34,0,0.78,0.04,1.27,0.14c2.89-5.22,5.17-8.77,6.83-10.64c1.73-1.96,3.1-2.94,4.09-2.94c0.68,0,1.02,0.33,1.02,0.97
		c0,0.55-0.99,2.28-2.97,5.17c-1.26,1.89-1.89,3.4-1.89,4.56c0,0.85,0.25,1.58,0.76,2.15c0.5,0.57,1.15,0.85,1.95,0.85
		c1.47,0,3.67-2,6.61-6.01c0.11-0.15,0.24-0.32,0.36-0.48l1.07-1.48c0.17-0.17,0.25-0.31,0.25-0.45
		C-359.66,431.06-359.7,431.02-359.77,431.02z"/>
	<path fill="#EB0C8C" d="M-347.18,431.05c-0.13,0-0.31,0.14-0.5,0.39c-3.8,5.12-7.02,7.68-9.63,7.68c-1.55,0-2.32-0.71-2.32-2.14
		c0-1.15,0.56-2.57,1.69-4.28c3.64-0.73,6.24-1.52,7.81-2.34c1.55-0.84,2.33-1.86,2.33-3.06c0-0.51-0.22-0.94-0.64-1.3
		c-0.42-0.36-0.93-0.54-1.53-0.54c-1.38,0-3.16,0.6-5.35,1.78c-2.79,1.53-4.64,3.21-5.56,5.06c-0.2,0.39-0.37,0.8-0.48,1.22
		c-0.13,0.52-0.2,1.06-0.2,1.61c0,1.26,0.4,2.32,1.19,3.15c0.79,0.84,1.77,1.26,2.93,1.26c2.46,0,5.4-2.12,8.84-6.36l1.07-1.34
		c0.29-0.38,0.45-0.6,0.45-0.65C-347.07,431.11-347.11,431.08-347.18,431.05z M-353.52,427.62c1.44-1.22,2.59-1.83,3.47-1.83
		c0.59,0,0.88,0.27,0.88,0.8c0,0.99-0.83,2.05-2.48,3.17c-1.67,1.12-3.68,1.99-6.08,2.6C-356.36,430.41-354.96,428.83-353.52,427.62
		z"/>
</g>
<g>
	<text transform="matrix(1 0 0 1 -357.7415 466.8156)" fill="#FFFFFF" font-family="'MyriadPro-Regular'" font-size="26.4921px">by Anita</text>
</g>
<path fill="#EB0C8C" d="M-341.5,288.07c3.39-2.71,7.4-3.63,11.25-1.44c6.5,3.7,10.68,9.17,10.89,17.01c0.04,1.29,0.6,2,1.8,2.18
	c1.26,0.18,2.18-0.61,2.32-1.68c0.2-1.53,0.31-3.19-0.09-4.65c-1.52-5.62-4.49-10.42-9-14.17c-5.56-4.6-12.6-5.71-18.85-1.26
	c-6.07,4.32-10.04,10.17-11.88,17.41c-1.29,5.1-0.61,10.07,1.87,14.63c2.12,3.86,4.54,7.56,6.96,11.24
	c3.54,5.39,7.07,10.74,7.62,17.42c0.34,4.31-0.17,8.16-4.54,10.46c-5.73,3.02-11.3,6.36-17.1,9.24c-6.69,3.34-13.55,6.36-20.35,9.49
	c-4.84,2.23-9.72,4.4-14.58,6.61c-2.78,1.26-5.54,2.51-8.32,3.76c-0.45,0.22-0.9,0.42-1.35,0.62c-2.45,1.12-4.89,2.24-7.33,3.4
	c-6.59,3.13-13.18,6.29-19.66,9.63c-7.06,3.63-14.12,7.26-20.96,11.28c-5.99,3.53-11.81,7.39-17.43,11.48
	c-4.01,2.93-7.75,6.31-11.26,9.81c-3.82,3.84-6.7,8.27-7.58,13.9c-0.64,4.06,1.26,6.37,4.24,7.8c4.5,2.17,9.4,2.84,14.25,3.29
	c7.47,0.7,14.98,1.04,22.49,1.24c0.93,0.03,1.86,0.04,2.79,0.04c0.7,0.79,1.57,1.53,2.57,2.2c3.4,2.27,7.79,3.4,13.12,3.4
	c10.03,0,19.71-3.45,29.04-10.37c3.53-2.68,6.31-5.43,8.32-8.27c2.03-2.84,5.21-8.54,9.56-17.07c4.36-8.55,8.42-15.15,12.21-19.81
	c3.8-4.66,7.96-8.18,12.54-10.56c8.65,1.61,15.9,2.4,21.74,2.4c5.78,0,10.69-0.69,14.7-2.09c4.01-1.39,6.01-3.08,6.01-5.1
	c0-3.19-4.06-4.79-12.19-4.79c-7.91,0-16.17,1.87-24.75,5.63c-10.3-2.12-16.76-3.38-19.39-3.8c-2.48-0.37-5.24-0.55-8.24-0.55
	c-5.84,0-11,0.65-15.49,1.95c-0.9-1.21-1.91-2.26-3.05-3.12c1.86-0.85,3.72-1.69,5.57-2.55c3.77-1.72,7.53-3.5,11.32-5.22
	c4.36-1.96,8.77-3.82,13.1-5.84c3.66-1.69,7.21-3.59,10.87-5.3c5.89-2.77,11.72-5.63,17.13-9.28c2.48-1.67,5.07-3.41,5.78-6.59
	c1.03-4.7,0.75-9.42-0.74-13.98c-1.49-4.54-4.05-8.54-6.69-12.5c-2.62-3.95-5.24-7.94-7.49-12.12c-2.14-3.95-2.45-8.32-0.89-12.58
	C-348.76,295.83-345.74,291.45-341.5,288.07z M-327.44,387.8c3.2,0,5.85,0.37,7.94,1.12c2.1,0.74,3.15,1.64,3.15,2.73
	c0,1.15-1.07,2.14-3.22,2.98c-2.15,0.83-4.74,1.25-7.75,1.25c-4.61,0-9.89-0.57-15.83-1.72c-4.01-0.75-6.49-1.2-7.42-1.34
	C-343.1,389.46-335.39,387.8-327.44,387.8z M-396.26,391.64c1.38,2.52,2.06,5.28,2.06,8.24c0,8.1-3.01,16.02-9.02,23.76
	c-6.03,7.75-12.17,11.62-18.45,11.62c-2.41,0-4.45-0.9-6.1-2.73c-1.64-1.82-2.47-4.06-2.47-6.74c0-6.98,3.58-14.08,10.75-21.29
	C-412.33,397.31-404.58,393.02-396.26,391.64z M-397.04,390.31c-6.09,1.53-11.68,4.2-16.79,8.05c-5.11,3.85-9.28,8.33-12.49,13.48
	c-3.21,5.15-4.82,9.84-4.82,14.07c0,3.08,0.92,5.61,2.75,7.56c1.85,1.95,4.23,2.92,7.16,2.92c7.06,0,13.7-3.58,19.89-10.74
	c6.21-7.17,9.31-14.84,9.31-23.03c0-4.19-0.88-7.93-2.62-11.2c2.6-0.14,4.17-0.22,4.69-0.22c5.01,0,12.23,1.02,21.67,3.06
	c4.01,0.89,7.02,1.52,9.02,1.85c-10.44,4.94-20.45,15.25-30.03,30.93c-5.87,9.66-10.67,16.59-14.37,20.78
	c-7.91,9-16.85,13.48-26.81,13.48c-4.52,0-8.35-1.03-11.44-3.12c-0.64-0.42-1.21-0.87-1.71-1.33c6.57,0.08,13.15-0.03,19.74-0.03
	v-0.36c2.98,0,5.95,0.03,8.93-0.01c1.67-0.01,2.27-0.71,2.18-2.36c-0.08-1.35-0.68-1.85-2.37-1.83c-7.91,0.09-15.84,0.25-23.75,0.29
	c-2.48,0.01-4.97-0.08-7.45-0.14c-0.41-0.01-0.82-0.03-1.22-0.03c-1.44-0.05-2.88-0.06-4.32-0.05c-7.67,0.06-15.3-0.31-22.85-1.61
	c-2.99-0.52-5.9-1.69-8.77-2.78c-0.64-0.24-1.24-1.31-1.34-2.08c-0.14-1.01,0.06-2.15,0.42-3.12c1.61-4.37,4.42-8.07,7.77-11.1
	c4.45-4.05,9.21-7.82,14.21-11.18c6.52-4.38,13.3-8.42,20.17-12.26c6.47-3.63,13.18-6.86,19.81-10.17
	c4.88-2.42,9.81-4.74,14.76-7.03c2.61-1.22,5.25-2.42,7.87-3.61C-398.8,388.22-397.87,389.18-397.04,390.31z"/>
<g>
	<path fill="#FFFFFF" d="M265.98,313.53c-0.1,0.79-0.34,2.25-0.71,4.37l-0.77,4.76c-3.11,0.75-6.15,1.13-9.13,1.13
		c-2.16,0-4.05-0.22-5.68-0.65c-1.92-0.52-3.65-1.43-5.17-2.74c-1.57-1.35-2.71-2.94-3.42-4.79c-0.85-2.16-1.28-4.58-1.28-7.25
		c0-2.46,0.42-4.83,1.25-7.11c0.83-2.28,2.06-4.16,3.69-5.63c1.62-1.48,3.43-2.47,5.41-2.97c1.98-0.5,4.17-0.76,6.57-0.76
		c1.41,0,2.82,0.07,4.25,0.22c1.43,0.15,3.19,0.47,5.29,0.97l0.06,0.68c0.06,0.71,0.1,1.44,0.13,2.18s0.09,1.92,0.19,3.52l0.18,2.65
		c-2.83-0.99-5.34-1.49-7.52-1.49c-1.57,0-2.94,0.3-4.12,0.91s-2.05,1.48-2.62,2.62c-0.56,1.14-0.85,2.46-0.85,3.97
		c0,1.53,0.25,2.8,0.76,3.83s1.31,1.8,2.42,2.32s2.33,0.77,3.66,0.77c0.67,0,1.47-0.07,2.39-0.21c0.92-0.14,1.72-0.29,2.41-0.46
		C264.06,314.21,264.93,313.92,265.98,313.53z"/>
	<path fill="#FFFFFF" d="M293.56,314.27c-0.36,1.66-0.66,3.29-0.92,4.88l-0.65,3.63c-1.96,0.44-3.49,0.71-4.59,0.83
		s-2.17,0.18-3.2,0.18c-1.69,0-3.18-0.14-4.49-0.43s-2.4-0.81-3.27-1.58c-0.87-0.76-1.47-1.64-1.78-2.63s-0.48-2.04-0.48-3.15
		c0-0.2,0.01-0.55,0.03-1.06c0.02-0.5,0.09-1.63,0.21-3.37l0.65-10.29h-4.63c0.1-1.37,0.19-3.17,0.27-5.41l0.09-2.76h4.93
		c0.12-0.91,0.27-2.9,0.44-5.98l5.09-1.04c0.93-0.18,2.92-0.63,5.95-1.37c-0.14,2.6-0.24,5.39-0.3,8.38h6.78
		c-0.16,4.12-0.24,6.85-0.24,8.17h-6.84l-0.36,7.43c-0.04,1.11-0.06,1.82-0.06,2.14c0,0.95,0.1,1.74,0.31,2.38
		c0.21,0.63,0.58,1.09,1.1,1.37c0.53,0.28,1.11,0.42,1.74,0.42c0.48,0,0.97-0.04,1.49-0.1S292.26,314.63,293.56,314.27z"/>
	<path fill="#FFFFFF" d="M315.06,291.89c2.46,0,4.82,0.38,7.09,1.13c2.27,0.75,4.19,1.84,5.75,3.25s2.72,3.07,3.46,4.96
		c0.74,1.89,1.12,3.93,1.12,6.11c0,2.12-0.33,4.14-1,6.05c-0.66,1.91-1.79,3.71-3.37,5.38c-1.59,1.67-3.6,2.93-6.05,3.76
		s-5.04,1.25-7.77,1.25c-2.52,0-4.93-0.37-7.25-1.1c-2.32-0.73-4.26-1.8-5.81-3.21c-1.56-1.41-2.73-3.09-3.51-5.05
		c-0.78-1.96-1.17-4.02-1.17-6.18s0.38-4.22,1.14-6.18s1.97-3.73,3.63-5.29c1.65-1.57,3.7-2.77,6.14-3.61
		C309.88,292.31,312.42,291.89,315.06,291.89z M314.85,300.62c-1.27,0-2.4,0.33-3.39,0.98c-0.99,0.65-1.74,1.61-2.24,2.87
		c-0.5,1.26-0.76,2.63-0.76,4.12c0,2.18,0.54,3.85,1.63,5.01c1.09,1.16,2.46,1.74,4.1,1.74c1.25,0,2.37-0.33,3.36-1
		c0.99-0.66,1.74-1.65,2.24-2.94c0.5-1.3,0.76-2.69,0.76-4.18c0-1.23-0.2-2.34-0.59-3.33s-1.04-1.78-1.95-2.38
		C317.11,300.92,316.06,300.62,314.85,300.62z"/>
	<path fill="#FFFFFF" d="M335.98,336.92c0.38-4.06,0.69-8.12,0.95-12.16c0.46-6.92,0.77-12.72,0.94-17.41
		c0.17-4.69,0.25-9.33,0.25-13.93c4.02-0.61,7.17-1.03,9.45-1.23c2.28-0.21,4.56-0.31,6.84-0.31c2.85,0,5.48,0.3,7.88,0.89
		c2.4,0.59,4.33,1.65,5.78,3.15c1.46,1.51,2.55,3.3,3.29,5.38c0.73,2.08,1.1,4.26,1.1,6.54c0,2.08-0.3,4.1-0.89,6.05
		s-1.5,3.71-2.73,5.28c-1.23,1.57-2.64,2.73-4.23,3.48s-3.37,1.13-5.33,1.13c-0.97,0-1.98-0.09-3.01-0.28
		c-1.04-0.19-2.02-0.46-2.96-0.82c-0.93-0.36-1.71-0.72-2.33-1.08c-0.62-0.37-1.4-0.9-2.33-1.59l-0.33,8.29
		c-0.14,3.81-0.21,6.68-0.21,8.62c-2.3-0.04-4.28-0.06-5.92-0.06C340.75,336.86,338.68,336.88,335.98,336.92z M349.69,301.01
		c-0.16,0.89-0.27,1.62-0.33,2.18c-0.06,0.57-0.12,1.33-0.18,2.29c-0.06,0.96-0.09,1.73-0.09,2.3c0,1.63,0.25,2.99,0.76,4.09
		c0.5,1.1,1.21,1.95,2.11,2.56c0.9,0.6,1.87,0.91,2.9,0.91c1.09,0,2.09-0.31,3-0.94c0.91-0.63,1.63-1.56,2.17-2.81
		c0.54-1.25,0.8-2.66,0.8-4.22c0-2.12-0.56-3.82-1.68-5.11c-1.12-1.29-2.75-1.93-4.89-1.93
		C352.92,300.33,351.39,300.56,349.69,301.01z"/>
	<path fill="#FFFFFF" d="M410.13,323.01c-2.26-0.04-4.15-0.06-5.65-0.06c-1.86,0-3.74,0.02-5.62,0.06l-0.03-4.07
		c-0.71,0.89-1.32,1.56-1.81,2.01c-0.5,0.45-1.04,0.84-1.62,1.17c-0.58,0.34-1.24,0.63-1.96,0.88c-0.72,0.25-1.56,0.44-2.5,0.58
		c-0.94,0.14-1.9,0.21-2.87,0.21c-1.57,0-3.05-0.18-4.44-0.55c-1.4-0.37-2.63-0.99-3.69-1.86c-1.06-0.87-1.78-1.86-2.17-2.97
		s-0.58-2.4-0.58-3.86c0-0.36,0.03-0.91,0.09-1.67l0.47-6.75c0.14-2.48,0.27-5.22,0.39-8.23c0.08-1.84,0.12-3.59,0.12-5.23
		c2.46,0.04,4.55,0.06,6.27,0.06c1.74,0,3.67-0.02,5.77-0.06l-0.92,11.33c-0.14,1.72-0.21,2.9-0.22,3.52s-0.01,1.05-0.01,1.26
		c0,2.08,0.42,3.49,1.27,4.22c0.84,0.73,1.85,1.1,3.03,1.1c0.48,0,0.95-0.07,1.43-0.21c0.48-0.14,0.93-0.34,1.37-0.59
		c0.38-0.24,0.72-0.54,1.04-0.89c0.34-0.38,0.64-0.83,0.89-1.37c0.32-0.65,0.56-1.36,0.71-2.11c0.22-1.05,0.39-2.38,0.51-3.98
		c0.08-1.17,0.18-3.19,0.32-6.06l0.23-6.21c2.55,0.04,4.65,0.06,6.3,0.06c1.84,0,3.69-0.02,5.55-0.06
		c-0.45,5.03-0.81,9.82-1.07,14.36C410.47,311.55,410.27,316.89,410.13,323.01z"/>
	<path fill="#FFFFFF" d="M416.6,322.45c-0.08-0.87-0.16-1.79-0.24-2.75c-0.08-0.96-0.21-2.28-0.39-3.97l-0.24-2.14
		c1.92,0.75,3.57,1.31,4.95,1.68c1.38,0.37,2.66,0.55,3.83,0.55c0.97,0,1.75-0.09,2.36-0.27c0.6-0.18,1.04-0.44,1.32-0.77
		c0.28-0.34,0.42-0.68,0.42-1.04c0-0.32-0.1-0.63-0.31-0.94c-0.21-0.31-0.68-0.73-1.41-1.26c-1.62-1.19-3.05-2.27-4.28-3.24
		s-2.16-1.83-2.79-2.59c-0.62-0.75-1.1-1.57-1.42-2.44c-0.33-0.87-0.49-1.77-0.49-2.71c0-1.64,0.47-3.18,1.41-4.61
		c0.94-1.43,2.33-2.46,4.16-3.11c1.83-0.64,4.07-0.97,6.7-0.97c2.75,0,6.27,0.36,10.55,1.07l0.48,8.32
		c-2.4-0.95-4.71-1.43-6.93-1.43c-1.57,0-2.7,0.16-3.4,0.48c-0.7,0.32-1.06,0.82-1.06,1.48c0,0.22,0.04,0.43,0.12,0.62
		s0.22,0.41,0.43,0.62c0.21,0.22,0.47,0.44,0.77,0.67c0.31,0.23,1.05,0.76,2.24,1.59c1.19,0.83,2.12,1.52,2.79,2.05
		c1.11,0.87,1.96,1.68,2.54,2.42c0.58,0.74,1.03,1.54,1.34,2.38c0.31,0.84,0.46,1.73,0.46,2.66c0,1.41-0.34,2.7-1.03,3.88
		c-0.68,1.18-1.71,2.17-3.09,2.96c-1.38,0.79-2.87,1.34-4.47,1.65c-1.6,0.31-3.26,0.46-4.96,0.46c-1.15,0-2.59-0.1-4.33-0.3
		C420.92,323.29,418.9,322.94,416.6,322.45z"/>
</g>
<path fill="#FFFFFF" d="M451.92,282.61c-3.67,0-6.65,2.76-6.65,6.16c0,3.4,2.98,6.16,6.65,6.16c3.67,0,6.65-2.76,6.65-6.16
	C458.57,285.37,455.59,282.61,451.92,282.61z M451.92,294.03c-3.14,0-5.68-2.36-5.68-5.26c0-2.91,2.54-5.26,5.68-5.26
	c3.13,0,5.67,2.36,5.67,5.26C457.59,291.67,455.05,294.03,451.92,294.03z"/>
<text transform="matrix(1 0 0 1 449.3863 291.5064)" fill="#FFFFFF" font-size="8.5858px">R</text>
<path fill="#FFFFFF" d="M236.87,294.85c0,5.03-0.79,9.81-2.37,14.35c-1.57,4.53-4.24,8.79-8,12.76c-3.76,3.97-8.54,6.94-14.34,8.91
	c-5.81,1.98-11.95,2.96-18.43,2.96c-5.97,0-11.71-0.87-17.2-2.6c-5.5-1.74-10.1-4.28-13.79-7.62c-3.68-3.33-6.46-7.33-8.31-11.98
	c-1.86-4.65-2.79-9.54-2.79-14.66s0.91-10.01,2.72-14.66c1.8-4.66,4.67-8.84,8.6-12.55c3.92-3.71,8.77-6.57,14.55-8.57
	c5.78-1.99,11.8-2.99,18.05-2.99c5.82,0,11.43,0.89,16.81,2.68c5.38,1.78,9.93,4.36,13.64,7.71c3.71,3.37,6.45,7.29,8.21,11.78
	S236.87,289.68,236.87,294.85z"/>
<g>
	<path fill="#59B968" d="M228.56,330.2c-0.97,1.24-2.12,2.33-0.77,3.82c1.02,1.12,2.81,1.5,4.08,0.85c1.9-0.96,2.29-3.58,0.78-5.31
		c-1.45-1.66-3.39-1.91-5.36-1.5c-1.72,0.36-3.45,0.89-5.03,1.66c-3.55,1.72-7.02,3.62-10.51,5.46c-0.44,0.23-0.83,0.55-1.38,0.92
		c1.69,1.25,3.37,2.27,4.77,3.59c1.91,1.79,3.9,3.61,5.32,5.77c2.63,4.02,2.65,8.35,0.09,12.47c-1.96,3.14-5.77,4.13-9.24,2.66
		c-3.02-1.28-4.7-4.82-3.94-8.3c0.71-3.24,2.76-3.97,5.34-1.9c0.34,0.27,0.65,0.58,1.16,1.04c-1.68-0.01-3.27-0.32-3.72,1.6
		c-0.33,1.37,0.7,3.09,2.24,3.91c1.5,0.79,3.13,0.36,4.01-1.13c1.01-1.71,0.85-3.46-0.27-5.01c-0.76-1.05-1.73-1.99-2.76-2.79
		c-3.92-3.04-8.31-5.2-13.13-6.92c0,1.99,0.23,3.83-0.05,5.6c-0.6,3.87-4.52,7.19-8.41,7.38c-3.46,0.17-6.22-2.74-6.6-6.98
		c-0.03-0.34-0.04-0.69-0.02-1.03c0.07-1.53,0.26-3.13,1.9-3.73c1.73-0.63,3,0.47,4.26,1.66c-2.43,0.33-3.29,1.13-3.17,2.85
		c0.12,1.67,1.75,3.27,3.26,3.19c1.85-0.1,3.58-1.64,3.41-3.39c-0.12-1.25-0.54-2.62-1.26-3.63c-1.95-2.73-4.85-4.32-7.84-5.67
		c-0.38-0.17-1.16,0.03-1.5,0.34c-4.72,4.32-9.55,8.55-14.02,13.13c-1.63,1.68-2.84,4.1-3.42,6.39c-1.12,4.43,2.58,7.71,6.78,6.38
		c1.64-0.52,2.62-1.58,2.74-3.34c0.12-1.82-0.5-3.3-2.14-4.16c-1.52-0.8-2.88-0.33-4.07,0.79c-0.12,0.11-0.27,0.2-0.41,0.31
		c-0.14-3.87,3.24-6.17,6.92-4.73c3.38,1.31,5.53,5.49,4.81,9.34c-1.14,6.05-6.57,9.46-12.62,7.92c-8.04-2.05-12.29-9.56-9.96-17.7
		c1.81-6.32,5.65-11.45,9.73-16.42c1.51-1.84,3.12-3.61,4.7-5.44c-0.19-0.16-0.27-0.3-0.35-0.3c-6.79,0.35-13.23-1.87-19.85-2.7
		c-2.78-0.35-5.74-0.24-8.48,0.32c-3.06,0.63-4.17,3.2-2.73,5.58c0.53,0.88,1.8,1.61,2.84,1.78c0.8,0.14,2.02-0.48,2.6-1.15
		c1.13-1.3,0.56-2.65-1.58-4.29c1.68-0.62,3.26-0.94,4.69,0.29c1.04,0.89,1.14,3.24,0.19,4.84c-1.63,2.75-4.26,3.75-7.29,3.64
		c-3.05-0.12-5.17-1.88-6.09-4.72c-1.47-4.54,0.56-9.36,5.03-11.98c2.97-1.74,6.26-2.11,9.59-2.27c1.82-0.08,3.65-0.02,5.62-0.02
		c-0.1-0.56-0.08-0.91-0.21-1.18c-2.13-4.3-4.17-8.66-6.5-12.85c-0.85-1.54-2.29-2.85-3.7-3.95c-1.34-1.05-3.02-1.07-4.49,0.02
		c-1.27,0.94-2.12,2.15-1.65,3.83c0.33,1.21,2.27,2.37,3.75,2.3c1.12-0.05,1.82-0.66,1.96-1.79c0.08-0.61,0.01-1.23,0.01-1.91
		c1.9,1.09,2.75,2.64,2.37,4.17c-0.4,1.61-1.7,2.47-3.83,2.54c-4.66,0.14-8.1-2.45-8.42-6.34c-0.34-4.09,3.13-8.11,7.7-8.94
		c3.91-0.71,7.05,0.91,9.89,3.33c3.92,3.35,6.79,7.57,9.6,11.83c1.32,2,2.6,4.05,4.09,5.92c0.49,0.62,1.58,0.77,2.4,1.14
		c0.1-0.89,0.5-1.87,0.26-2.66c-2.11-6.86-2.85-13.78-1.14-20.82c3.35-13.8,17.12-21.16,30.99-16.44
		c8.61,2.93,14.88,8.38,16.7,17.69c1.5,7.66-0.77,14.6-5.48,20.59c-2.48,3.15-5.73,5.7-8.63,8.53c-0.85,0.83-2.68,1.39-1.92,2.75
		c0.36,0.65,2.44,0.83,3.53,0.51c4-1.18,7.93-2.59,11.84-4.05c4.79-1.79,9.62-2.57,14.6-0.98c5.15,1.65,7.94,6.31,6.51,10.83
		c-0.9,2.87-2.82,4.69-5.83,5.17c-2.62,0.42-4.9-0.3-6.59-2.42c-1.01-1.27-1.54-2.76-0.7-4.31
		C225.36,330.18,226.8,329.98,228.56,330.2z M203.07,309.65c-3.32,1.06-6.49,2.07-9.72,3.1c0.61,2.17,1.82,3.85,4.17,4.25
		c2.17,0.37,3.95-0.5,5.19-2.3C203.85,313.07,203.89,311.33,203.07,309.65z M185.72,310.28c-2.06-2.82-4-5.46-6-8.2
		c-1.77,1.02-2.78,2.56-2.69,4.71c0.1,2.21,1.22,3.83,3.24,4.66C182.33,312.31,184.15,311.59,185.72,310.28z"/>
</g>
</svg>
